<?xml version="1.0" encoding="utf-8"?>
<!-- Generator: Adobe Illustrator 16.0.0, SVG Export Plug-In . SVG Version: 6.00 Build 0)  -->
<!DOCTYPE svg PUBLIC "-//W3C//DTD SVG 1.1//EN" "http://www.w3.org/Graphics/SVG/1.1/DTD/svg11.dtd">
<svg version="1.1" xmlns="http://www.w3.org/2000/svg" xmlns:xlink="http://www.w3.org/1999/xlink" x="0px" y="0px" width="125px"
	 height="460px" viewBox="0 0 125 460" enable-background="new 0 0 125 460" xml:space="preserve">
<g id="Layer_1">
</g>
<g id="Layer_2">
	<g>
		<g>
			<path fill="#D1D1D1" stroke="#2A271D" stroke-width="0.75" d="M36.213,147.423L36.213,147.423
				c-0.104-7.64-0.215-15.28-0.331-22.92c-0.332-0.014-0.665-0.027-0.996-0.039c0.331,0.012,0.664,0.025,0.995,0.039
				C35.999,132.144,36.108,139.784,36.213,147.423z"/>
			<path fill="#BCBCBC" stroke="#2A271D" stroke-width="0.2" d="M35.882,124.503c-0.332-0.014-0.664-0.027-0.995-0.039
				c0.125,7.15,0.245,14.3,0.359,21.45l0.967,1.509C36.108,139.784,35.999,132.144,35.882,124.503z"/>
			<g>
				<path fill="#D1D1D1" stroke="#2A271D" stroke-width="0.75" d="M53.284,113.271c1.949,1.23,3.091,3.672,2.58,5.991
					C56.376,116.944,55.233,114.502,53.284,113.271z"/>
				<path fill="#D1D1D1" stroke="#2A271D" stroke-width="0.75" d="M45.178,116.579c0.632-2.821,3.528-4.626,6.414-4.008l0,0
					C48.706,111.953,45.81,113.757,45.178,116.579c-0.638,2.875,1.35,6.159,4.133,6.848v0
					C46.529,122.737,44.541,119.454,45.178,116.579z"/>
				<path fill="#D1D1D1" stroke="#2A271D" stroke-width="0.75" d="M60.986,90.957c-2.95-0.608-5.934,1.084-6.73,3.711
					C55.052,92.041,58.038,90.348,60.986,90.957z"/>
				<path fill="#D1D1D1" stroke="#2A271D" stroke-width="0.75" d="M38.708,109.269c1.112-0.515,2.151-1.818,2.563-3.009
					c1.49-4.281,2.7-8.673,4.08-13.014c7.666-22.928,31.476-77.026,33.404-81.481c12.601,2.5,22.049,4.39,34.407,6.882
					c-1.339,5.647-2.637,11.185-3.93,16.719c-4.126,17.924-8.112,35.854-12.068,53.773c-2.333,10.822-4.346,21.706-7.161,32.418
					c-2.384,9.288-5.228,18.468-7.922,27.664l2.064,5.911c0.361-1.267,0.729-2.532,1.103-3.796
					c3.037-10.498,9.804-34.108,14.404-53.946c0.735-3.532,1.466-7.064,2.231-10.59c4.085-18.502,8.183-37.016,12.417-55.525
					c1.325-5.713,2.654-11.433,4.022-17.265c-14.016-2.805-27.91-5.557-42.26-8.37c-2.031,4.579-4.037,9.102-5.964,13.638
					c-9.562,23.565-18.394,47.13-26.501,70.7c-1.455,4.465-2.719,8.984-4.305,13.381c-0.179,0.501-0.481,1.018-0.857,1.49
					c-1.85,2.868-5.076,3.507-8.348,5.028c0.054-0.312,0.106-0.617,0.16-0.928c-6.865,2.799-13.69,5.522-20.446,8.221
					c-1.728,0.696-2.422,1.735-2.776,3.552c-0.05,0.257-0.09,0.516-0.137,0.774l9.14-1.852
					C23.508,116.254,31.086,112.832,38.708,109.269z"/>
				<path fill="#D1D1D1" stroke="#2A271D" stroke-width="0.75" d="M75.275,113.782c0.897-2.757,4.101-4.607,6.835-3.953l-0.001,0
					C79.377,109.175,76.173,111.024,75.275,113.782c-0.926,2.867,0.794,6.067,3.656,6.837
					C76.07,119.849,74.35,116.649,75.275,113.782z"/>
				<path fill="#D1D1D1" stroke="#2A271D" stroke-width="0.75" d="M54.065,95.727c-0.168,2.629,1.82,5.451,4.386,6.072
					C55.885,101.178,53.896,98.356,54.065,95.727z"/>
				<path fill="#D1D1D1" stroke="#2A271D" stroke-width="0.75" d="M59.007,101.903c2.788,0.365,5.641-1.535,6.292-4.301
					C64.648,100.367,61.795,102.268,59.007,101.903z"/>
				<path fill="#848484" stroke="#2A271D" stroke-width="0.75" d="M38.436,104.848c0.49-0.755,0.891-1.655,1.167-2.777
					c2.478-9.858,6.038-19.45,9.292-29.158c0.289-0.84,0.405-1.734,0.724-3.139c-4.571,2.635-8.606,4.946-12.544,7.338
					c-0.569,0.348-1.102,1.03-1.229,1.653c-1.95,9.868-3.76,19.755-5.599,30.183c2.071-0.838,4.146-1.68,6.224-2.533
					C37.204,106.115,37.897,105.527,38.436,104.848z"/>
				<path fill="#848484" stroke="#2A271D" stroke-width="0.75" d="M38.436,104.848c-0.539,0.679-1.232,1.267-1.964,1.567
					c-2.078,0.853-4.153,1.695-6.224,2.533c-0.054,0.311-0.106,0.616-0.16,0.928C33.36,108.355,36.586,107.716,38.436,104.848z"/>
				<path fill="#545454" stroke="#2A271D" stroke-width="0.75" d="M90.003,121.557c2.815-10.712,4.828-21.596,7.161-32.418
					c3.956-17.919,7.942-35.85,12.068-53.773c1.293-5.535,2.591-11.072,3.93-16.719c-12.358-2.492-21.807-4.382-34.407-6.882
					c-1.928,4.455-25.738,58.553-33.404,81.481c-1.38,4.341-2.59,8.733-4.08,13.014c-0.411,1.191-1.451,2.494-2.563,3.009
					c-7.623,3.563-15.201,6.985-22.68,10.375l1.894-0.382l-0.735,10.446c0.145,2.486,0.289,4.971,0.432,7.456l5.067-9.943
					l3.282,4.732l-0.23-6.648l0.679,0.028l0.252,7.644l8.578,12.938c-0.115-7.15-0.234-14.3-0.359-21.45
					c0.331,0.012,0.664,0.025,0.996,0.039c0.116,7.64,0.226,15.28,0.331,22.92l4.451,7.095l3.2-22.616l8.523,9.351l12.855-9.531
					l1.771,15l12.021-5.847l3.048,8.345C84.775,140.025,87.619,130.845,90.003,121.557z M55.262,120.768
					c-0.276,0.464-0.622,0.885-1.018,1.252c-1.315,1.223-3.189,1.841-4.932,1.407h-0.001v0c-2.784-0.689-4.771-3.973-4.134-6.848
					c0.632-2.822,3.528-4.626,6.415-4.008l0,0c0,0,0,0,0,0c0.61,0.131,1.177,0.376,1.691,0.7c1.949,1.231,3.092,3.672,2.58,5.991
					C55.746,119.798,55.539,120.304,55.262,120.768z M59.007,101.903c-0.186-0.024-0.372-0.059-0.556-0.104
					c-2.566-0.622-4.555-3.443-4.386-6.072c0.011-0.175,0.032-0.35,0.063-0.523c0.033-0.183,0.075-0.362,0.128-0.537
					c0.796-2.627,3.78-4.319,6.73-3.711c3.175,0.656,5.047,3.553,4.313,6.645C64.648,100.368,61.795,102.268,59.007,101.903z
					 M78.932,120.619c-2.862-0.77-4.582-3.97-3.657-6.837c0.898-2.757,4.103-4.607,6.835-3.953l0.001,0l0,0
					c2.835,0.681,4.582,3.896,3.721,6.819C84.981,119.552,81.795,121.392,78.932,120.619z"/>
				<path fill="#848484" stroke="#2A271D" stroke-width="0.75" d="M96.511,129.093c1.862,0.377,3.574,0.722,5.538,1.119
					c1.938-5.846,4.442-11.428,5.89-17.189c1.696-6.694,1.755-12.505-0.341-17.874c-1.459-3.121-2.761-7.845-4.954-11.824
					c-0.768,4.264-1.802,9.044-2.991,14.065c-1.582,7.661-3.188,15.314-5.214,22.877c-2.74,10.442-6.102,20.736-9.19,31.068
					c-0.453,1.589-0.825,2.874-1.101,3.803l0.157,0.461c1.777-0.419,4.814-2.288,5.215-3.687c1.89-6.538,3.933-13.042,5.964-19.56
					C95.788,131.38,96.095,130.407,96.511,129.093z"/>
				<path fill="#848484" stroke="#2A271D" stroke-width="0.75" d="M94.438,120.267c2.026-7.563,3.632-15.217,5.214-22.877
					c-4.601,19.838-11.367,43.448-14.404,53.946C88.337,141.003,91.698,130.709,94.438,120.267z"/>
				<path fill="#848484" stroke="#2A271D" stroke-width="0.75" d="M53.284,113.271c-0.515-0.324-1.082-0.569-1.692-0.701
					c-2.886-0.618-5.782,1.187-6.414,4.008c-0.637,2.875,1.351,6.158,4.133,6.849c1.744,0.434,3.618-0.185,4.933-1.407
					c0.396-0.367,0.741-0.789,1.018-1.252c0.276-0.463,0.483-0.969,0.602-1.505C56.375,116.944,55.233,114.502,53.284,113.271z"/>
				<path fill="#848484" stroke="#2A271D" stroke-width="0.75" d="M51.593,112.571C51.593,112.571,51.593,112.571,51.593,112.571
					c0.61,0.131,1.177,0.376,1.691,0.7C52.77,112.947,52.203,112.703,51.593,112.571z"/>
				<path fill="#848484" stroke="#2A271D" stroke-width="0.75" d="M55.262,120.768c-0.276,0.464-0.622,0.885-1.018,1.252
					C54.641,121.653,54.986,121.231,55.262,120.768z"/>
				<path fill="#848484" stroke="#2A271D" stroke-width="0.75" d="M82.11,109.83c-2.734-0.655-5.938,1.195-6.835,3.953
					c-0.926,2.867,0.795,6.066,3.656,6.837c2.863,0.773,6.05-1.067,6.899-3.97C86.69,113.725,84.945,110.511,82.11,109.83z"/>
				<path fill="#848484" stroke="#2A271D" stroke-width="0.75" d="M82.11,109.83L82.11,109.83c2.835,0.682,4.58,3.896,3.721,6.819
					C86.692,113.725,84.945,110.511,82.11,109.83z"/>
				<path fill="#848484" stroke="#2A271D" stroke-width="0.75" d="M60.986,90.957c-2.949-0.608-5.934,1.084-6.73,3.711
					c-0.053,0.174-0.095,0.354-0.128,0.537c-0.031,0.173-0.052,0.348-0.063,0.523c-0.168,2.629,1.82,5.451,4.386,6.072
					c0.184,0.045,0.371,0.08,0.556,0.104c2.788,0.365,5.641-1.536,6.292-4.301C66.033,94.509,64.161,91.612,60.986,90.957z"/>
			</g>
			<polygon fill="#F4CE2F" stroke="#2A271D" stroke-width="0.2" points="26.417,125.333 25.737,125.304 25.968,131.952 
				26.669,132.976 			"/>
		</g>
	</g>
</g>
<g id="Layer_3">
	<g>
		<path fill="none" d="M102.429,171.395c0.135-1.005,0.309-2.394,0.514-4.11c-0.178,1.368-0.35,2.735-0.518,4.103L102.429,171.395z"
			/>
		<path fill="none" d="M102.425,171.388c-0.023,0.19-0.049,0.381-0.072,0.573c0.023-0.17,0.049-0.363,0.076-0.565L102.425,171.388z"
			/>
		<path fill="#848484" stroke="#2A271D" stroke-width="0.75" d="M107.087,190.657h-0.002c-0.008,1.053-0.01,1.897-0.016,2.823
			C107.075,192.553,107.079,191.71,107.087,190.657z"/>
		<path fill="#545454" stroke="#2A271D" stroke-width="0.75" d="M24.196,163.663l0.219-0.459c-0.036-0.498-0.073-0.997-0.109-1.495
			L24.196,163.663z"/>
		<path fill="#848484" stroke="#2A271D" stroke-width="0.75" d="M109.919,194.41L109.919,194.41
			c-1.039-0.315-1.912-0.576-2.85-0.859c0-0.024,0-0.047,0-0.071c0,0.024,0,0.047,0,0.071
			C108.007,193.834,108.878,194.095,109.919,194.41z"/>
		<path fill="#848484" stroke="#2A271D" stroke-width="0.75" d="M101.425,189.964c1.998,0.244,3.824,0.468,5.66,0.692
			c0,0,0,0,0-0.001C105.247,190.431,103.421,190.208,101.425,189.964c-0.004,0.023-0.006,0.046-0.01,0.07
			c-0.002,0.012-0.002,0.03-0.004,0.041C101.415,190.038,101.419,190.001,101.425,189.964z"/>
		<path fill="#848484" stroke="#2A271D" stroke-width="0.75" d="M102.353,171.96c0.111-0.028,0.229-0.065,0.35-0.106l-0.273-0.459
			C102.401,171.598,102.376,171.79,102.353,171.96z"/>
		<path fill="#848484" stroke="#2A271D" stroke-width="0.75" d="M11.221,158.809c-0.238,1.95-0.469,3.833-0.735,6.014
			c0.506,0.062,0.979,0.12,1.445,0.176c-0.008-2.028,0.038-4.057,0.15-6.085C11.801,158.879,11.517,158.845,11.221,158.809z"/>
		<path fill="#848484" stroke="#2A271D" stroke-width="0.75" d="M14.893,159.258c-0.919-0.112-1.825-0.224-2.812-0.344
			c-0.113,2.028-0.159,4.057-0.15,6.085c0.735,0.09,1.45,0.177,2.227,0.272C14.404,163.261,14.633,161.38,14.893,159.258z"/>
		<path fill="#848484" stroke="#2A271D" stroke-width="0.75" d="M13.246,148.268c-0.222-0.027-0.44-0.054-0.674-0.083
			c-0.234,1.917-0.473,3.869-0.752,6.15c0.212,0.026,0.415,0.051,0.62,0.076C12.645,152.364,12.91,150.316,13.246,148.268z"/>
		<path fill="#848484" stroke="#2A271D" stroke-width="0.75" d="M16.19,148.628c-0.984-0.12-1.909-0.233-2.945-0.36
			c-0.335,2.048-0.601,4.096-0.807,6.144c1,0.123,1.937,0.237,3,0.367C15.692,152.705,15.93,150.758,16.19,148.628z"/>
		<path fill="#BCBCBC" stroke="#2A271D" stroke-width="0.2" d="M23.254,147.279c0.351,4.81,0.701,9.62,1.052,14.429l0.469-8.336
			c-0.15-2.059-0.3-4.118-0.451-6.177C23.966,147.221,23.61,147.25,23.254,147.279z"/>
		<polygon fill="#F4CE2F" stroke="#2A271D" stroke-width="0.2" points="35.557,160.643 35.211,155.635 34.407,154.639 
			34.825,160.697 		"/>
		<polygon fill="#F4CE2F" stroke="#2A271D" stroke-width="0.2" points="35.694,168.949 36.583,182.03 37.316,181.976 
			36.426,168.895 		"/>
		<polygon fill="none" points="35.694,168.949 36.583,182.03 37.316,181.976 36.426,168.895 		"/>
		<path fill="#D1D1D1" stroke="#2A271D" stroke-width="0.75" d="M97.569,176.228c-7.762-0.949-15.203-1.859-22.707-2.777
			c-3.715,30.387-7.404,60.543-11.104,90.803l2.57,5.802c3.27,0.399,6.5,0.795,9.73,1.19l1.227-1.289
			c-3.648-0.445-7.299-0.892-10.988-1.344c3.742-30.607,7.465-61.052,11.205-91.644c7.328,0.896,14.49,1.772,21.811,2.667
			c-3.32,27.144-6.623,54.16-9.936,81.249l2.902,3.874c0.111-0.924,0.227-1.853,0.338-2.775c0.736-6.016,1.471-12.022,2.203-18.024
			c2.201-18.004,4.396-35.954,6.594-53.925c0.186-1.665,0.809-17.017,0.938-18.074c0.023-0.191,0.049-0.382,0.072-0.573
			l-3.506-5.885c-0.316,2.408-0.627,4.816-0.922,7.226C97.872,173.759,97.745,174.793,97.569,176.228z"/>
		<path fill="#D1D1D1" stroke="#2A271D" stroke-width="0.75" d="M11.466,259.832l3.353-2.639
			c1.692-13.787,3.398-27.571,5.164-41.349c1.11-8.667,1.441-17.184-0.188-25.755c-2.685-14.148-3.014-28.31-0.299-42.538
			c0.368-1.923,1.042-3.087,2.679-4.03c0.408-0.235,0.815-0.471,1.223-0.706l-9.736,3.107c-0.147,0.782-0.288,1.563-0.416,2.345
			c1.036,0.126,1.96,0.24,2.945,0.36c-0.26,2.13-0.499,4.077-0.752,6.15c-1.063-0.13-2-0.244-3-0.367
			c-0.15,1.501-0.275,3.001-0.357,4.502c0.986,0.12,1.893,0.231,2.812,0.344c-0.26,2.123-0.489,4.003-0.735,6.013
			c-0.777-0.095-1.492-0.182-2.227-0.272c0.023,6.186,0.59,12.37,1.654,18.556c4.448,6.626,3.987,26.397,3.31,31.922
			C15.085,230.262,13.277,245.047,11.466,259.832z"/>
		<path fill="#848484" stroke="#2A271D" stroke-width="0.75" d="M15.144,215.551c1.15-8.931,1.423-17.714-0.504-26.576
			c-0.393-1.807-0.745-3.614-1.055-5.42c-0.031-0.046-0.059-0.098-0.09-0.142c-0.088,0.723-2.837,23.205-2.916,23.845
			c-2.401,19.646-4.794,39.293-7.2,58.94l6.029-4.745C11.283,246.147,13.175,230.844,15.144,215.551z"/>
		<path fill="#848484" stroke="#2A271D" stroke-width="0.75" d="M108.183,208.424c-0.068,0.518-0.383,1.335-0.738,1.433
			c-3.945,1.092-2.844,4.408-3.338,7.163c0.25,0.08,0.492,0.158,0.725,0.232c-0.232-0.074-0.473-0.152-0.725-0.232
			c0.496-2.752-0.605-6.07,3.338-7.162c0.355-0.098,0.672-0.916,0.74-1.433c0.605-4.617,1.152-9.238,1.736-14.014
			c0,0,0,0-0.002-0.001C109.335,199.184,108.79,203.806,108.183,208.424z"/>
		<path fill="#848484" stroke="#2A271D" stroke-width="0.75" d="M98.778,260.742c-0.115,1.021-0.404,2.049-0.545,3.03
			c0.141-0.98,0.43-2.009,0.545-3.028c0.887-0.079,1.705-0.152,2.723-0.242c1.727-14.109,3.455-28.259,5.215-42.648l0,0
			c-1.76,14.39-3.49,28.538-5.215,42.646C100.481,260.592,99.665,260.664,98.778,260.742z"/>
		<path fill="#848484" stroke="#2A271D" stroke-width="0.75" d="M100.034,275.11l0.002,0.002c0.232-1.933,0.465-3.866,0.686-5.804
			c0.035-0.31-0.064-0.782-0.24-1.064c0.176,0.283,0.273,0.753,0.238,1.063C100.499,271.244,100.267,273.179,100.034,275.11z"/>
		<path fill="#848484" stroke="#2A271D" stroke-width="0.75" d="M15.144,215.551c-1.969,15.293-3.861,30.597-5.736,45.902
			l2.058-1.621c1.811-14.785,3.619-29.57,5.429-44.354c0.677-5.525,1.138-25.296-3.31-31.922c0.31,1.806,0.662,3.613,1.055,5.42
			C16.567,197.837,16.294,206.62,15.144,215.551z"/>
		<path fill="#545454" stroke="#2A271D" stroke-width="0.75" d="M19.496,147.551c-2.715,14.228-2.386,28.39,0.299,42.538
			c1.629,8.571,1.298,17.088,0.188,25.755c-1.766,13.777-3.472,27.562-5.164,41.349l9.422-7.416l-3.106,18.442l9.663-17.474
			c-2.128-29.181-4.255-58.361-6.383-87.543l-0.219,0.459l0.11-1.955c-0.351-4.81-0.701-9.62-1.052-14.429
			c0.356-0.029,0.712-0.058,1.069-0.083c0.151,2.059,0.301,4.118,0.451,6.177l0.629-11.196l-2.006,0.64
			c-0.408,0.235-0.815,0.471-1.223,0.706C20.537,144.464,19.864,145.628,19.496,147.551z"/>
		<path fill="#545454" stroke="#2A271D" stroke-width="0.75" d="M61.269,258.632l2.49,5.622c3.699-30.26,7.389-60.416,11.104-90.803
			c7.504,0.918,14.945,1.828,22.707,2.777c0.176-1.435,0.303-2.469,0.428-3.5c0.295-2.41,0.605-4.818,0.922-7.226l-4.949-8.309
			l-12.578,7.693l-4.066-15.498l-13.066,11.671l-10.286-8.757l-1.835,24.295l-5.575-6.905c2.454,33.692,4.908,67.384,7.362,101.076
			L61.269,258.632z"/>
		<path fill="#545454" stroke="#2A271D" stroke-width="0.75" d="M32.341,247.955l1.896,10.616l0.026-0.213l7.659-7.293l-0.658-9.565
			l0.733-0.056l0.617,8.962l6.349-6.045l2.435,30.588l1.565-2.587c-2.528-34.712-5.057-69.424-7.585-104.137l-10.166-12.59
			l0.346,5.007l-0.732,0.055l-0.418-6.059l-3.719-4.605l-5.339,11.21c2.134,29.259,4.27,58.517,6.404,87.776L32.341,247.955z
			 M39.721,218.109l0.906,13.08l-0.731,0.055l-0.906-13.08L39.721,218.109z M38.122,192.362l0.892,13.081l-0.731,0.055
			l-0.893-13.081L38.122,192.362z M36.583,182.03l-0.89-13.082l0.732-0.054l0.89,13.081L36.583,182.03z"/>
		<path fill="#848484" stroke="#2A271D" stroke-width="0.75" d="M77.503,176.969c-3.74,30.592-7.463,61.037-11.205,91.644
			c3.689,0.452,7.34,0.898,10.988,1.344l10.57-11.104l1.521,2.031c3.313-27.089,6.615-54.104,9.936-81.249
			C91.993,178.741,84.831,177.865,77.503,176.969z"/>
		<path fill="#848484" stroke="#2A271D" stroke-width="0.75" d="M106.716,217.854c-0.566-0.18-1.188-0.379-1.885-0.602
			C105.528,217.475,106.149,217.674,106.716,217.854L106.716,217.854z"/>
		<path fill="#848484" stroke="#2A271D" stroke-width="0.75" d="M100.282,268.038c0.072,0.038,0.141,0.112,0.199,0.206
			c-0.059-0.095-0.127-0.168-0.199-0.208c-1.471-0.786-2.002-1.761-2.107-2.834C98.28,266.276,98.812,267.251,100.282,268.038z"/>
		<path fill="#848484" stroke="#2A271D" stroke-width="0.75" d="M101.411,190.075c0.002-0.011,0.002-0.029,0.004-0.041
			c-2.197,17.971-4.393,35.921-6.594,53.925C97.022,225.97,99.216,208.032,101.411,190.075z"/>
		<path fill="#848484" stroke="#2A271D" stroke-width="0.75" d="M100.034,275.11c0.232-1.932,0.465-3.866,0.686-5.804
			c0.035-0.31-0.063-0.779-0.238-1.063c-0.059-0.094-0.127-0.168-0.199-0.206c-1.471-0.787-2.002-1.762-2.107-2.836
			c-0.014-0.154-0.021-0.31-0.02-0.467c0-0.313,0.031-0.637,0.078-0.963c0.141-0.981,0.43-2.01,0.545-3.03
			c0.887-0.078,1.703-0.15,2.723-0.242c1.725-14.108,3.455-28.257,5.215-42.646c-0.566-0.18-1.188-0.379-1.885-0.602
			c-0.232-0.074-0.475-0.152-0.725-0.232c0.494-2.754-0.607-6.071,3.338-7.163c0.355-0.098,0.67-0.916,0.738-1.433
			c0.607-4.618,1.152-9.24,1.736-14.014c-1.041-0.314-1.912-0.575-2.85-0.859c0-0.024,0-0.047,0-0.071
			c0.006-0.926,0.008-1.77,0.016-2.823c-1.836-0.225-3.662-0.448-5.66-0.692c-0.006,0.037-0.01,0.074-0.014,0.111
			c-0.896,8.023-5.25,44.185-8.979,74.89L100.034,275.11z"/>
		<path fill="#848484" stroke="#2A271D" stroke-width="0.75" d="M98.155,264.735c0-0.313,0.031-0.637,0.078-0.963
			C98.187,264.099,98.155,264.422,98.155,264.735z"/>
		<path fill="#848484" stroke="#2A271D" stroke-width="0.75" d="M92.618,261.983c-0.111,0.923-0.227,1.852-0.338,2.775l0.152,0.206
			c3.729-30.705,8.082-66.866,8.979-74.89c-2.195,17.957-4.389,35.895-6.59,53.884C94.089,249.961,93.354,255.968,92.618,261.983z"
			/>
		<path fill="#848484" stroke="#2A271D" stroke-width="0.75" d="M69.778,277.846l6.281-6.6c-3.23-0.396-6.461-0.791-9.73-1.19
			L69.778,277.846z"/>
		<path fill="#BCBCBC" stroke="#2A271D" stroke-width="0.2" d="M53.925,270.77c-2.454-33.691-4.909-67.384-7.362-101.076
			l-1.186-1.468c2.528,34.713,5.057,69.425,7.585,104.137L53.925,270.77z"/>
		<path fill="#BCBCBC" stroke="#2A271D" stroke-width="0.2" d="M31.752,249.02c-2.134-29.26-4.27-58.518-6.404-87.776l-0.934,1.96
			c2.127,29.182,4.255,58.362,6.383,87.543L31.752,249.02z"/>
		<polygon fill="#F4CE2F" stroke="#2A271D" stroke-width="0.2" points="39.014,205.442 38.122,192.362 37.39,192.416 
			38.283,205.497 		"/>
		<polygon fill="#F4CE2F" stroke="#2A271D" stroke-width="0.2" points="40.627,231.189 39.721,218.109 38.99,218.164 
			39.896,231.244 		"/>
		<polygon fill="#F4CE2F" stroke="#2A271D" stroke-width="0.2" points="41.997,241.444 41.264,241.5 41.922,251.065 42.613,250.406 
					"/>
	</g>
	<g>
		<g>
			<path fill="#848484" stroke="#2A271D" stroke-width="0.75" d="M78.105,288.036c3.342-0.585,6.677-1.169,10.042-1.76
				c-0.607-4.029-1.209-8.053-1.806-12.079l-1.889-1.828L78.105,288.036z"/>
			<g>
				<path fill="#D1D1D1" stroke="#2A271D" stroke-width="0.75" d="M76.556,431.868c0.126,0.39,0.254,0.779,0.382,1.168
					C76.81,432.647,76.683,432.259,76.556,431.868L76.556,431.868z"/>
				<path fill="#D1D1D1" stroke="#2A271D" stroke-width="0.75" d="M99.641,424.115L99.641,424.115
					c-7.508,2.973-15.077,5.946-22.703,8.921C84.563,430.062,92.133,427.088,99.641,424.115z"/>
				<path fill="#848484" stroke="#2A271D" stroke-width="0.75" d="M76.556,431.868c0.127,0.391,0.254,0.779,0.382,1.168
					c7.626-2.975,15.195-5.948,22.702-8.922c-0.152-0.382-0.307-0.762-0.462-1.138C91.696,425.938,84.155,428.905,76.556,431.868z"
					/>
				<path fill="#848484" stroke="#2A271D" stroke-width="0.75" d="M99.178,422.976c-7.481,2.962-15.022,5.929-22.623,8.892
					l0.001,0.001C84.155,428.905,91.696,425.938,99.178,422.976c0.155,0.377,0.31,0.757,0.462,1.139l0,0
					C99.487,423.733,99.333,423.352,99.178,422.976z"/>
				<path fill="#D1D1D1" stroke="#2A271D" stroke-width="0.75" d="M83.738,342.158c4.055-0.771,8.124-1.425,12.303-2.091
					C91.862,340.733,87.793,341.386,83.738,342.158c-0.568,0.108-1.407,1.552-1.309,2.258c1.11,7.897,2.32,15.782,3.577,23.794
					c-1.257-8.012-2.467-15.896-3.577-23.793C82.332,343.711,83.169,342.268,83.738,342.158z"/>
				<path fill="#D1D1D1" stroke="#2A271D" stroke-width="0.75" d="M28.962,323.577c-1.926,0.3-3.651,1.854-4.624,3.86
					C25.311,325.431,27.036,323.878,28.962,323.577z"/>
				<path fill="#D1D1D1" stroke="#2A271D" stroke-width="0.75" d="M89.975,277.685l-3.633-3.487
					c0.597,4.026,1.198,8.05,1.806,12.079c-3.365,0.591-6.7,1.175-10.042,1.76l-0.758,1.817c3.658-0.638,7.31-1.276,11.019-1.926
					c1.231,8.028,2.429,15.698,3.652,23.406c-7.09,1.197-14.018,2.363-21.022,3.537c-1.011-7.927-1.968-15.596-2.922-23.405
					c0.056-0.01,0.11-0.02,0.165-0.028l-3.758-5.757c1.299,11.179,2.642,22.369,4.03,33.586c7.422-1.236,14.682-2.449,22.162-3.703
					c1.049,6.568,2.101,12.706,3.017,18.863c0.325,2.154,1.024,3.017,2.901,2.555c1.735-0.426,3.528-0.604,5.282-0.891
					c2.421,13.505,4.819,26.545,7.346,39.96c-2.805,0.433-5.354,0.826-8.198,1.264c3.006,16.487,6.033,32.6,9.166,48.803
					c-19.548,7.458-39.189,14.808-59.813,22.379c-0.202-1.639-0.337-2.742-0.472-3.843c-2.385-20.192-4.654-40.383-6.699-60.588
					c-0.219-2.22-0.883-3.601-2.802-4.592c-5.205-2.701-10.187-5.809-15.324-8.482c-1.973-1.029-2.626-2.392-2.786-4.777
					c-1.543-24.6-2.95-49.188-4.109-73.782l-2.706,3.975c1.058,23.988,2.306,47.979,3.72,71.974c0.162,2.508,0.842,3.997,2.934,5.07
					c4.89,2.495,9.575,5.525,14.563,7.952c2.516,1.217,3.28,2.982,3.539,5.835c1.384,14.83,2.985,29.639,4.631,44.451
					c1.649,12.744,2.948,23.248,3.026,23.897c23.483-8.085,45.155-15.791,67.377-23.755c-0.744-3.67-1.434-7.346-2.101-11.026
					c-0.039,0.007-0.075,0.018-0.116,0.023c-1.501-7.584-2.984-15.178-4.463-22.838c-1.136-5.957-2.266-11.953-3.401-18.04h0.001
					c2.793-0.429,5.335-0.819,8.083-1.243c-1.522-7.798-2.94-15.167-4.356-22.621c0.001,0,0.001,0,0.002,0
					c0.709-0.112,1.35-0.215,1.957-0.312c-1.728-9.1-3.438-18.254-4.744-25.357c-1.955,0.322-7.319,0.656-7.319,0.656
					c-0.286-1.849-2.188-13.136-4.74-28.598c-0.061,0.011-0.116,0.021-0.178,0.03C92.56,294.213,91.256,285.944,89.975,277.685z"/>
				<path fill="#D1D1D1" stroke="#2A271D" stroke-width="0.75" d="M35.092,329.655C35.092,329.655,35.092,329.655,35.092,329.655
					c0.229,3.56-2.21,7.131-5.177,7.57c-3.234,0.481-6.168-2.203-6.394-5.856c0,0.001,0,0.001,0,0.001
					c0.226,3.654,3.16,6.338,6.394,5.856C32.882,336.787,35.321,333.216,35.092,329.655z"/>
				<path fill="#D1D1D1" stroke="#2A271D" stroke-width="0.75" d="M36.661,363.613c3.73-1.024,6.38-5.25,5.913-9.653
					C43.04,358.363,40.39,362.589,36.661,363.613z"/>
				<path fill="#848484" stroke="#2A271D" stroke-width="0.75" d="M20.535,375.93c-2.22-1.034-2.943-2.429-3.092-4.889
					c-1.376-24.07-2.627-48.129-3.642-72.192l-4.977,7.149c0.797,21.929,1.748,43.859,2.828,65.795
					c0.171,3.182,1.116,4.939,3.673,6.264c5.886,3.034,11.582,6.591,17.557,9.661c2.176,1.113,2.478,2.994,2.071,4.919
					c-0.166,0.775-2.042,1.345-3.212,1.72c-1.192,0.383-2.469,0.411-3.937,0.629c0.86,10.161,1.734,20.082,2.651,30.102
					c2.003,0.305,4.01,0.607,6.143,0.932c0.303,2.972,0.736,5.757,0.836,8.565c0.088,2.491,1.06,3.893,3.458,4.451
					c1.565,0.362,3.043,1.083,5.026,1.815c-0.226-1.949-0.391-3.38-0.555-4.812c-0.167-1.45-0.333-2.9-0.499-4.351
					c-2.515-20.428-5.758-46.615-7.087-47.229C31.919,381.746,26.32,378.612,20.535,375.93z"/>
				<path fill="#848484" stroke="#2A271D" stroke-width="0.75" d="M99.876,287.004c0.57,3.319,1.138,6.632,1.706,9.919
					c-1.091,0.505-1.879,0.871-2.606,1.207c0.064,1.321,0.115,2.406,0.164,3.475c-1.349,0.232-2.584,0.444-3.898,0.67
					c1.314-0.226,2.551-0.438,3.9-0.669c-0.051-1.068-0.102-2.153-0.165-3.475c0.728-0.336,1.517-0.701,2.607-1.207
					c-0.567-3.287-1.136-6.599-1.706-9.919L99.876,287.004z"/>
				<path fill="#848484" stroke="#2A271D" stroke-width="0.75" d="M108.917,356.086c-0.001,0-0.001,0-0.002,0
					c1.416,7.454,2.834,14.823,4.356,22.621c0.001,0,0.001,0,0.001,0C111.751,370.909,110.333,363.54,108.917,356.086z"/>
				<path fill="#848484" stroke="#2A271D" stroke-width="0.75" d="M105.188,379.95c1.136,6.087,2.266,12.083,3.401,18.04
					C107.453,392.032,106.324,386.037,105.188,379.95L105.188,379.95z"/>
				<path fill="#848484" stroke="#2A271D" stroke-width="0.75" d="M40.234,387.237c-0.259-2.853-1.023-4.618-3.539-5.835
					c-4.988-2.427-9.673-5.457-14.563-7.952c-2.091-1.073-2.772-2.563-2.934-5.07c-1.414-23.995-2.663-47.985-3.72-71.974
					l-1.677,2.442c1.015,24.063,2.266,48.122,3.642,72.192c0.149,2.46,0.872,3.854,3.092,4.889
					c5.785,2.683,11.384,5.816,17.242,8.53c1.33,0.613,4.572,26.801,7.087,47.229C43.219,416.876,41.618,402.067,40.234,387.237z"/>
				<path fill="#545454" stroke="#2A271D" stroke-width="0.75" d="M57.085,295.964c11.893,40.975,25.233,81.95,40.023,122.924
					c-0.376,0.14-0.753,0.278-1.131,0.416c-14.544-40.418-27.68-80.839-39.407-121.258l-0.844,3.38l-8.9-33.683l-4.437,8.707
					l1.087,4.55l-0.652,0.282l-0.926-3.883l-5.524,10.505l0.018,0.247l-3.727-11.376l-0.338,1.375
					c12.23,49.558,26.58,99.114,43.049,148.671c-0.384,0.156-0.764,0.309-1.146,0.463c-16.221-48.968-30.372-97.936-42.454-146.903
					l-5.756,22.561l-0.39-21.684l-7.447,11.174c1.159,24.595,2.566,49.183,4.109,73.782c0.16,2.386,0.813,3.748,2.786,4.777
					c5.137,2.674,10.119,5.781,15.324,8.482c1.919,0.991,2.583,2.372,2.802,4.592c2.044,20.205,4.314,40.396,6.699,60.588
					c0.135,1.101,0.27,2.204,0.472,3.843c20.623-7.571,40.265-14.921,59.813-22.379c-3.133-16.203-6.16-32.315-9.166-48.803
					c2.844-0.438,5.394-0.831,8.198-1.264c-2.526-13.415-4.925-26.455-7.346-39.96c-1.754,0.287-3.547,0.465-5.282,0.891
					c-1.877,0.462-2.576-0.4-2.901-2.555c-0.916-6.157-1.968-12.295-3.017-18.863c-7.48,1.254-14.74,2.467-22.162,3.703
					c-1.389-11.217-2.731-22.407-4.03-33.586l-3.578-5.578L57.085,295.964z M50.169,309.4l-3.722-14.45l0.663-0.28l3.735,14.449
					L50.169,309.4z M57.629,337.102l-4.056-14.45l0.688-0.28l4.07,14.45L57.629,337.102z M65.634,364.118l-4.397-14.448l0.714-0.281
					l4.41,14.448L65.634,364.118z M23.521,331.37C23.521,331.37,23.521,331.37,23.521,331.37c-0.082-1.36,0.231-2.729,0.817-3.933
					c0.972-2.007,2.698-3.561,4.624-3.86c0.195-0.03,0.388-0.048,0.58-0.054c2.872-0.084,5.324,2.559,5.55,6.131
					c0,0.001,0,0.001,0,0.001c0.229,3.561-2.21,7.132-5.177,7.571C26.681,337.708,23.747,335.024,23.521,331.37z M36.661,363.613
					c-0.249,0.067-0.503,0.122-0.761,0.16c-3.789,0.572-7.525-2.585-8.152-6.695c-0.042-0.274-0.069-0.553-0.083-0.835
					c-0.026-0.565,0-1.127,0.073-1.677c0.512-3.853,3.327-7.169,6.797-7.708c4.081-0.634,7.552,2.439,8.038,7.102
					C43.041,358.363,40.391,362.589,36.661,363.613z M78.524,400.212l5.024,14.45l-0.771,0.281l-5.012-14.451L78.524,400.212z
					 M70.229,374.659l4.72,14.449l-0.748,0.281l-4.706-14.45L70.229,374.659z M99.641,424.115
					c-7.508,2.973-15.077,5.946-22.703,8.921c-0.128-0.389-0.256-0.778-0.382-1.168l-0.001-0.001
					c7.601-2.963,15.142-5.93,22.623-8.892C99.333,423.352,99.487,423.733,99.641,424.115L99.641,424.115z M82.43,344.416
					c-0.099-0.706,0.74-2.149,1.309-2.259c4.055-0.771,8.124-1.424,12.303-2.09c1.391-0.223,2.794-0.446,4.213-0.677
					c2.06,11.643,4.072,22.781,6.132,33.935v0.001c-6.428,0.994-12.649,1.954-19.093,2.946c-0.433-2.705-0.862-5.391-1.286-8.063
					C84.75,360.198,83.54,352.313,82.43,344.416z"/>
				<path fill="#848484" stroke="#2A271D" stroke-width="0.75" d="M98.976,298.13c0.728-0.336,1.516-0.702,2.606-1.207
					c-0.568-3.287-1.136-6.6-1.706-9.919l-9.707-9.133c1.371,8.778,2.704,17.175,3.901,24.604c0.399-0.068,0.791-0.136,1.171-0.201
					c1.314-0.226,2.55-0.438,3.898-0.67C99.091,300.536,99.04,299.451,98.976,298.13z"/>
				<path fill="#848484" stroke="#2A271D" stroke-width="0.75" d="M89.975,277.685c1.281,8.26,2.585,16.528,3.918,24.821
					c0.062-0.01,0.117-0.02,0.178-0.03c-1.197-7.43-2.53-15.826-3.901-24.604L89.975,277.685z"/>
				<path fill="#848484" stroke="#2A271D" stroke-width="0.75" d="M68.239,291.438c-0.055,0.009-0.109,0.019-0.165,0.028
					c0.954,7.81,1.911,15.479,2.922,23.405c7.005-1.174,13.933-2.34,21.022-3.537c-1.224-7.708-2.421-15.378-3.652-23.406
					c-3.709,0.649-7.36,1.288-11.019,1.926l-3.957,9.312L68.239,291.438z"/>
				<path fill="#848484" stroke="#2A271D" stroke-width="0.75" d="M115.967,395.684c0.269,1.335,0.517,2.539,0.757,3.746
					c0.821,4.149,1.796,8.287,2.438,12.455c0.744,4.808-1.696,8.231-5.993,8.917c0,0.001,0,0.002,0,0.003
					c4.297-0.689,6.738-4.111,5.994-8.92c-0.641-4.168-1.615-8.306-2.438-12.455C116.484,398.223,116.236,397.018,115.967,395.684
					c1.553-0.411,2.729-0.722,4.184-1.107c-2.645-12.927-5.231-25.846-7.813-39.034c-0.001,0-0.001,0-0.001,0
					c2.581,13.189,5.168,26.108,7.813,39.035C118.695,394.962,117.519,395.272,115.967,395.684z"/>
				<path fill="#848484" stroke="#2A271D" stroke-width="0.75" d="M113.054,420.824c-1.503-7.581-2.986-15.174-4.465-22.834
					c1.479,7.66,2.962,15.254,4.463,22.838c0.041-0.006,0.077-0.017,0.116-0.023c0-0.001,0-0.002,0-0.003
					C113.129,420.808,113.093,420.818,113.054,420.824z"/>
				<path fill="#848484" stroke="#2A271D" stroke-width="0.75" d="M106.334,381.368c2.509,13.252,4.503,26.375,6.834,39.434
					c4.297-0.686,6.737-4.109,5.993-8.917c-0.642-4.168-1.616-8.306-2.438-12.455c-0.24-1.207-0.488-2.411-0.757-3.746
					c1.552-0.411,2.729-0.722,4.183-1.106c-2.646-12.927-5.232-25.846-7.813-39.035c-0.473,0.075-0.957,0.152-1.462,0.232
					c1.685,8.729,3.385,17.405,4.729,24.171C112.431,380.434,109.549,380.876,106.334,381.368z"/>
				<path fill="#848484" stroke="#2A271D" stroke-width="0.75" d="M113.272,378.707
					C113.272,378.707,113.272,378.707,113.272,378.707c-2.749,0.424-5.291,0.814-8.084,1.243c1.136,6.087,2.265,12.082,3.4,18.04
					c1.479,7.66,2.962,15.253,4.465,22.834c0.039-0.006,0.075-0.017,0.114-0.022c-2.331-13.059-4.325-26.182-6.834-39.434
					c3.215-0.492,6.097-0.935,9.27-1.423c-1.345-6.766-3.045-15.442-4.729-24.171c-0.607,0.097-1.248,0.199-1.957,0.312
					C110.333,363.54,111.751,370.909,113.272,378.707z"/>
				<path fill="#BCBCBC" stroke="#2A271D" stroke-width="0.2" d="M97.108,418.888c-14.79-40.974-28.131-81.949-40.023-122.924
					l-0.514,2.082c11.727,40.419,24.863,80.84,39.407,121.258C96.355,419.166,96.732,419.027,97.108,418.888z"/>
				<path fill="#BCBCBC" stroke="#2A271D" stroke-width="0.2" d="M75.377,426.821c-16.47-49.557-30.819-99.113-43.049-148.671
					l-0.551,2.23c12.083,48.968,26.233,97.936,42.454,146.903C74.613,427.13,74.993,426.978,75.377,426.821z"/>
				<path fill="#848484" stroke="#2A271D" stroke-width="0.75" d="M106.386,373.325c-2.06-11.153-4.072-22.292-6.132-33.935
					c-1.419,0.23-2.822,0.454-4.213,0.677c-4.179,0.666-8.248,1.319-12.303,2.091c-0.569,0.109-1.406,1.553-1.309,2.259
					c1.11,7.896,2.32,15.781,3.577,23.793c0.424,2.671,0.854,5.356,1.286,8.062C93.736,375.279,99.958,374.319,106.386,373.325z"/>
				<path fill="#848484" stroke="#2A271D" stroke-width="0.75" d="M106.386,373.326L106.386,373.326
					c-6.428,0.993-12.649,1.953-19.093,2.945c-0.433-2.705-0.862-5.391-1.286-8.062c0.424,2.672,0.854,5.357,1.286,8.063
					C93.736,375.28,99.958,374.32,106.386,373.326z"/>
				<path fill="#848484" stroke="#2A271D" stroke-width="0.75" d="M34.536,346.858c-3.47,0.539-6.285,3.855-6.797,7.708
					c-0.074,0.55-0.1,1.111-0.073,1.677c0.013,0.282,0.041,0.561,0.083,0.835c0.627,4.109,4.363,7.267,8.152,6.695
					c0.258-0.038,0.512-0.093,0.761-0.16c3.729-1.024,6.379-5.25,5.913-9.653C42.088,349.298,38.616,346.227,34.536,346.858z"/>
				<path fill="#848484" stroke="#2A271D" stroke-width="0.75" d="M27.748,357.078c0.627,4.11,4.363,7.268,8.152,6.695
					C32.111,364.345,28.375,361.188,27.748,357.078z"/>
				<path fill="#848484" stroke="#2A271D" stroke-width="0.75" d="M34.536,346.858c-3.47,0.539-6.285,3.855-6.797,7.708
					C28.251,350.714,31.066,347.397,34.536,346.858z"/>
				<path fill="#848484" stroke="#2A271D" stroke-width="0.75" d="M34.536,346.858c4.081-0.632,7.552,2.439,8.038,7.102
					C42.088,349.298,38.617,346.225,34.536,346.858z"/>
				<path fill="#848484" stroke="#2A271D" stroke-width="0.75" d="M29.915,337.226c2.967-0.439,5.406-4.011,5.177-7.571
					c-0.227-3.572-2.679-6.215-5.55-6.131c-0.192,0.006-0.385,0.023-0.58,0.054c-1.926,0.301-3.651,1.854-4.624,3.86
					c-0.586,1.204-0.899,2.573-0.817,3.932C23.747,335.022,26.681,337.707,29.915,337.226z"/>
				<path fill="#848484" stroke="#2A271D" stroke-width="0.75" d="M35.092,329.654c-0.227-3.572-2.679-6.215-5.55-6.131
					C32.413,323.439,34.865,326.082,35.092,329.654z"/>
				<path fill="#848484" stroke="#2A271D" stroke-width="0.75" d="M23.521,331.369c-0.082-1.358,0.231-2.728,0.817-3.932
					C23.752,328.642,23.439,330.01,23.521,331.369z"/>
				<polygon fill="#F4CE2F" stroke="#2A271D" stroke-width="0.2" points="43.477,281 42.39,276.45 41.899,277.399 42.825,281.282 
									"/>
				<polygon fill="#F4CE2F" stroke="#2A271D" stroke-width="0.2" points="46.447,294.95 50.169,309.4 50.845,309.119 47.109,294.67 
									"/>
				<polygon fill="#F4CE2F" stroke="#2A271D" stroke-width="0.2" points="53.573,322.651 57.629,337.102 58.331,336.821 
					54.261,322.371 				"/>
				<polygon fill="#F4CE2F" stroke="#2A271D" stroke-width="0.2" points="61.236,349.67 65.634,364.118 66.36,363.837 
					61.95,349.389 				"/>
				<polygon fill="#F4CE2F" stroke="#2A271D" stroke-width="0.2" points="74.949,389.108 70.229,374.659 69.495,374.939 
					74.201,389.39 				"/>
				<polygon fill="#F4CE2F" stroke="#2A271D" stroke-width="0.2" points="83.549,414.662 78.524,400.212 77.766,400.492 
					82.777,414.943 				"/>
			</g>
		</g>
	</g>
</g>
</svg>
