<?xml version="1.0" encoding="utf-8"?>
<!-- Generator: Adobe Illustrator 16.0.0, SVG Export Plug-In . SVG Version: 6.00 Build 0)  -->
<!DOCTYPE svg PUBLIC "-//W3C//DTD SVG 1.1//EN" "http://www.w3.org/Graphics/SVG/1.1/DTD/svg11.dtd">
<svg version="1.1" id="Layer_1" xmlns="http://www.w3.org/2000/svg" xmlns:xlink="http://www.w3.org/1999/xlink" x="0px" y="0px"
	 width="125px" height="460px" viewBox="0 0 125 460" enable-background="new 0 0 125 460" xml:space="preserve">
<g>
	<path fill-rule="evenodd" clip-rule="evenodd" fill="#D1D1D1" stroke="#2A271D" stroke-width="0.75" d="M120.682,342.153
		c-2.361,0-8.717-0.538-8.717-0.538c0.123-6.389,0-124.98-0.174-141.505c0-1.732-1.495-19.816-1.495-21.065
		c0-14.936,0.532-29.891-0.155-44.802c-0.635-13.845-2.495-27.646-3.951-41.455c-2.407-22.864-4.918-45.719-7.388-68.578
		c-0.765-7.056-1.539-14.117-2.323-21.317c-14.901,0-29.521,0-44.464,0c-0.676,5.962-1.369,11.857-2.005,17.755
		c-3.294,30.638-6.579,61.274-9.855,91.914c-0.621,5.805-1.035,11.629-1.887,17.401c-0.237,1.606-1.297,3.538-2.667,4.509
		c-9.972,7.07-20.087,13.972-30.234,20.834c-2.013,1.361-2.715,2.846-2.891,5.189c-1.288,17.334,1.436,34.147,7.271,50.604
		c3.535,9.968,4.476,20.155,4.408,30.638c-0.272,42.238-0.081,84.481-0.161,126.723c-0.007,2.482,0.69,3.986,3.057,5.356
		c6.133,3.553,11.974,7.522,18.086,11.104c2.243,1.313,2.535,70.441,2.535,72.146c24.471-4.789,47.524-9.391,71.623-14.109
		c0-16.855,0.964-33.658,0.964-50.807c3.611,0,6.852,0,10.424,0C120.682,378.199,120.682,356.201,120.682,342.153z"/>
</g>
<g>
	<g>
		<path fill-rule="evenodd" clip-rule="evenodd" fill="#848484" stroke="#2A271D" stroke-width="0.75" d="M81.837,295.824
			c0-35.896,0-71.602,0-107.48c8.733,0,17.269,0,25.991,0c0,35.906,0,71.615,0,107.48C99.099,295.824,90.563,295.824,81.837,295.824
			z M7.604,204.834c6.271,6.855,8.597,30.045,8.596,36.57c-0.005,41.555,0.01,83.107-0.071,124.664
			c-0.002,2.532,0.642,4.123,2.869,5.514c5.182,3.232,10.053,6.963,15.27,10.131c2.619,1.59,3.265,3.461,3.244,6.338
			c-0.124,16.418-0.061,32.836-0.061,49.254c0,1.445,0,2.889,0,4.857c-1.917-1.004-3.328-1.926-4.87-2.504
			c-2.365-0.889-3.2-2.42-3.025-4.91c0.195-2.809,0.045-5.641,0.045-8.641c-2.161-0.625-4.196-1.211-6.228-1.797
			c0-10.115,0-20.129,0-30.387c1.593,0,2.964,0.16,4.277-0.045c1.29-0.201,3.36-0.49,3.614-1.238
			c0.628-1.857,0.489-3.775-1.755-5.207c-6.199-3.955-12.111-8.359-18.33-12.279c-2.718-1.711-3.647-3.613-3.64-6.824
			c0.109-45.177,0.068-90.355,0.064-135.531C7.604,232.049,7.604,205.682,7.604,204.834z M111.791,312.754
			c0-37.838,0-75.27,0-112.774c2.381,0,4.558,0,6.747,0c0.147,1.25,0.266,2.242,0.396,3.347c1.141,0.195,2.203,0.373,3.472,0.59
			c0,5.6,0.021,11.018-0.028,16.439c-0.006,0.607-0.258,1.597-0.661,1.76c-4.476,1.82-2.706,5.497-2.892,8.748
			c1.223,0.23,2.262,0.425,3.184,0.596c0,16.875,0,33.469,0,50.016c-1.184,0.249-2.133,0.449-3.163,0.664
			c0.032,3.188-1.394,6.613,2.813,8.217c0.368,0.139,0.694,0.922,0.698,1.406c0.049,5.627,0.031,11.254,0.031,16.816
			c-1.453,0.311-2.502,0.534-3.468,0.74c-0.197,1.307-0.361,2.38-0.522,3.436C116.13,312.754,114.121,312.754,111.791,312.754z
			 M107.787,297.486c0,8.104,0,15.847,0,23.627c-8.771,0-17.311,0-25.916,0c0-8.002,0-15.743,0-23.627
			C90.57,297.486,99.038,297.486,107.787,297.486z M109.296,431.846c0-13.605,0-27.215,0-41.26c3.141,0,6.006,0,9.105,0
			c0-7.872,0-15.311,0-22.835c1.512,0,2.77,0,3.984,0c0,13.313,0,26.354,0,39.403c-1.643,0.162-2.971,0.293-4.721,0.467
			c0,1.348,0.005,2.564,0,3.781c-0.023,4.186,0.112,8.381-0.117,12.557C117.281,428.82,113.956,431.84,109.296,431.846z
			 M41.984,86.532c0,1.78,0.095,2.89-0.015,3.981c-1.258,12.599-3.037,25.174-3.631,37.804c-0.323,6.896-5.087,8.667-9.65,12.188
			c0-13.645-0.019-26.533,0.043-39.421c0.005-0.791,0.452-1.762,1.014-2.337C33.611,94.795,37.562,90.925,41.984,86.532z
			 M1.402,183.777c0-2.558,0-4.766,0-7.053c1.594,0,2.97,0,4.376,0c0,2.49,0,4.695,0,7.053
			C4.265,183.777,2.957,183.777,1.402,183.777z M1.462,171.471c0-2.675,0-4.965,0-7.213c1.585,0,2.889,0,4.313,0
			c0,2.498,0,4.781,0,7.213C4.249,171.471,2.948,171.471,1.462,171.471z"/>
		<path fill-rule="evenodd" clip-rule="evenodd" fill="#545454" stroke="#2A271D" stroke-width="0.75" d="M41.007,450.369
			c21.741-4.646,42.842-9.158,64.253-13.736c0-16.357,0-32.621,0-49.264c3.208,0,6.087,0,9.26,0c0-13.541,0-26.705,0-40.337
			c-2.099,0-4.219-0.112-6.32,0.029c-2.271,0.153-2.917-0.807-2.879-2.976c0.109-6.201,0.038-12.406,0.038-19.037
			c-9.191,0-18.077,0-27.129,0c0-46.928,0-93.427,0-140.396c8.944,0,17.811,0,27.063,0c0-1.682,0-2.895,0-4.104
			c0-14.495,0.472-29.011-0.138-43.481c-0.563-13.436-2.218-26.83-3.511-40.231c-2.138-22.191-4.369-44.372-6.564-66.556
			c-0.679-6.849-1.367-13.7-2.063-20.688c-13.238,0-23.276,0-36.555,0c-0.6,5.787-10.576,76.698-13.486,106.437
			c-0.553,5.631-0.921,11.284-1.675,16.887c-0.211,1.559-1.154,3.434-2.371,4.377c-8.859,6.861-17.848,13.558-26.861,20.219
			c-1.788,1.32-2.412,2.76-2.568,5.035c-1.145,16.824,1.275,33.142,6.459,49.111c3.143,9.675,3.977,19.563,3.918,29.735
			c-0.241,40.993-0.072,81.99-0.145,122.985c-0.006,2.408,0.614,3.868,2.717,5.197c5.447,3.449,10.638,7.302,16.068,10.777
			c1.992,1.275,2.566,2.748,2.56,4.988c-0.078,20.385-0.062,40.768-0.071,61.15C41.007,447.602,41.007,448.715,41.007,450.369z
			 M93.146,427.666c-0.415,0.084-0.832,0.166-1.249,0.248c-18.075-90.355-36.151-180.713-54.226-271.07
			c0.414-0.084,0.831-0.166,1.247-0.248C56.993,246.951,75.07,337.311,93.146,427.666z M69.355,432.396
			c-0.417,0.1-0.832,0.197-1.249,0.295c-18.077-90.33-36.156-180.66-54.231-270.99c0.414-0.084,0.828-0.168,1.244-0.248
			C33.197,251.767,51.275,342.082,69.355,432.396z M111.965,350.011c0,11.753,0,22.997,0,34.255c-7.287,0-14.321,0-21.585,0
			c0-10.921-0.038-21.533,0.086-32.145c0.009-0.711,1.223-2.001,1.898-2.018C98.784,349.949,105.211,350.011,111.965,350.011z
			 M35.198,346.971c4.736,0.014,8.392,3.619,8.448,8.333c0.058,4.749-3.842,8.749-8.514,8.733c-4.575-0.016-8.712-4.252-8.576-8.783
			C26.693,350.705,30.603,346.96,35.198,346.971z M30.726,322.854c3.734,0.023,6.771,3.221,6.708,7.059
			c-0.06,3.586-3.226,6.755-6.711,6.719c-3.793-0.037-7.001-3.189-6.999-6.877C23.727,326.096,27.039,322.83,30.726,322.854z
			 M62.321,144.375c0.02,3.617-3.328,6.949-6.974,6.939c-3.629-0.008-6.902-3.387-6.831-7.047c0.07-3.591,3.124-6.605,6.78-6.693
			C59.01,137.486,62.301,140.67,62.321,144.375z M91.15,139.219c-3.786-0.072-6.954-3.371-6.769-7.047
			c0.181-3.537,3.425-6.654,6.938-6.662c3.653-0.008,6.91,3.287,6.911,6.99C98.231,136.178,94.953,139.291,91.15,139.219z
			 M67.435,115.715c0.055,3.725-3.155,6.98-6.859,6.954c-3.419-0.024-6.723-3.248-6.88-6.714c-0.168-3.669,2.98-6.914,6.797-7.002
			C64.354,108.863,67.378,111.811,67.435,115.715z M69.98,438.756c-0.07-0.402-0.138-0.805-0.206-1.207
			c8.252-1.855,16.503-3.713,24.754-5.566c0.088,0.393,0.176,0.789,0.262,1.186C86.521,435.031,78.25,436.893,69.98,438.756z"/>
		<path fill-rule="evenodd" clip-rule="evenodd" fill="#848484" stroke="#2A271D" stroke-width="0.75" d="M81.837,295.824
			c8.727,0,17.262,0,25.991,0c0-35.865,0-71.574,0-107.48c-8.723,0-17.258,0-25.991,0C81.837,224.223,81.837,259.928,81.837,295.824
			z"/>
		<path fill-rule="evenodd" clip-rule="evenodd" fill="#848484" stroke="#2A271D" stroke-width="0.75" d="M111.791,312.754
			c2.33,0,4.339,0,6.606,0c0.161-1.056,0.325-2.129,0.522-3.436c0.966-0.206,2.015-0.43,3.468-0.74
			c0-5.563,0.018-11.189-0.031-16.816c-0.004-0.484-0.33-1.268-0.698-1.406c-4.206-1.604-2.78-5.029-2.813-8.217
			c1.03-0.215,1.979-0.415,3.163-0.664c0-16.547,0-33.141,0-50.016c-0.922-0.171-1.961-0.365-3.184-0.596
			c0.186-3.251-1.584-6.928,2.892-8.748c0.403-0.163,0.655-1.152,0.661-1.76c0.049-5.422,0.028-10.84,0.028-16.439
			c-1.269-0.217-2.331-0.395-3.472-0.59c-0.131-1.104-0.249-2.097-0.396-3.347c-2.189,0-4.366,0-6.747,0
			C111.791,237.484,111.791,274.916,111.791,312.754z"/>
		<path fill-rule="evenodd" clip-rule="evenodd" fill="#848484" stroke="#2A271D" stroke-width="0.75" d="M110.296,179.045
			c2.191-0.837,5.935-4.284,5.91-6.159c-0.102-8.257-0.036-16.513-0.032-24.771c0-1.232,0-2.465,0-4.129
			c2.493-0.117,4.79-0.227,7.428-0.353c0-7.407,0.774-14.662,0.14-21.81c-0.736-8.305-3.06-15.111-7.692-20.809
			c-2.935-3.254-6.28-8.441-10.312-12.519C109.949,118.112,110.451,169.612,110.296,179.045z"/>
		<path fill-rule="evenodd" clip-rule="evenodd" fill="#848484" stroke="#2A271D" stroke-width="0.75" d="M107.787,297.486
			c-8.749,0-17.217,0-25.916,0c0,7.884,0,15.625,0,23.627c8.605,0,17.145,0,25.916,0
			C107.787,313.333,107.787,305.59,107.787,297.486z"/>
		<path fill-rule="evenodd" clip-rule="evenodd" fill="#848484" stroke="#2A271D" stroke-width="0.75" d="M109.294,431.85
			c4.662-0.01,7.987-3.029,8.254-7.891c0.229-4.176,0.094-8.371,0.117-12.557c0.005-1.217,0-2.434,0-3.781
			c1.75-0.174,3.078-0.305,4.721-0.467c0-13.049,0-26.09,0-39.403c-1.215,0-2.473,0-3.984,0c0,7.524,0,14.963,0,22.835
			c-3.1,0-5.965,0-9.105,0C109.296,404.631,109.296,418.24,109.294,431.85z"/>
		<path fill-rule="evenodd" clip-rule="evenodd" fill="#848484" stroke="#2A271D" stroke-width="0.75" d="M1.402,183.777
			c1.555,0,2.862,0,4.376,0c0-2.357,0-4.563,0-7.053c-1.406,0-2.782,0-4.376,0C1.402,179.012,1.402,181.22,1.402,183.777z"/>
		<path fill-rule="evenodd" clip-rule="evenodd" fill="#848484" stroke="#2A271D" stroke-width="0.75" d="M1.462,171.471
			c1.486,0,2.787,0,4.313,0c0-2.432,0-4.715,0-7.213c-1.424,0-2.728,0-4.313,0C1.462,166.506,1.462,168.796,1.462,171.471z"/>
		<path fill-rule="evenodd" clip-rule="evenodd" fill="#BCBCBC" stroke="#2A271D" stroke-width="0.2" d="M93.146,427.666
			c-18.075-90.355-36.152-180.715-54.228-271.07c-0.416,0.082-0.833,0.164-1.247,0.248c18.074,90.357,36.15,180.715,54.226,271.07
			C92.313,427.832,92.73,427.75,93.146,427.666z"/>
		<path fill-rule="evenodd" clip-rule="evenodd" fill="#BCBCBC" stroke="#2A271D" stroke-width="0.2" d="M69.355,432.396
			c-18.08-90.314-36.158-180.63-54.236-270.943c-0.416,0.08-0.83,0.164-1.244,0.248c18.075,90.33,36.154,180.66,54.231,270.99
			C68.523,432.594,68.938,432.496,69.355,432.396z"/>
		<path fill-rule="evenodd" clip-rule="evenodd" fill="#848484" stroke="#2A271D" stroke-width="0.75" d="M111.965,350.011
			c-6.754,0-13.181-0.062-19.601,0.093c-0.676,0.017-1.89,1.307-1.898,2.018c-0.124,10.611-0.086,21.224-0.086,32.145
			c7.264,0,14.298,0,21.585,0C111.965,373.008,111.965,361.764,111.965,350.011z"/>
		<path fill-rule="evenodd" clip-rule="evenodd" fill="#848484" stroke="#2A271D" stroke-width="0.75" d="M35.198,346.971
			c-4.596-0.011-8.505,3.734-8.642,8.283c-0.136,4.531,4.001,8.768,8.576,8.783c4.672,0.016,8.571-3.984,8.514-8.733
			C43.59,350.59,39.935,346.984,35.198,346.971z"/>
		<path fill-rule="evenodd" clip-rule="evenodd" fill="#848484" stroke="#2A271D" stroke-width="0.75" d="M30.726,322.854
			c-3.687-0.023-6.999,3.242-7.002,6.9c-0.002,3.688,3.206,6.84,6.999,6.877c3.485,0.036,6.651-3.133,6.711-6.719
			C37.497,326.074,34.46,322.877,30.726,322.854z"/>
		<path fill-rule="evenodd" clip-rule="evenodd" fill="#848484" stroke="#2A271D" stroke-width="0.75" d="M62.321,144.375
			c-0.021-3.705-3.312-6.889-7.024-6.801c-3.656,0.088-6.71,3.103-6.78,6.693c-0.071,3.66,3.202,7.039,6.831,7.047
			C58.993,151.324,62.341,147.992,62.321,144.375z"/>
		<path fill-rule="evenodd" clip-rule="evenodd" fill="#848484" stroke="#2A271D" stroke-width="0.75" d="M91.15,139.219
			c3.803,0.072,7.081-3.041,7.081-6.719c-0.001-3.703-3.258-6.998-6.911-6.99c-3.514,0.008-6.758,3.125-6.938,6.662
			C84.196,135.848,87.364,139.146,91.15,139.219z"/>
		<path fill-rule="evenodd" clip-rule="evenodd" fill="#848484" stroke="#2A271D" stroke-width="0.75" d="M67.435,115.715
			c-0.057-3.904-3.081-6.852-6.942-6.762c-3.816,0.088-6.965,3.333-6.797,7.002c0.157,3.466,3.461,6.689,6.88,6.714
			C64.279,122.695,67.489,119.439,67.435,115.715z"/>
		<path fill-rule="evenodd" clip-rule="evenodd" fill="#848484" stroke="#2A271D" stroke-width="0.75" d="M69.98,438.756
			c8.27-1.863,16.541-3.725,24.81-5.588c-0.086-0.396-0.174-0.793-0.262-1.186c-8.251,1.854-16.502,3.711-24.754,5.566
			C69.843,437.951,69.91,438.354,69.98,438.756z"/>
	</g>
</g>
<rect x="27.917" y="160.358" transform="matrix(0.9813 -0.1924 0.1924 0.9813 -31.7983 8.5956)" fill-rule="evenodd" clip-rule="evenodd" fill="#F4CE2F" stroke="#2A271D" stroke-width="0.2" width="0.868" height="15.273"/>
<rect x="33.038" y="184.765" transform="matrix(0.9815 -0.1914 0.1914 0.9815 -36.1977 9.9601)" fill-rule="evenodd" clip-rule="evenodd" fill="#F4CE2F" stroke="#2A271D" stroke-width="0.2" width="0.868" height="15.272"/>
<rect x="38.401" y="211.633" transform="matrix(0.9815 -0.1916 0.1916 0.9815 -41.2847 11.5001)" fill-rule="evenodd" clip-rule="evenodd" fill="#F4CE2F" stroke="#2A271D" stroke-width="0.2" width="0.867" height="15.272"/>
<rect x="44.003" y="241.151" transform="matrix(0.9813 -0.1926 0.1926 0.9813 -47.0961 13.2208)" fill-rule="evenodd" clip-rule="evenodd" fill="#F4CE2F" stroke="#2A271D" stroke-width="0.2" width="0.867" height="15.272"/>
<rect x="50.013" y="267.79" transform="matrix(0.9814 -0.1922 0.1922 0.9814 -52.0026 14.8336)" fill-rule="evenodd" clip-rule="evenodd" fill="#F4CE2F" stroke="#2A271D" stroke-width="0.2" width="0.869" height="15.273"/>
<rect x="56.029" y="297.016" transform="matrix(0.9815 -0.1916 0.1916 0.9815 -57.3145 16.4582)" fill-rule="evenodd" clip-rule="evenodd" fill="#F4CE2F" stroke="#2A271D" stroke-width="0.2" width="0.867" height="15.272"/>
<rect x="61.438" y="325.739" transform="matrix(0.9815 -0.1914 0.1914 0.9815 -62.6485 17.9995)" fill-rule="evenodd" clip-rule="evenodd" fill="#F4CE2F" stroke="#2A271D" stroke-width="0.2" width="0.868" height="15.272"/>
<rect x="66.856" y="353.725" transform="matrix(0.9814 -0.1922 0.1922 0.9814 -68.2073 19.6738)" fill-rule="evenodd" clip-rule="evenodd" fill="#F4CE2F" stroke="#2A271D" stroke-width="0.2" width="0.869" height="15.273"/>
<rect x="72.458" y="380.042" transform="matrix(0.9815 -0.1914 0.1914 0.9815 -72.8358 21.1116)" fill-rule="evenodd" clip-rule="evenodd" fill="#F4CE2F" stroke="#2A271D" stroke-width="0.2" width="0.868" height="15.271"/>
<rect x="77.474" y="406.493" transform="matrix(0.9816 -0.1911 0.1911 0.9816 -77.7204 22.5269)" fill-rule="evenodd" clip-rule="evenodd" fill="#F4CE2F" stroke="#2A271D" stroke-width="0.2" width="0.869" height="15.271"/>
</svg>
