<?xml version="1.0" encoding="utf-8"?>
<!-- Generator: Adobe Illustrator 16.0.0, SVG Export Plug-In . SVG Version: 6.00 Build 0)  -->
<!DOCTYPE svg PUBLIC "-//W3C//DTD SVG 1.1//EN" "http://www.w3.org/Graphics/SVG/1.1/DTD/svg11.dtd">
<svg version="1.1" id="Layer_1" xmlns="http://www.w3.org/2000/svg" xmlns:xlink="http://www.w3.org/1999/xlink" x="0px" y="0px"
	 width="100px" height="270px" viewBox="0 0 100 270" enable-background="new 0 0 100 270" xml:space="preserve">
<g id="Layer_2">
</g>
<g>
	<g>
		<path fill="#848484" stroke="#2A271D" stroke-width="0.75" d="M15.691,110.963l10.939-33.109l23.126-11.941l10.586,24.548
			l-8.374,32.269l-0.049,1.927l4.363-4.095C69.366,72.833,80.192,25.068,72.808,2.112c-23.361,14.396-46.528,64.125-62.4,113.796
			l4.748-6.814L15.691,110.963z"/>
		<polygon fill="#848484" stroke="#2A271D" stroke-width="0.75" points="40.749,108.841 38.206,116.486 40.945,117.576 		"/>
		<polygon fill="#848484" stroke="#2A271D" stroke-width="0.75" points="24.922,98.12 21.723,107.696 22.68,115.044 24.007,110.908 
			38.206,116.486 40.749,108.841 40.945,117.576 45.291,119.315 43.718,125.845 46.973,122.342 50.477,107.997 		"/>
		<polygon fill="#848484" stroke="#2A271D" stroke-width="0.75" points="49.757,65.913 26.631,77.854 15.691,110.963 
			16.523,113.885 22.951,94.537 25.78,95.604 53.781,106.398 50.915,118.151 52.119,116.883 51.97,122.729 60.344,90.461 		"/>
		<polygon fill="#848484" stroke="#2A271D" stroke-width="0.5" points="21.445,105.59 21.723,107.696 24.922,98.12 50.477,107.997 
			46.973,122.342 50.915,118.151 53.781,106.398 25.78,95.604 22.951,94.537 16.523,113.885 16.705,114.527 		"/>
		<polygon fill="#848484" stroke="#2A271D" stroke-width="0.5" points="16.812,114.904 16.705,114.527 16.667,114.602 		"/>
		<polygon fill="#848484" stroke="#2A271D" stroke-width="0.75" points="26.336,114.921 33.839,130.112 38.206,116.486 
			24.007,110.908 22.68,115.044 24.294,127.741 		"/>
		<polygon fill="#848484" stroke="#2A271D" stroke-width="0.75" points="40.945,117.576 41.185,128.6 43.718,125.845 
			45.291,119.315 		"/>
		<g>
			<path fill="#848484" stroke="#2A271D" stroke-width="0.75" d="M60.93,79.162c-2.7,11.955-13.282,19.704-20.733,16.843
				c-7.52-2.855-11.876-16.1-7.255-27.129c1.215-2.836,3.81-4.588,4.771-7.32c3.045-8.504,10.655-11.701,16.684-9.573
				c6.166,2.192,9.734,9.162,7.333,18.279C60.792,73.889,61.575,76.368,60.93,79.162z"/>
			<path fill="#848484" stroke="#2A271D" stroke-width="0.75" d="M53.105,90.053c-1.069,2.199-3.447,5.536-5.281,4.832
				l-12.942-4.911c-1.867-0.701-2.17-3.941-1.598-7.363c2.385-13.795,2.873-15.72,8.182-26.436c1.573-3.106,3.593-5.545,5.566-4.853
				l13.677,4.858c1.939,0.696,2.325,3.038,1.344,7.381C59.434,75.405,59.345,77.506,53.105,90.053z"/>
			<g>
				<path fill="#848484" stroke="#2A271D" stroke-width="0.75" d="M31.643,85.822l-4.112-2.499c0,0,0.115-1.08,0.79-3.417l0,0
					c0.829-2.293,1.214-2.979,2.037-4.727l2.195,1.672c0.644,2.705,0.727,3.333,0.629,3.658
					C33.182,80.509,31.771,85.296,31.643,85.822z"/>
				<polygon fill="#848484" stroke="#2A271D" stroke-width="0.75" points="33.234,88.376 31.641,85.742 33.29,80.145 35.841,79.612 
									"/>
			</g>
			<g>
				<path fill="#848484" stroke="#2A271D" stroke-width="0.75" d="M52.422,93.669l4.526,0.747c0,0,0.504-0.953,1.281-3.299l0,0
					c0.643-2.407,0.732-3.217,1.085-5.176l-2.616-0.104c-2.008,1.75-2.422,2.198-2.529,2.524
					C54.169,88.361,52.611,93.16,52.422,93.669z"/>
				<polygon fill="#848484" stroke="#2A271D" stroke-width="0.75" points="49.796,94.649 52.467,93.607 54.288,87.998 
					52.617,85.871 				"/>
			</g>
			<path fill="#848484" stroke="#2A271D" stroke-width="0.75" d="M49.801,94.635c0,0-7.22,1.047-9.193,0.294
				c-1.978-0.752-7.368-6.568-7.368-6.568l2.359-7.941l16.756,6.26L49.801,94.635z"/>
			<polygon fill="#848484" stroke="#2A271D" stroke-width="0.75" points="43.345,55.709 60.701,61.926 52.348,86.7 35.592,80.439 
							"/>
			<path fill="#848484" stroke="#2A271D" stroke-width="0.75" d="M46.381,56.787l-2.898-1.028c0,0,9.076-24.521,10.961-29.842
				l1.712,0.578C54.703,30.565,46.381,56.787,46.381,56.787z"/>
			<path fill="#848484" stroke="#2A271D" stroke-width="0.75" d="M60.868,61.987l-2.854-1.032c0,0,9.57-24.556,11.563-29.884
				l1.685,0.579C69.727,35.726,60.868,61.987,60.868,61.987z"/>
			<path fill="#848484" stroke="#2A271D" stroke-width="0.75" d="M53.585,59.36l-2.877-1.03c0,0,9.322-24.539,11.26-29.863
				l1.698,0.579C62.172,33.119,53.585,59.36,53.585,59.36z"/>
			<path fill="#848484" stroke="#2A271D" stroke-width="0.75" d="M49.684,95.576c-0.874,1.838-2.833,4.626-4.359,4.037
				l-10.738-4.112c-1.549-0.588-1.799-3.297-1.326-6.158c1.959-11.533,2.358-13.142,6.711-22.095
				c1.283-2.595,2.936-4.632,4.558-4.05l11.252,4.075c1.6,0.584,1.93,2.541,1.147,6.169C54.843,83.337,54.78,85.094,49.684,95.576z"
				/>
			<line fill="none" stroke="#2A271D" stroke-width="0.75" x1="54.682" y1="82.792" x2="35.922" y2="75.835"/>
			<path fill="#848484" stroke="#2A271D" stroke-width="0.75" d="M46.963,99.404c0,0-5.984,0.873-7.624,0.241
				c-1.642-0.63-6.114-5.495-6.114-5.495l1.947-6.638l13.874,5.244L46.963,99.404z"/>
			<polygon fill="#848484" stroke="#2A271D" stroke-width="0.75" points="41.515,66.861 55.808,72.075 49.042,92.772 35.168,87.528 
							"/>
			<path fill="#848484" stroke="#2A271D" stroke-width="0.75" d="M43.619,67.623l-2.384-0.862c0,0,5.447-14.837,6.528-18.067
				l1.388,0.487C48.32,51.651,43.619,67.623,43.619,67.623z"/>
			<path fill="#848484" stroke="#2A271D" stroke-width="0.75" d="M49.727,69.844l-2.369-0.864c0,0,5.576-14.845,6.684-18.077
				l1.377,0.487C54.565,53.862,49.727,69.844,49.727,69.844z"/>
			<path fill="#848484" stroke="#2A271D" stroke-width="0.75" d="M55.808,72.075l-2.352-0.865c0,0,5.702-14.855,6.838-18.089
				l1.369,0.488C60.788,56.083,55.808,72.075,55.808,72.075z"/>
		</g>
	</g>
</g>
<g>
	<g>
		<path fill="#848484" stroke="#2A271D" stroke-width="0.75" d="M48.801,140.235l-0.774-1.5l4.223,15.291l-4.001,1.041l1.338,6.063
			l-27.351,7.073l-0.921-6.323l-4.224,1.041l-0.927-13.072l-0.998-1.197l-1.739,8.095c3.74,42.77,12.076,84.131,16.115,102.634
			c0.947,4.098,6.912,5.066,29.51,0.7c22.151-4.387,26.687-7.469,25.245-11.589c-6.82-20.281-20.284-68.256-34.081-113.851
			L48.801,140.235z"/>
		<polygon fill="#848484" stroke="#2A271D" stroke-width="0.75" points="45.372,135.833 49.989,152.655 47.386,153.364 
			44.2,141.271 43.188,145.821 46.779,159.739 24.512,165.536 22.982,149.221 19.841,143.928 21.045,159.976 18.329,160.679 
			17.738,151.724 16.164,149.85 17.09,162.922 21.314,161.881 22.235,168.204 49.586,161.131 48.248,155.067 52.249,154.026 
			48.026,138.735 45.719,134.188 		"/>
		<polygon fill="#848484" stroke="#2A271D" stroke-width="0.5" points="47.386,153.364 49.989,152.655 45.372,135.833 44.2,141.271 
					"/>
		<polygon fill="#848484" stroke="#2A271D" stroke-width="0.5" points="21.045,159.976 19.841,143.928 18.961,142.411 
			18.086,152.135 18.292,152.378 18.079,152.216 18.086,152.135 17.738,151.724 18.329,160.679 		"/>
		<polygon fill="#848484" stroke="#2A271D" stroke-width="0.75" points="37.847,140.993 35.391,141.683 37.228,154.788 
			25.791,147.086 28.675,158.38 22.982,149.221 24.512,165.536 46.779,159.739 43.188,145.821 42.369,149.4 		"/>
		<polygon fill="none" stroke="#2A271D" stroke-width="0.75" points="15.393,178.952 59.531,167.853 70.067,205.885 21.441,216.782 
					"/>
		<g>
			<g>
				<g>
					<path fill="#848484" stroke="#2A271D" stroke-width="0.5" d="M23.531,194.797c0.124,0.722-0.355,1.442-1.072,1.608
						l-0.683,0.158c-0.719,0.166-1.4-0.286-1.519-1.007l0,0c-0.118-0.724,0.368-1.444,1.082-1.61l0.678-0.158
						C22.73,193.623,23.407,194.074,23.531,194.797L23.531,194.797z"/>
					<path fill="#848484" stroke="#2A271D" stroke-width="0.5" d="M26.737,188.456c2.875-0.685,5.656,1.166,6.231,4.134
						c0.585,2.968-1.32,5.928-4.273,6.608c-2.964,0.68-5.792-1.173-6.297-4.138C21.901,192.096,23.853,189.14,26.737,188.456z"/>
					<path fill="#848484" stroke="#2A271D" stroke-width="0.5" d="M32.134,192.801c-1.087,1.332-2.427,2.969-2.427,2.969
						l-3.058,0.71c0,0-1.699-0.83-3.291-1.628l0,0c1.37-1.651,2.47-2.966,2.47-2.966l3.023-0.712
						C28.852,191.174,30.373,191.85,32.134,192.801L32.134,192.801z"/>
					<line fill="none" stroke="#2A271D" stroke-width="0.5" x1="23.359" y1="194.852" x2="32.134" y2="192.801"/>
					<path fill="#848484" stroke="#2A271D" stroke-width="0.5" d="M26.652,194.374c0,0,0.09,0.656-0.501,0.766
						c-0.593,0.107-0.705-0.526-0.705-0.526l-0.493-2.813l1.189-0.279L26.652,194.374z"/>
					<path fill="#848484" stroke="#2A271D" stroke-width="0.5" d="M30.117,193.606c0,0,0.169,0.556-0.452,0.713
						c-0.622,0.158-0.691-0.405-0.691-0.405l-0.54-2.934l1.143-0.271L30.117,193.606L30.117,193.606z"/>
					<path fill="#848484" stroke="#2A271D" stroke-width="0.5" d="M22.703,197.39c0.538-0.124,1.049,0.213,1.143,0.753
						s-0.266,1.077-0.806,1.201s-1.054-0.213-1.146-0.753C21.803,198.052,22.165,197.513,22.703,197.39z"/>
					<line fill="none" stroke="#2A271D" stroke-width="0.5" x1="25.082" y1="192.539" x2="24.647" y2="190.022"/>
					<line fill="none" stroke="#2A271D" stroke-width="0.5" x1="26.274" y1="192.26" x2="25.902" y2="190.147"/>
					<line fill="none" stroke="#2A271D" stroke-width="0.5" x1="28.569" y1="191.721" x2="28.185" y2="189.606"/>
					<line fill="none" stroke="#2A271D" stroke-width="0.5" x1="29.714" y1="191.45" x2="29.249" y2="188.933"/>
					<line fill="none" stroke="#2A271D" stroke-width="0.5" x1="25.548" y1="191.661" x2="25.261" y2="190.015"/>
					<line fill="none" stroke="#2A271D" stroke-width="0.5" x1="29.004" y1="190.846" x2="28.715" y2="189.262"/>
				</g>
				<line fill="none" stroke="#2A271D" stroke-width="0.5" x1="24.647" y1="190.022" x2="25.902" y2="190.147"/>
				<line fill="none" stroke="#2A271D" stroke-width="0.5" x1="28.185" y1="189.606" x2="29.249" y2="188.933"/>
			</g>
			<g>
				<g>
					<path fill="#848484" stroke="#2A271D" stroke-width="0.5" d="M58.917,186.375c0.19,0.726,0.9,1.178,1.587,1.01l0.65-0.159
						c0.684-0.167,1.081-0.891,0.885-1.616l0,0c-0.195-0.727-0.906-1.18-1.585-1.012l-0.646,0.159
						C59.127,184.925,58.728,185.649,58.917,186.375L58.917,186.375z"/>
					<path fill="#848484" stroke="#2A271D" stroke-width="0.5" d="M53.57,181.967c2.777-0.688,5.648,1.165,6.431,4.143
						c0.792,2.979-0.867,5.948-3.724,6.633c-2.867,0.685-5.784-1.172-6.498-4.146C49.076,185.622,50.783,182.655,53.57,181.967z"/>
					<path fill="#848484" stroke="#2A271D" stroke-width="0.5" d="M50.603,188.412c1.504,0.73,3.355,1.631,3.355,1.631l2.958-0.715
						c0,0,1.128-1.526,2.172-2.98l0,0c-1.858-0.911-3.347-1.629-3.347-1.629l-2.924,0.717
						C52.817,185.436,51.761,186.745,50.603,188.412L50.603,188.412z"/>
					<line fill="none" stroke="#2A271D" stroke-width="0.5" x1="59.088" y1="186.348" x2="50.603" y2="188.412"/>
					<path fill="#848484" stroke="#2A271D" stroke-width="0.5" d="M56.043,187.387c0,0,0.192,0.646,0.75,0.48
						c0.559-0.164,0.393-0.801,0.393-0.801l-0.722-2.824l-1.145,0.282L56.043,187.387z"/>
					<path fill="#848484" stroke="#2A271D" stroke-width="0.5" d="M52.705,188.241c0,0,0.08,0.585,0.688,0.451
						c0.609-0.135,0.439-0.684,0.439-0.684l-0.728-2.943l-1.109,0.271L52.705,188.241z"/>
					<path fill="#848484" stroke="#2A271D" stroke-width="0.5" d="M60.701,188.408c0.513-0.125,1.047,0.213,1.193,0.755
						c0.147,0.542-0.151,1.083-0.667,1.209c-0.517,0.124-1.053-0.215-1.197-0.756C59.887,189.073,60.187,188.533,60.701,188.408z"/>
					<line fill="none" stroke="#2A271D" stroke-width="0.5" x1="56.654" y1="184.984" x2="56.014" y2="182.458"/>
					<line fill="none" stroke="#2A271D" stroke-width="0.5" x1="55.506" y1="185.267" x2="54.975" y2="183.146"/>
					<line fill="none" stroke="#2A271D" stroke-width="0.5" x1="53.288" y1="185.809" x2="52.769" y2="183.69"/>
					<line fill="none" stroke="#2A271D" stroke-width="0.5" x1="52.177" y1="186.079" x2="51.565" y2="183.554"/>
					<line fill="none" stroke="#2A271D" stroke-width="0.5" x1="55.893" y1="184.383" x2="55.477" y2="182.73"/>
					<line fill="none" stroke="#2A271D" stroke-width="0.5" x1="52.551" y1="185.203" x2="52.164" y2="183.613"/>
				</g>
				<line fill="none" stroke="#2A271D" stroke-width="0.5" x1="56.014" y1="182.458" x2="54.975" y2="183.146"/>
				<line fill="none" stroke="#2A271D" stroke-width="0.5" x1="52.769" y1="183.69" x2="51.565" y2="183.554"/>
			</g>
		</g>
		<path fill="#848484" stroke="#2A271D" stroke-width="0.75" d="M47.456,216.364c9.98-2.219,20.22,3.563,23.059,12.923
			c2.938,9.364-3.277,18.732-14.073,20.915c-10.905,2.178-21.621-3.626-23.746-12.954C30.671,227.925,37.365,218.579,47.456,216.364
			z"/>
		<g>
			<path fill="#848484" stroke="#2A271D" stroke-width="0.75" d="M62.393,232.56c-0.931-6.438-7.835-10.998-13.337-9.8
				c-5.536,1.196-9.598,8.057-7.215,14.108c0.624,1.557,2.299,2.591,2.748,4.08c1.415,4.633,6.455,6.625,10.859,5.734
				c4.516-0.919,7.643-4.463,6.751-9.382C61.846,235.344,62.611,234.065,62.393,232.56z"/>
			<path fill="#848484" stroke="#2A271D" stroke-width="0.75" d="M57.744,226.467c-0.584-1.21-2.011-3.08-3.366-2.785l-9.535,2.057
				c-1.372,0.293-1.83,2.004-1.685,3.846c0.59,7.429,0.776,8.47,3.607,14.368c0.833,1.709,2.033,3.083,3.474,2.792l10.007-2.034
				c1.421-0.292,1.9-1.517,1.596-3.853C61.018,234.488,61.132,233.372,57.744,226.467z"/>
			<line fill="none" stroke="#2A271D" stroke-width="0.75" x1="60.739" y1="233.836" x2="44.108" y2="237.314"/>
			<g>
				<path fill="#848484" stroke="#2A271D" stroke-width="0.75" d="M42.243,227.81l-3.084,1.156c0,0,0,0.578,0.298,1.851l0,0
					c0.407,1.253,0.624,1.632,1.067,2.597l1.673-0.798c0.661-1.411,0.768-1.741,0.726-1.918
					C42.923,230.697,42.295,228.093,42.243,227.81z"/>
				<polygon fill="#848484" stroke="#2A271D" stroke-width="0.75" points="43.558,226.517 42.236,227.851 42.972,230.895 
					44.726,231.283 				"/>
			</g>
			<g>
				<path fill="#848484" stroke="#2A271D" stroke-width="0.75" d="M57.546,224.522l3.272-0.203c0,0,0.28,0.526,0.644,1.802l0,0
					c0.264,1.301,0.26,1.731,0.35,2.784l-1.86-0.055c-1.281-1.01-1.537-1.266-1.587-1.442
					C58.362,227.408,57.64,224.8,57.546,224.522z"/>
				<polygon fill="#848484" stroke="#2A271D" stroke-width="0.75" points="55.759,223.89 57.573,224.558 58.417,227.605 
					57.063,228.661 				"/>
			</g>
			<path fill="#848484" stroke="#2A271D" stroke-width="0.75" d="M55.762,223.897c0,0-5.041-0.865-6.498-0.55
				c-1.458,0.315-5.703,3.178-5.703,3.178l1.057,4.32l12.325-2.622L55.762,223.897z"/>
			<polygon fill="#848484" stroke="#2A271D" stroke-width="0.75" points="44.615,230.834 56.939,228.212 60.748,241.668 
				48.039,244.272 			"/>
			<path fill="#848484" stroke="#2A271D" stroke-width="0.75" d="M50.791,243.713l-2.752,0.56c0,0,4.456,13.905,5.306,16.921
				l1.619-0.315C54.306,258.573,50.791,243.713,50.791,243.713z"/>
			<path fill="#848484" stroke="#2A271D" stroke-width="0.75" d="M60.748,241.668l-2.727,0.563c0,0,4.767,13.919,5.683,16.938
				l1.604-0.315C64.6,256.545,60.748,241.668,60.748,241.668z"/>
			<path fill="#848484" stroke="#2A271D" stroke-width="0.75" d="M55.841,242.679l-2.737,0.561c0,0,4.612,13.912,5.496,16.93
				l1.611-0.315C59.526,257.547,55.841,242.679,55.841,242.679z"/>
		</g>
		<line fill="none" stroke="#2A271D" stroke-width="0.75" x1="32.695" y1="237.248" x2="23.969" y2="233.916"/>
		<line fill="none" stroke="#2A271D" stroke-width="0.75" x1="70.515" y1="229.287" x2="75.638" y2="222.13"/>
	</g>
</g>
</svg>
