<?xml version="1.0" encoding="utf-8"?>
<!-- Generator: Adobe Illustrator 16.0.0, SVG Export Plug-In . SVG Version: 6.00 Build 0)  -->
<!DOCTYPE svg PUBLIC "-//W3C//DTD SVG 1.1//EN" "http://www.w3.org/Graphics/SVG/1.1/DTD/svg11.dtd">
<svg version="1.1" id="Layer_1" xmlns="http://www.w3.org/2000/svg" xmlns:xlink="http://www.w3.org/1999/xlink" x="0px" y="0px"
	 width="100px" height="270px" viewBox="0 0 100 270" enable-background="new 0 0 100 270" xml:space="preserve">
<g>
	<g>
		<g>
			<path fill="#848484" stroke="#2A271D" stroke-width="0.75" d="M31.647,193.264c0.866-0.287,1.802,0.182,2.09,1.047l0.273,0.822
				c0.288,0.867-0.18,1.804-1.047,2.092l0,0c-0.867,0.288-1.803-0.182-2.091-1.049l-0.273-0.822
				C30.312,194.488,30.78,193.553,31.647,193.264L31.647,193.264z"/>
			
				<circle fill-rule="evenodd" clip-rule="evenodd" fill="#848484" stroke="#2A271D" stroke-width="0.75" cx="29.964" cy="188.2" r="6.783"/>
			<path fill-rule="evenodd" clip-rule="evenodd" fill="#848484" stroke="#2A271D" stroke-width="0.75" d="M28.182,182.781
				c1.756,1.159,3.914,2.578,3.914,2.578l1.231,3.703c0,0-0.81,2.268-1.592,4.406l0,0c-2.178-1.422-3.914-2.576-3.914-2.576
				l-1.231-3.703C26.59,187.189,27.231,185.154,28.182,182.781L28.182,182.781z"/>
			<line fill="#848484" stroke="#2A271D" stroke-width="0.75" x1="31.735" y1="193.469" x2="28.182" y2="182.781"/>
			<path fill="#848484" stroke="#2A271D" stroke-width="0.75" d="M30.758,189.422c0,0,0.79-0.227,0.993,0.496
				c0.204,0.724-0.556,0.975-0.556,0.975l-3.373,1.121l-0.483-1.455L30.758,189.422z"/>
			<path fill="#848484" stroke="#2A271D" stroke-width="0.75" d="M29.406,185.195c0,0,0.658-0.303,0.925,0.451
				c0.267,0.756-0.411,0.937-0.411,0.937l-3.516,1.169l-0.466-1.404L29.406,185.195z"/>
			<circle fill="#848484" stroke="#2A271D" stroke-width="0.75" cx="36.079" cy="193.433" r="1.234"/>
			<line fill="#848484" stroke="#2A271D" stroke-width="0.75" x1="28.707" y1="191.72" x2="25.689" y2="192.723"/>
			<line fill="#848484" stroke="#2A271D" stroke-width="0.75" x1="28.223" y1="190.266" x2="25.692" y2="191.106"/>
			<line fill="#848484" stroke="#2A271D" stroke-width="0.75" x1="27.29" y1="187.457" x2="24.759" y2="188.299"/>
			<line fill="#848484" stroke="#2A271D" stroke-width="0.75" x1="26.823" y1="186.053" x2="23.806" y2="187.057"/>
			<line fill="#848484" stroke="#2A271D" stroke-width="0.75" x1="27.58" y1="191.287" x2="25.605" y2="191.943"/>
			<line fill="#848484" stroke="#2A271D" stroke-width="0.75" x1="26.171" y1="187.05" x2="24.272" y2="187.682"/>
		</g>
		<line fill="#848484" stroke="#2A271D" stroke-width="0.75" x1="25.689" y1="192.723" x2="25.692" y2="191.106"/>
		<line fill="#848484" stroke="#2A271D" stroke-width="0.75" x1="24.759" y1="188.299" x2="23.806" y2="187.057"/>
	</g>
	<path fill="#848484" stroke="#2A271D" stroke-width="0.75" d="M50.421,267.291c23.255,0,28.837-2.381,28.837-7.225
		c0-46.425,3.722-215.719-28.837-256.79c-32.559,41.071-28.838,210.365-28.838,256.79C21.583,264.91,27.166,267.291,50.421,267.291z
		"/>
	<polygon fill="#848484" stroke="#2A271D" stroke-width="0.75" points="73.798,147.439 70.404,94.08 50.487,73.778 30.063,94.08 
		26.986,147.007 32.489,147.058 32.489,154.563 68.352,154.563 68.352,147.39 	"/>
	<polygon fill="#848484" stroke="#2A271D" stroke-width="0.5" points="67.712,145.227 71.278,145.227 68.923,112.259 
		34.548,112.259 31.14,112.259 28.923,144.797 32.489,144.797 34.367,115.121 65.807,115.121 	"/>
	<g>
		<path fill="#848484" stroke="#2A271D" stroke-width="0.75" d="M66.925,82.776c1.427,12.744-7.389,24.403-16.504,24.403
			S32.489,95.521,33.916,82.776c0.367-3.274,2.503-5.954,2.614-9.024c0.344-9.549,7.02-15.379,13.891-15.378
			c7.073,0,13.276,5.578,14.11,15.378C64.864,77.651,66.593,79.798,66.925,82.776z"/>
		<path fill="#848484" stroke="#2A271D" stroke-width="0.75" d="M62.43,96.399c-0.389,2.573-1.818,6.77-4.061,6.77H42.692
			c-2.242,0-3.592-3.131-4.06-6.77c-1.881-14.667-1.991-16.765,0-29.335c0.577-3.641,1.818-6.77,4.06-6.77h15.677
			c2.242,0,3.492,2.161,4.061,6.77C63.979,79.635,64.643,81.732,62.43,96.399z"/>
		<g>
			<path fill="#848484" stroke="#2A271D" stroke-width="0.75" d="M37.885,100.225l-5.187-0.978c0,0-0.208-1.128-0.208-3.727l0,0
				c0.172-2.607,0.367-3.436,0.694-5.491l2.847,0.872c1.539,2.472,1.826,3.069,1.826,3.431
				C37.857,94.332,37.857,99.651,37.885,100.225z"/>
			<polygon fill="#848484" stroke="#2A271D" stroke-width="0.75" points="40.403,102.188 37.857,100.146 37.857,93.928 
				40.403,92.455 			"/>
		</g>
		<g>
			<path fill="#848484" stroke="#2A271D" stroke-width="0.75" d="M62.955,100.225l5.189-0.978c0,0,0.207-1.128,0.207-3.727l0,0
				c-0.171-2.607-0.367-3.436-0.695-5.491l-2.847,0.872c-1.538,2.472-1.826,3.069-1.826,3.431
				C62.983,94.332,62.983,99.651,62.955,100.225z"/>
			<polygon fill="#848484" stroke="#2A271D" stroke-width="0.75" points="60.438,102.188 62.983,100.146 62.983,93.928 
				60.438,92.455 			"/>
		</g>
		<path fill="#848484" stroke="#2A271D" stroke-width="0.75" d="M60.438,102.172c0,0-7.52,3.779-9.922,3.779
			s-10.112-3.779-10.112-3.779v-8.821h20.034V102.172z"/>
		<rect x="40.403" y="65.939" fill="#848484" stroke="#2A271D" stroke-width="0.75" width="20.034" height="27.434"/>
		<path fill="#848484" stroke="#2A271D" stroke-width="0.75" d="M43.88,65.939h-3.32c0,0,0.773-27.417,0.773-33.302h1.882
			C43.216,37.138,43.88,65.939,43.88,65.939z"/>
		<path fill="#848484" stroke="#2A271D" stroke-width="0.75" d="M60.631,65.939h-3.32c0,0,0.775-27.417,0.775-33.302h1.88
			C59.966,37.138,60.631,65.939,60.631,65.939z"/>
		<path fill="#848484" stroke="#2A271D" stroke-width="0.75" d="M52.176,65.939h-3.321c0,0,0.775-27.417,0.775-33.302h1.882
			C51.512,37.138,52.176,65.939,52.176,65.939z"/>
		<path fill="#848484" stroke="#2A271D" stroke-width="0.75" d="M60.635,103.147c-0.323,2.151-1.518,5.661-3.395,5.661H44.133
			c-1.876,0-3.004-2.618-3.395-5.661c-1.573-12.264-1.666-14.018,0-24.529c0.481-3.044,1.519-5.66,3.395-5.66H57.24
			c1.877,0,2.921,1.806,3.395,5.66C61.931,89.129,62.486,90.883,60.635,103.147z"/>
		<line fill="#848484" stroke="#2A271D" stroke-width="0.75" x1="61.567" y1="88.652" x2="39.274" y2="88.652"/>
		<path fill="#848484" stroke="#2A271D" stroke-width="0.75" d="M58.969,107.974c0,0-6.285,3.16-8.295,3.16
			c-2.008,0-8.455-3.16-8.455-3.16v-7.375h16.75V107.974z"/>
		<rect x="42.219" y="77.678" fill="#848484" stroke="#2A271D" stroke-width="0.75" width="16.75" height="22.938"/>
		<path fill="#848484" stroke="#2A271D" stroke-width="0.75" d="M44.668,77.678h-2.774c0,0,0.646-16.667,0.646-20.245h1.575
			C44.115,60.169,44.668,77.678,44.668,77.678z"/>
		<path fill="#848484" stroke="#2A271D" stroke-width="0.75" d="M51.809,77.678h-2.776c0,0,0.648-16.667,0.648-20.245h1.573
			C51.254,60.169,51.809,77.678,51.809,77.678z"/>
		<path fill="#848484" stroke="#2A271D" stroke-width="0.75" d="M58.969,77.678h-2.775c0,0,0.647-16.667,0.647-20.245h1.573
			C58.414,60.169,58.969,77.678,58.969,77.678z"/>
	</g>
	<rect x="22.247" y="164.938" fill="none" stroke="#2A271D" stroke-width="0.75" width="56.52" height="44.864"/>
	<polygon fill="#848484" stroke="#2A271D" stroke-width="0.75" points="65.188,152.176 35.825,152.176 37.179,128.371 
		63.852,128.371 	"/>
	<g>
		<g>
			<g>
				<path fill="#848484" stroke="#2A271D" stroke-width="0.5" d="M28.936,185.277c0,0.855-0.693,1.55-1.549,1.55h-0.813
					c-0.856,0-1.552-0.694-1.552-1.55l0,0c0-0.857,0.696-1.552,1.552-1.552h0.813C28.243,183.726,28.936,184.42,28.936,185.277
					L28.936,185.277z"/>
				
					<circle fill-rule="evenodd" clip-rule="evenodd" fill="#848484" stroke="#2A271D" stroke-width="0.5" cx="33.942" cy="185.277" r="6.363"/>
				<path fill-rule="evenodd" clip-rule="evenodd" fill="#848484" stroke="#2A271D" stroke-width="0.5" d="M39.293,185.294
					c-1.552,1.22-3.453,2.721-3.453,2.721H32.18c0,0-1.78-1.392-3.452-2.721l0,0c1.91-1.518,3.452-2.722,3.452-2.722h3.661
					C35.84,182.572,37.462,183.746,39.293,185.294L39.293,185.294z"/>
				<line fill="#848484" stroke="#2A271D" stroke-width="0.5" x1="28.728" y1="185.294" x2="39.293" y2="185.294"/>
				<path fill="#848484" stroke="#2A271D" stroke-width="0.5" d="M32.619,185.622c0,0-0.032,0.77-0.735,0.737
					c-0.705-0.033-0.704-0.784-0.704-0.784v-3.334h1.439V185.622z"/>
				<path fill="#848484" stroke="#2A271D" stroke-width="0.5" d="M36.782,185.67c0,0,0.074,0.675-0.676,0.689
					c-0.751,0.014-0.711-0.643-0.711-0.643v-3.476h1.388V185.67z"/>
				<circle fill="#848484" stroke="#2A271D" stroke-width="0.5" cx="27.475" cy="189.172" r="1.158"/>
				<line fill="#848484" stroke="#2A271D" stroke-width="0.5" x1="31.18" y1="183.117" x2="31.18" y2="180.134"/>
				<line fill="#848484" stroke="#2A271D" stroke-width="0.5" x1="32.619" y1="183.117" x2="32.619" y2="180.614"/>
				<line fill="#848484" stroke="#2A271D" stroke-width="0.5" x1="35.395" y1="183.117" x2="35.395" y2="180.614"/>
				<line fill="#848484" stroke="#2A271D" stroke-width="0.5" x1="36.782" y1="183.117" x2="36.782" y2="180.134"/>
				<line fill="#848484" stroke="#2A271D" stroke-width="0.5" x1="31.899" y1="182.241" x2="31.899" y2="180.29"/>
				<line fill="#848484" stroke="#2A271D" stroke-width="0.5" x1="36.088" y1="182.241" x2="36.088" y2="180.364"/>
			</g>
			<line fill="#848484" stroke="#2A271D" stroke-width="0.5" x1="31.18" y1="180.134" x2="32.619" y2="180.614"/>
			<line fill="#848484" stroke="#2A271D" stroke-width="0.5" x1="35.395" y1="180.614" x2="36.782" y2="180.134"/>
		</g>
		<g>
			<g>
				<path fill="#848484" stroke="#2A271D" stroke-width="0.5" d="M72.252,185.294c0,0.856,0.693,1.55,1.55,1.55h0.813
					c0.855,0,1.552-0.693,1.552-1.55l0,0c0-0.856-0.696-1.552-1.552-1.552h-0.813C72.945,183.742,72.252,184.438,72.252,185.294
					L72.252,185.294z"/>
				
					<circle fill-rule="evenodd" clip-rule="evenodd" fill="#848484" stroke="#2A271D" stroke-width="0.5" cx="67.246" cy="185.294" r="6.363"/>
				<path fill-rule="evenodd" clip-rule="evenodd" fill="#848484" stroke="#2A271D" stroke-width="0.5" d="M61.896,185.311
					c1.552,1.22,3.452,2.721,3.452,2.721h3.661c0,0,1.78-1.391,3.452-2.721l0,0c-1.91-1.518-3.452-2.721-3.452-2.721h-3.661
					C65.348,182.59,63.727,183.763,61.896,185.311L61.896,185.311z"/>
				<line fill="#848484" stroke="#2A271D" stroke-width="0.5" x1="72.461" y1="185.311" x2="61.896" y2="185.311"/>
				<path fill="#848484" stroke="#2A271D" stroke-width="0.5" d="M68.569,185.639c0,0,0.032,0.77,0.735,0.737
					c0.704-0.032,0.703-0.784,0.703-0.784v-3.334h-1.438V185.639z"/>
				<path fill="#848484" stroke="#2A271D" stroke-width="0.5" d="M64.406,185.687c0,0-0.074,0.675,0.676,0.689
					c0.752,0.015,0.712-0.643,0.712-0.643v-3.476h-1.388V185.687z"/>
				<circle fill="#848484" stroke="#2A271D" stroke-width="0.5" cx="73.713" cy="189.189" r="1.158"/>
				<line fill="#848484" stroke="#2A271D" stroke-width="0.5" x1="70.008" y1="183.134" x2="70.008" y2="180.15"/>
				<line fill="#848484" stroke="#2A271D" stroke-width="0.5" x1="68.569" y1="183.134" x2="68.569" y2="180.631"/>
				<line fill="#848484" stroke="#2A271D" stroke-width="0.5" x1="65.794" y1="183.134" x2="65.794" y2="180.631"/>
				<line fill="#848484" stroke="#2A271D" stroke-width="0.5" x1="64.406" y1="183.134" x2="64.406" y2="180.15"/>
				<line fill="#848484" stroke="#2A271D" stroke-width="0.5" x1="69.289" y1="182.258" x2="69.289" y2="180.307"/>
				<line fill="#848484" stroke="#2A271D" stroke-width="0.5" x1="65.1" y1="182.258" x2="65.1" y2="180.381"/>
			</g>
			<line fill="#848484" stroke="#2A271D" stroke-width="0.5" x1="70.008" y1="180.15" x2="68.569" y2="180.631"/>
			<line fill="#848484" stroke="#2A271D" stroke-width="0.5" x1="65.794" y1="180.631" x2="64.406" y2="180.15"/>
		</g>
	</g>
	<ellipse fill="#848484" stroke="#2A271D" stroke-width="0.75" cx="50.674" cy="235.733" rx="20.869" ry="19.968"/>
	<g>
		<path fill="#848484" stroke="#2A271D" stroke-width="0.75" d="M61.978,237.434c0.975-7.371-5.061-14.115-11.303-14.115
			c-6.243,0-12.279,6.744-11.303,14.115c0.251,1.895,1.714,3.445,1.79,5.221c0.237,5.523,4.809,8.896,9.514,8.896
			c4.844,0,9.092-3.228,9.664-8.896C60.565,240.398,61.749,239.157,61.978,237.434z"/>
		<path fill="#848484" stroke="#2A271D" stroke-width="0.75" d="M58.898,229.554c-0.266-1.488-1.245-3.916-2.78-3.916H45.382
			c-1.536,0-2.461,1.812-2.78,3.916c-1.29,8.485-1.365,9.699,0,16.97c0.395,2.106,1.244,3.918,2.78,3.918h10.736
			c1.535,0,2.391-1.252,2.78-3.918C59.96,239.253,60.415,238.039,58.898,229.554z"/>
		<line fill="#848484" stroke="#2A271D" stroke-width="0.75" x1="59.865" y1="238.463" x2="41.607" y2="238.463"/>
		<g>
			<path fill="#848484" stroke="#2A271D" stroke-width="0.75" d="M42.089,227.342l-3.552,0.564c0,0-0.142,0.652-0.142,2.156l0,0
				c0.117,1.508,0.251,1.986,0.475,3.176l1.95-0.504c1.053-1.43,1.25-1.775,1.25-1.984C42.071,230.75,42.071,227.673,42.089,227.342
				z"/>
			<polygon fill="#848484" stroke="#2A271D" stroke-width="0.75" points="43.814,226.205 42.071,227.387 42.071,230.983 
				43.814,231.835 			"/>
		</g>
		<g>
			<path fill="#848484" stroke="#2A271D" stroke-width="0.75" d="M59.259,227.342l3.553,0.564c0,0,0.141,0.652,0.141,2.156l0,0
				c-0.115,1.508-0.25,1.986-0.475,3.176l-1.949-0.504c-1.055-1.43-1.25-1.775-1.25-1.984
				C59.278,230.75,59.278,227.673,59.259,227.342z"/>
			<polygon fill="#848484" stroke="#2A271D" stroke-width="0.75" points="57.534,226.205 59.278,227.387 59.278,230.983 
				57.534,231.835 			"/>
		</g>
		<path fill="#848484" stroke="#2A271D" stroke-width="0.75" d="M57.534,226.215c0,0-5.149-2.187-6.795-2.187
			s-6.925,2.187-6.925,2.187v5.104h13.72V226.215z"/>
		<rect x="43.814" y="231.305" fill="#848484" stroke="#2A271D" stroke-width="0.75" width="13.72" height="15.869"/>
		<path fill="#848484" stroke="#2A271D" stroke-width="0.75" d="M46.771,247.174h-2.957c0,0,0.69,16.561,0.69,20.117h1.676
			C46.18,264.572,46.771,247.174,46.771,247.174z"/>
		<path fill="#848484" stroke="#2A271D" stroke-width="0.75" d="M57.534,247.174h-2.957c0,0,0.689,16.561,0.689,20.117h1.676
			C56.942,264.572,57.534,247.174,57.534,247.174z"/>
		<path fill="#848484" stroke="#2A271D" stroke-width="0.75" d="M52.218,247.174h-2.957c0,0,0.689,16.561,0.689,20.117h1.676
			C51.626,264.572,52.218,247.174,52.218,247.174z"/>
	</g>
	<line fill="none" stroke="#2A271D" stroke-width="0.75" x1="29.805" y1="235.733" x2="21.462" y2="229.914"/>
	<line fill="none" stroke="#2A271D" stroke-width="0.75" x1="71.543" y1="235.733" x2="79.381" y2="229.076"/>
</g>
</svg>
