<?xml version="1.0" encoding="utf-8"?>
<!-- Generator: Adobe Illustrator 16.0.0, SVG Export Plug-In . SVG Version: 6.00 Build 0)  -->
<!DOCTYPE svg PUBLIC "-//W3C//DTD SVG 1.1//EN" "http://www.w3.org/Graphics/SVG/1.1/DTD/svg11.dtd">
<svg version="1.1" xmlns="http://www.w3.org/2000/svg" xmlns:xlink="http://www.w3.org/1999/xlink" x="0px" y="0px" width="85px"
	 height="330px" viewBox="0 0 85 330" enable-background="new 0 0 85 330" xml:space="preserve">
<g id="Layer_1">
</g>
<g id="Layer_2">
	<g>
		<g>
			<path fill="#9B9A9A" stroke="#2A271D" stroke-width="0.75" stroke-miterlimit="10" d="M20.128,141.859l-4.55-2.271
				L20.128,141.859l-0.229-1.881l1.989,2.766l13.966,7.152l1.558-4.282l-0.365,0.066l-0.582-3.104l-22.647-12.158l-1.167-4.821
				l18.585-3.159l-2.063-7.232l26.237-4.465l0.621,7.438l19.249-3.34l0.57,4.855l-15.373,16.253l3.865,5.892l13.008-13.061
				l-13.008,13.061l4.35,6.827l0.652-7.749l10.263,7.019c-3.382-28.547-7.158-53.024-8.521-57.995
				c-1.081-3.859-16.876-22.433-33.13-48.973c1.516,6.366,3.513,14.843,4.699,19.986c0.998,0.716,1.869,2.055,2.66,4.042
				c1.706,1.972,3.072,4.472,3.928,7.494c1.05,3.758,3.214,5.57,4.073,8.429l8.912-4.586l-8.912,4.586
				c0.742,2.498,1.031,5.022,0.955,7.473l1.018-0.494c0.671,1.958,1.004,2.737,1.599,5.262c0.417,2.545,0.39,3.685,0.39,3.685
				l-4.991,1.813c-0.002-0.013-0.007-0.04-0.01-0.057l-1.512,1.685c-0.1,0.162-0.199,0.323-0.302,0.481
				c0.008,0.368,0.019,0.746,0.026,1.134c0.029,1.394-0.2,3.395-0.856,4.726l0.048,0.273c0,0-0.139,0.101-0.36,0.261
				c-0.314,0.448-0.703,0.758-1.178,0.838l-0.009,0.001c-1.789,1.246-4.643,3.131-5.927,3.349c-1.289,0.219-4.736-0.614-6.897-1.193
				c-0.459,0.038-0.903-0.095-1.327-0.366c-0.316-0.09-0.515-0.148-0.515-0.148l-0.063-0.312c-0.939-0.9-1.754-2.434-2.35-4.162
				c-0.053-0.153-0.103-0.298-0.155-0.448c-0.412-0.28-0.818-0.581-1.22-0.896l-2.024-1.097c0.004,0.017,0.01,0.043,0.014,0.056
				l-5.26-0.103c0,0-0.455-1.068-1.041-3.603c-0.425-2.571-0.421-3.412-0.569-5.471l1.124,0.142
				c-1.026-2.283-1.756-4.752-2.068-7.337l-9.924-1.526l9.924,1.526c-0.396-3.254,1.142-6.223,0.54-9.236
				c-0.671-3.327-0.399-6.32,0.541-8.862c0.037-1.576,0.29-2.964,0.849-3.932c-1.169-5.513-3.219-14.933-4.741-21.575
				c-3.228,30.53-10.259,53.68-9.733,57.749c0.682,5.311,6.384,31.195,12.807,60.759l2.801,4.17L20.128,141.859z"/>
			<polygon fill="#9B9A9A" stroke="#2A271D" stroke-width="0.75" stroke-miterlimit="10" points="40.006,150.159 41.865,149.825 
				45.081,144.249 40.259,145.107 			"/>
			<path fill="#9B9A9A" stroke="#2A271D" stroke-width="0.75" stroke-miterlimit="10" d="M24.477,59.985
				c0.11,0.467,0.344,1.377,0.651,2.553c1.414-1.105,3.046-1.917,4.803-2.391c-1.675-8.397-4.388-21.477-5.31-25.281l2.08-0.323
				c0.704,2.947,4.204,16.518,6.354,25.131c1.835-0.086,3.661,0.156,5.405,0.725c-0.204-1.106-0.376-2.004-0.496-2.565l0.746-0.118
				c-1.336-7.266-3.263-17.377-4.305-22.355C29.041,26.876,23.69,17.688,18.877,7.974L18.64,8.01
				c0.356,9.863-0.08,19.46-0.942,28.52c0.962,3.658,4.163,15.383,6.329,23.527L24.477,59.985z"/>
			<polygon fill="#9B9A9A" stroke="#2A271D" stroke-width="0.75" stroke-miterlimit="10" points="32.806,158.524 35.854,149.896 
				21.888,142.744 			"/>
			<polygon fill="#9B9A9A" stroke="#2A271D" stroke-width="0.75" stroke-miterlimit="10" points="38.522,142.169 32.384,116.06 
				52.719,112.593 54.593,128.475 54.99,127.838 60.479,135.946 75.852,119.693 75.281,114.838 56.032,118.178 55.411,110.74 
				29.174,115.206 31.236,122.438 12.651,125.597 13.818,130.417 36.465,142.575 37.047,145.679 37.412,145.613 38.699,142.138 			
				"/>
			<polygon fill="#9B9A9A" stroke="#2A271D" stroke-width="0.75" stroke-miterlimit="10" points="40.427,141.832 40.259,145.107 
				45.081,144.249 47.209,140.631 			"/>
			<polygon fill="#3A3A3A" stroke="#2A271D" stroke-width="0.75" stroke-miterlimit="10" points="54.593,128.475 52.719,112.593 
				32.384,116.06 38.522,142.169 38.699,142.138 40.688,136.871 40.427,141.832 47.209,140.631 			"/>
			<path fill="#9B9A9A" stroke="#2A271D" stroke-width="0.75" stroke-miterlimit="10" d="M26.371,97.034
				c0,0,0.064,0.287,0.162,0.723l-0.25-1.118l0.369-0.313C22.385,84.612,21.814,82.07,20.989,70.3
				c-0.048-0.682-0.068-1.35-0.053-1.988c-0.94,2.542-1.212,5.535-0.541,8.862c0.603,3.013-0.935,5.982-0.54,9.236
				c0.313,2.585,1.042,5.054,2.068,7.337l1.889,0.239C25.878,96.146,26.292,96.681,26.371,97.034z"/>
			<path fill="#9B9A9A" stroke="#2A271D" stroke-width="0.75" stroke-miterlimit="10" d="M50.464,100.766
				c0.103-0.158,0.202-0.319,0.302-0.481l-0.307,0.343C50.461,100.674,50.462,100.718,50.464,100.766z"/>
			<path fill="#9B9A9A" stroke="#2A271D" stroke-width="0.75" stroke-miterlimit="10" d="M30.529,104.271l0.003,0.016l-0.853-0.463
				c0.402,0.315,0.808,0.616,1.22,0.896c-0.043-0.126-0.088-0.254-0.131-0.379C30.627,104.299,30.53,104.271,30.529,104.271z"/>
			<path fill="#9B9A9A" stroke="#2A271D" stroke-width="0.75" stroke-miterlimit="10" d="M51.048,92.417l0.195,0.072l0.203,1.162
				c-0.079-0.462-0.133-0.766-0.133-0.766c-0.063-0.354,0.123-0.986,1.248-3.662l1.711-0.832c0.076-2.45-0.213-4.975-0.955-7.473
				c-0.859-2.859-3.023-4.671-4.073-8.429c-0.855-3.022-2.222-5.522-3.928-7.494c0.163,0.41,0.322,0.841,0.479,1.307
				C49.5,77.594,50.654,80,51.048,92.417z"/>
			<path fill="#9B9A9A" stroke="#2A271D" stroke-width="0.75" stroke-miterlimit="10" d="M30.285,61.951
				c-0.112-0.571-0.229-1.174-0.354-1.804c-1.757,0.474-3.389,1.286-4.803,2.391c0.02,0.078,0.039,0.15,0.06,0.23L30.285,61.951z"/>
			<path fill="#9B9A9A" stroke="#2A271D" stroke-width="0.75" stroke-miterlimit="10" d="M38.503,60.638
				c-0.014-0.08-0.028-0.161-0.042-0.238c-1.744-0.569-3.57-0.812-5.405-0.725c0.15,0.613,0.297,1.208,0.433,1.764L38.503,60.638z"
				/>
			<path fill="#9B9A9A" stroke="#2A271D" stroke-width="0.75" stroke-miterlimit="10" d="M21.785,64.38
				c-0.559,0.967-0.812,2.355-0.849,3.932c0.317-0.852,0.71-1.649,1.172-2.391C22.01,65.45,21.902,64.938,21.785,64.38z"/>
			<path fill="#9B9A9A" stroke="#2A271D" stroke-width="0.75" stroke-miterlimit="10" d="M45.316,64.995
				c-0.791-1.987-1.662-3.326-2.66-4.042c0.161,0.71,0.31,1.36,0.439,1.929C43.884,63.5,44.628,64.204,45.316,64.995z"/>
			<path fill="#9B9A9A" stroke="#2A271D" stroke-width="0.75" stroke-miterlimit="10" d="M31.354,67.488
				c0,0-0.426-2.231-1.069-5.537l-5.098,0.817c0.397,1.526,0.908,3.465,1.438,5.482L31.354,67.488z"/>
			<path fill="#9B9A9A" stroke="#2A271D" stroke-width="0.75" stroke-miterlimit="10" d="M43.688,65.506l-0.204,0.032l2.182,11.121
				c0.153,0.385,0.303,0.797,0.448,1.243c2.104,6.503,3.198,9.485,3.791,14.1l1.143,0.415C50.654,80,49.5,77.594,45.795,66.302
				c-0.156-0.465-0.315-0.896-0.479-1.307c-0.688-0.792-1.433-1.495-2.221-2.113C43.465,64.517,43.688,65.506,43.688,65.506z"/>
			<path fill="#9B9A9A" stroke="#2A271D" stroke-width="0.75" stroke-miterlimit="10" d="M26.652,96.326l1.147-0.97
				c-0.419-1.459-0.737-2.783-0.989-4.146l-0.275,0.046l0.275-0.046c-0.417-2.234-0.655-4.585-0.879-7.832l-3.368-14.472
				l0.161-0.026c0,0-0.234-1.13-0.615-2.959c-0.461,0.742-0.855,1.54-1.172,2.391c-0.015,0.638,0.004,1.307,0.053,1.988
				C21.814,82.07,22.385,84.612,26.652,96.326z"/>
			<path fill="#9B9A9A" stroke="#2A271D" stroke-width="0.75" stroke-miterlimit="10" d="M39.476,66.181
				c-0.346-2.023-0.687-3.974-0.973-5.543l-5.015,0.801c0.8,3.278,1.335,5.49,1.335,5.49L39.476,66.181z"/>
			<path fill="#9B9A9A" stroke="#2A271D" stroke-width="0.75" stroke-miterlimit="10" d="M27.428,101.807
				c-2.208-2.221-4.127-4.967-5.503-8.06L20.8,93.605c0.147,2.059,0.144,2.9,0.569,5.471c0.586,2.535,1.041,3.603,1.041,3.603
				l5.26,0.103c-0.003-0.013-0.009-0.04-0.014-0.056l-0.03-0.016L27.428,101.807z"/>
			<path fill="#9B9A9A" stroke="#2A271D" stroke-width="0.75" stroke-miterlimit="10" d="M26.533,97.757
				c-0.098-0.436-0.162-0.724-0.162-0.723c-0.079-0.354-0.493-0.889-2.558-3.048l-1.889-0.239c1.376,3.093,3.295,5.839,5.503,8.06
				L26.533,97.757z"/>
			<path fill="#9B9A9A" stroke="#2A271D" stroke-width="0.75" stroke-miterlimit="10" d="M27.656,102.726l2.024,1.097
				c-0.77-0.606-1.518-1.274-2.235-1.999C27.542,102.251,27.617,102.575,27.656,102.726z"/>
			<path fill="#9B9A9A" stroke="#2A271D" stroke-width="0.75" stroke-miterlimit="10" d="M30.529,104.271L30.529,104.271
				l-0.081-0.375c-1.14-1.076-2.135-2.908-2.869-4.972c-0.327-0.916-0.635-1.778-0.928-2.598l-0.369,0.313l0.25,1.118
				c0.229,1.026,0.647,2.904,0.912,4.067c0.717,0.724,1.465,1.393,2.235,1.999l0.853,0.463L30.529,104.271z"/>
			<path fill="#9B9A9A" stroke="#2A271D" stroke-width="0.75" stroke-miterlimit="10" d="M27.799,95.355l-1.147,0.97
				c0.293,0.82,0.601,1.682,0.928,2.598c0.733,2.063,1.729,3.896,2.869,4.972l-0.268-1.253
				C29.139,99.642,28.374,97.365,27.799,95.355z"/>
			<path fill="#9B9A9A" stroke="#2A271D" stroke-width="0.75" stroke-miterlimit="10" d="M27.428,101.807l0.198,0.903l0.03,0.016
				c-0.039-0.151-0.114-0.475-0.21-0.901C27.439,101.819,27.434,101.813,27.428,101.807z"/>
			<path fill="#9B9A9A" stroke="#2A271D" stroke-width="0.75" stroke-miterlimit="10" d="M27.445,101.825
				c-0.265-1.164-0.683-3.042-0.912-4.067l0.895,4.05C27.434,101.813,27.439,101.819,27.445,101.825z"/>
			<path fill="#9B9A9A" stroke="#2A271D" stroke-width="0.75" stroke-miterlimit="10" d="M52.3,98.576L52.277,98.6
				c0.003,0.018,0.008,0.044,0.01,0.057l4.991-1.813c0,0,0.027-1.14-0.39-3.685c-0.595-2.524-0.928-3.304-1.599-5.262l-1.018,0.494
				c-0.104,3.318-0.872,6.495-2.128,9.281L52.3,98.576z"/>
			<path fill="#9B9A9A" stroke="#2A271D" stroke-width="0.75" stroke-miterlimit="10" d="M51.313,92.885
				c0,0,0.054,0.304,0.133,0.766l0.698,4.022c1.256-2.787,2.024-5.963,2.128-9.281l-1.711,0.832
				C51.437,91.899,51.251,92.53,51.313,92.885z"/>
			<path fill="#9B9A9A" stroke="#2A271D" stroke-width="0.75" stroke-miterlimit="10" d="M50.766,100.285l1.512-1.685
				c-0.021-0.153-0.072-0.479-0.143-0.907C51.728,98.602,51.27,99.469,50.766,100.285z"/>
			<path fill="#9B9A9A" stroke="#2A271D" stroke-width="0.75" stroke-miterlimit="10" d="M51.446,93.65l-0.203-1.162l-0.195-0.072
				c0.025,0.816,0.047,1.675,0.065,2.582c0.029,1.381-0.161,3.261-0.68,4.772c0.01,0.279,0.019,0.565,0.025,0.856l0.307-0.343
				c0.504-0.816,0.962-1.683,1.369-2.592C51.945,96.54,51.628,94.688,51.446,93.65z"/>
			<path fill="#9B9A9A" stroke="#2A271D" stroke-width="0.75" stroke-miterlimit="10" d="M51.113,94.999
				c-0.019-0.907-0.04-1.766-0.065-2.582l-1.143-0.415c0.264,2.094,0.428,4.521,0.528,7.769
				C50.952,98.26,51.143,96.38,51.113,94.999z"/>
			<path fill="#9B9A9A" stroke="#2A271D" stroke-width="0.75" stroke-miterlimit="10" d="M52.145,97.672
				c-0.003,0.006-0.006,0.013-0.01,0.021c0.07,0.428,0.122,0.754,0.143,0.907l0.022-0.024L52.145,97.672z"/>
			<path fill="#9B9A9A" stroke="#2A271D" stroke-width="0.75" stroke-miterlimit="10" d="M52.145,97.672l-0.698-4.022
				c0.182,1.038,0.499,2.889,0.688,4.042C52.139,97.686,52.142,97.679,52.145,97.672z"/>
			<path fill="#9B9A9A" stroke="#2A271D" stroke-width="0.75" stroke-miterlimit="10" d="M30.45,103.896l0.08,0.375
				c0.001,0,0.098,0.028,0.24,0.069c-0.026-0.075-0.053-0.153-0.078-0.226C30.61,104.046,30.53,103.972,30.45,103.896z"/>
			<path fill="#9B9A9A" stroke="#2A271D" stroke-width="0.75" stroke-miterlimit="10" d="M30.691,104.114
				c-0.177-0.51-0.345-0.994-0.507-1.465l0.266,1.248C30.53,103.972,30.61,104.046,30.691,104.114z"/>
			
				<rect x="30.297" y="104.083" transform="matrix(-0.2074 -0.9783 0.9783 -0.2074 -65.0099 155.492)" fill="#9B9A9A" stroke="#2A271D" stroke-width="0.75" stroke-miterlimit="10" width="0.384" height="0.001"/>
			<polygon fill="#9B9A9A" stroke="#2A271D" stroke-width="0.75" stroke-miterlimit="10" points="30.184,102.649 30.181,102.642 
				30.449,103.896 30.45,103.896 			"/>
			<path fill="#9B9A9A" stroke="#2A271D" stroke-width="0.75" stroke-miterlimit="10" d="M26.167,76.961
				c-0.425-2.246-1.026-5.383-1.616-8.376l-1.827,0.295l-0.161,0.026l3.368,14.472c-0.047-0.679-0.093-1.393-0.141-2.158
				C25.689,79.604,25.778,78.084,26.167,76.961z"/>
			<path fill="#9B9A9A" stroke="#2A271D" stroke-width="0.75" stroke-miterlimit="10" d="M33.226,74.282
				c-0.361-2.043-0.805-4.515-1.241-6.896l-0.63,0.102l-4.729,0.762c0.613,2.346,1.251,4.792,1.776,6.816L33.226,74.282z"/>
			<path fill="#9B9A9A" stroke="#2A271D" stroke-width="0.75" stroke-miterlimit="10" d="M40.625,73.083
				c-0.334-2.044-0.744-4.519-1.149-6.901l-4.652,0.748l-0.754,0.122c0.582,2.347,1.188,4.795,1.686,6.821L40.625,73.083z"/>
			<path fill="#9B9A9A" stroke="#2A271D" stroke-width="0.75" stroke-miterlimit="10" d="M43.31,73.286
				c0.892,0.533,1.663,1.636,2.356,3.373l-2.182-11.121l-1.914,0.308C42.178,68.436,42.813,71.153,43.31,73.286z"/>
			<path fill="#9B9A9A" stroke="#2A271D" stroke-width="0.75" stroke-miterlimit="10" d="M17.551,35.966l-2.07,0.323
				c0.333,1.287,0.896,3.643,1.563,6.516c0.238-2.061,0.458-4.151,0.653-6.275C17.642,36.316,17.591,36.123,17.551,35.966z"/>
			<path fill="#9B9A9A" stroke="#2A271D" stroke-width="0.75" stroke-miterlimit="10" d="M23.433,63.067
				c-0.256-1.22-0.472-2.213-0.616-2.816l1.21-0.194c-2.166-8.144-5.367-19.87-6.329-23.527c-0.196,2.125-0.416,4.215-0.653,6.275
				c1.522,6.643,3.571,16.063,4.741,21.575C22.174,63.708,22.714,63.246,23.433,63.067z"/>
			<path fill="#9B9A9A" stroke="#2A271D" stroke-width="0.75" stroke-miterlimit="10" d="M23.615,63.946
				c-0.063-0.305-0.124-0.596-0.183-0.878c-0.719,0.178-1.258,0.641-1.647,1.313c0.117,0.558,0.225,1.069,0.323,1.541
				C22.552,65.208,23.056,64.549,23.615,63.946z"/>
			<path fill="#9B9A9A" stroke="#2A271D" stroke-width="0.75" stroke-miterlimit="10" d="M23.615,63.946
				c-0.559,0.603-1.063,1.262-1.507,1.975c0.381,1.829,0.615,2.959,0.615,2.959l1.827-0.295
				C24.224,66.935,23.901,65.332,23.615,63.946z"/>
			<path fill="#9B9A9A" stroke="#2A271D" stroke-width="0.75" stroke-miterlimit="10" d="M36.074,33.091l-2.091,0.323
				c0.113,0.498,0.258,1.162,0.423,1.946c1.185,1.906,2.369,3.774,3.551,5.606C37.063,37.278,36.343,34.295,36.074,33.091z"/>
			<path fill="#9B9A9A" stroke="#2A271D" stroke-width="0.75" stroke-miterlimit="10" d="M39.641,57.568
				c0.104,0.5,0.334,1.499,0.64,2.792c0.868-0.115,1.654,0.078,2.376,0.593c-1.187-5.144-3.184-13.621-4.699-19.986
				c-1.182-1.832-2.366-3.7-3.551-5.606c1.042,4.978,2.969,15.089,4.305,22.355L39.641,57.568z"/>
			<path fill="#9B9A9A" stroke="#2A271D" stroke-width="0.75" stroke-miterlimit="10" d="M40.28,60.36
				c0.064,0.279,0.135,0.575,0.205,0.878c0.91,0.453,1.784,0.999,2.61,1.644c-0.13-0.569-0.278-1.219-0.439-1.929
				C41.935,60.438,41.148,60.246,40.28,60.36z"/>
			<path fill="#9B9A9A" stroke="#2A271D" stroke-width="0.75" stroke-miterlimit="10" d="M43.484,65.538l0.204-0.032
				c0,0-0.224-0.989-0.593-2.624c-0.826-0.645-1.7-1.19-2.61-1.644c0.32,1.363,0.696,2.957,1.085,4.607L43.484,65.538z"/>
			<path fill="#9B9A9A" stroke="#2A271D" stroke-width="0.75" stroke-miterlimit="10" d="M30.362,59.046l1.667-0.266
				c0.049,0.223,0.128,0.553,0.227,0.958c0.266-0.026,0.532-0.05,0.8-0.063c-2.15-8.613-5.65-22.185-6.354-25.131l-2.08,0.323
				c0.922,3.804,3.635,16.883,5.31,25.281c0.209-0.056,0.425-0.096,0.637-0.143C30.49,59.626,30.419,59.299,30.362,59.046z"/>
			<path fill="#9B9A9A" stroke="#2A271D" stroke-width="0.75" stroke-miterlimit="10" d="M30.937,61.847
				c-0.137-0.701-0.262-1.324-0.369-1.842c-0.212,0.047-0.428,0.086-0.637,0.143c0.125,0.63,0.242,1.233,0.354,1.804L30.937,61.847z
				"/>
			<path fill="#9B9A9A" stroke="#2A271D" stroke-width="0.75" stroke-miterlimit="10" d="M32.704,61.564l0.784-0.125
				c-0.136-0.557-0.282-1.151-0.433-1.764c-0.268,0.012-0.534,0.036-0.8,0.063C32.376,60.236,32.527,60.852,32.704,61.564z"/>
			<path fill="#9B9A9A" stroke="#2A271D" stroke-width="0.75" stroke-miterlimit="10" d="M31.984,67.386
				c-0.373-2.022-0.74-3.972-1.047-5.54l-0.652,0.104c0.643,3.306,1.069,5.537,1.069,5.537L31.984,67.386z"/>
			<path fill="#9B9A9A" stroke="#2A271D" stroke-width="0.75" stroke-miterlimit="10" d="M34.823,66.929c0,0-0.535-2.212-1.335-5.49
				l-0.784,0.125c0.377,1.527,0.862,3.468,1.365,5.486L34.823,66.929z"/>
			<path fill="#9B9A9A" stroke="#2A271D" stroke-width="0.75" stroke-miterlimit="10" d="M35.311,110.155
				c-0.546-0.146-1.003-0.273-1.327-0.366C34.407,110.06,34.852,110.193,35.311,110.155z"/>
			<path fill="#9B9A9A" stroke="#2A271D" stroke-width="0.75" stroke-miterlimit="10" d="M48.144,107.998
				c0.475-0.081,0.863-0.391,1.178-0.838c-0.272,0.197-0.684,0.491-1.187,0.839L48.144,107.998z"/>
			<path fill="#9B9A9A" stroke="#2A271D" stroke-width="0.75" stroke-miterlimit="10" d="M48.959,102.772l0.675,3.853
				c0.656-1.331,0.886-3.332,0.856-4.726c-0.008-0.388-0.019-0.766-0.026-1.134C49.997,101.48,49.492,102.149,48.959,102.772z"/>
			<path fill="#9B9A9A" stroke="#2A271D" stroke-width="0.75" stroke-miterlimit="10" d="M30.9,104.719
				c0.052,0.15,0.102,0.295,0.155,0.448c0.596,1.728,1.41,3.261,2.35,4.162l-0.729-3.523
				C32.077,105.482,31.484,105.118,30.9,104.719z"/>
			<path fill="#9B9A9A" stroke="#2A271D" stroke-width="0.75" stroke-miterlimit="10" d="M32.677,105.806l-0.19-0.911
				c-0.457-0.018-0.902-0.176-1.332-0.445c-0.159-0.045-0.287-0.081-0.386-0.109c0.043,0.125,0.088,0.252,0.131,0.379
				C31.484,105.118,32.077,105.482,32.677,105.806z"/>
			<path fill="#9B9A9A" stroke="#2A271D" stroke-width="0.75" stroke-miterlimit="10" d="M50.132,100.994l-0.004-0.016
				c0,0-0.167,0.122-0.435,0.313c-0.247,0.346-0.533,0.614-0.856,0.792l0.122,0.689c0.533-0.623,1.038-1.292,1.505-2.007
				c-0.002-0.047-0.003-0.091-0.005-0.138L50.132,100.994z"/>
			<path fill="#9B9A9A" stroke="#2A271D" stroke-width="0.75" stroke-miterlimit="10" d="M48.837,102.083
				c0.323-0.178,0.609-0.446,0.856-0.792c-0.224,0.16-0.524,0.372-0.886,0.624L48.837,102.083z"/>
			<path fill="#9B9A9A" stroke="#2A271D" stroke-width="0.75" stroke-miterlimit="10" d="M25.931,83.378
				c0.224,3.247,0.463,5.597,0.879,7.832l0.85-0.141L25.931,83.378z"/>
			<path fill="#9B9A9A" stroke="#2A271D" stroke-width="0.75" stroke-miterlimit="10" d="M31.155,104.449
				c0.429,0.269,0.875,0.427,1.332,0.445l-0.018-0.085C31.933,104.666,31.489,104.543,31.155,104.449z"/>
			<path fill="#9B9A9A" stroke="#2A271D" stroke-width="0.75" stroke-miterlimit="10" d="M27.661,91.069l-0.85,0.141
				c0.252,1.363,0.569,2.687,0.989,4.146l0.681-0.575L27.661,91.069z"/>
			<path fill="#9B9A9A" stroke="#2A271D" stroke-width="0.75" stroke-miterlimit="10" d="M48.894,87.561l-1.14,0.188l0.68,3.721
				l1.472,0.533c-0.593-4.615-1.688-7.597-3.791-14.1c-0.146-0.446-0.295-0.858-0.448-1.243l2.088,11.09L48.894,87.561z"/>
			<path fill="#9B9A9A" stroke="#2A271D" stroke-width="0.75" stroke-miterlimit="10" d="M28.67,95.656L28.67,95.656l-0.19-0.875
				l-0.681,0.575c0.574,2.01,1.339,4.286,2.382,7.287L28.67,95.656z"/>
			<path fill="#9B9A9A" stroke="#2A271D" stroke-width="0.75" stroke-miterlimit="10" d="M50.128,100.979l0.004,0.016l0.327-0.367
				c-0.007-0.291-0.016-0.577-0.025-0.856c-0.106,0.313-0.226,0.607-0.361,0.88L50.128,100.979z"/>
			<path fill="#9B9A9A" stroke="#2A271D" stroke-width="0.75" stroke-miterlimit="10" d="M48.593,92.345l0.004,0.022l1.476,8.284
				c0.136-0.272,0.255-0.567,0.361-0.88c-0.101-3.248-0.265-5.675-0.528-7.769l-1.472-0.533L48.593,92.345z"/>
			<path fill="#9B9A9A" stroke="#2A271D" stroke-width="0.75" stroke-miterlimit="10" d="M30.691,104.114
				c0.025,0.073,0.052,0.151,0.078,0.226c0.099,0.028,0.227,0.064,0.386,0.109C30.998,104.351,30.843,104.241,30.691,104.114z"/>
			<path fill="#9B9A9A" stroke="#2A271D" stroke-width="0.75" stroke-miterlimit="10" d="M49.693,101.292
				c0.268-0.191,0.435-0.313,0.435-0.313l-0.056-0.328C49.957,100.883,49.83,101.099,49.693,101.292z"/>
			<path fill="#9B9A9A" stroke="#2A271D" stroke-width="0.75" stroke-miterlimit="10" d="M48.597,92.367l-1.468,0.243l1.281,7.07
				l0.003,0.018l0.395,2.218c0.361-0.252,0.662-0.464,0.886-0.624c0.137-0.193,0.264-0.409,0.379-0.641L48.597,92.367z"/>
			<path fill="#9B9A9A" stroke="#2A271D" stroke-width="0.75" stroke-miterlimit="10" d="M31.976,102.453l-0.003-0.017l-1.502-7.057
				l-1.794,0.299l1.508,6.971c0.163,0.472,0.33,0.955,0.507,1.465c0.152,0.127,0.307,0.236,0.464,0.335
				c0.334,0.094,0.778,0.216,1.314,0.36L31.976,102.453z"/>
			<polygon fill="#9B9A9A" stroke="#2A271D" stroke-width="0.75" stroke-miterlimit="10" points="28.67,95.656 30.181,102.642 
				30.184,102.649 28.676,95.678 28.671,95.655 			"/>
			<path fill="#9B9A9A" stroke="#2A271D" stroke-width="0.75" stroke-miterlimit="10" d="M29.471,90.769l-2.384-10.713l-0.332,0.054
				c0,0-0.234-1.259-0.589-3.148c-0.388,1.123-0.477,2.643-0.376,4.259c0.047,0.765,0.094,1.479,0.141,2.158l1.729,7.691
				L29.471,90.769z"/>
			<path fill="#9B9A9A" stroke="#2A271D" stroke-width="0.75" stroke-miterlimit="10" d="M36.874,78.457l4.497-0.733
				c0,0-0.31-1.946-0.746-4.641l-4.87,0.79C36.404,76.528,36.874,78.457,36.874,78.457z"/>
			<path fill="#9B9A9A" stroke="#2A271D" stroke-width="0.75" stroke-miterlimit="10" d="M43.31,73.286
				c0.537,2.337,0.914,3.974,0.914,3.974l2.049,10.732l1.481-0.244l-2.088-11.09C44.973,74.922,44.201,73.819,43.31,73.286z"/>
			<polygon fill="#9B9A9A" stroke="#2A271D" stroke-width="0.75" stroke-miterlimit="10" points="29.471,90.769 27.661,91.069 
				28.48,94.781 28.671,95.655 30.466,95.356 			"/>
			<polygon fill="#9B9A9A" stroke="#2A271D" stroke-width="0.75" stroke-miterlimit="10" points="48.593,92.345 48.434,91.469 
				47.754,87.749 46.272,87.992 47.124,92.589 			"/>
			<path fill="#9B9A9A" stroke="#2A271D" stroke-width="0.75" stroke-miterlimit="10" d="M28.402,75.066
				c0.684,2.654,1.18,4.581,1.18,4.581l4.453-0.727c0,0-0.335-1.945-0.809-4.638L28.402,75.066z"/>
			
				<rect x="47.117" y="92.466" transform="matrix(-0.9866 0.1631 -0.1631 -0.9866 110.1657 175.9093)" fill="#9B9A9A" stroke="#2A271D" stroke-width="0.75" stroke-miterlimit="10" width="1.488" height="0.022"/>
			
				<rect x="28.661" y="95.505" fill="#9B9A9A" stroke="#2A271D" stroke-width="0.75" stroke-miterlimit="10" width="1.819" height="0.023"/>
			<path fill="#9B9A9A" stroke="#2A271D" stroke-width="0.75" stroke-miterlimit="10" d="M35.311,110.155
				c2.161,0.579,5.608,1.412,6.897,1.193c1.284-0.218,4.138-2.103,5.927-3.349l-12.659,2.144
				C35.421,110.152,35.365,110.151,35.311,110.155z"/>
			<path fill="#9B9A9A" stroke="#2A271D" stroke-width="0.75" stroke-miterlimit="10" d="M33.405,109.329l0.063,0.312
				c0,0,0.198,0.059,0.515,0.148C33.786,109.664,33.593,109.509,33.405,109.329z"/>
			<path fill="#9B9A9A" stroke="#2A271D" stroke-width="0.75" stroke-miterlimit="10" d="M49.682,106.899l-0.048-0.273
				c-0.095,0.193-0.198,0.374-0.313,0.534C49.543,107,49.682,106.899,49.682,106.899z"/>
			<path fill="#9B9A9A" stroke="#2A271D" stroke-width="0.75" stroke-miterlimit="10" d="M41.234,107.523
				c-2.775,0.469-5.743-0.195-8.558-1.717l0.729,3.523c0.188,0.18,0.381,0.335,0.578,0.46c0.324,0.093,0.781,0.22,1.327,0.366
				c0.055-0.004,0.11-0.003,0.165-0.013l12.659-2.144c0.503-0.349,0.914-0.643,1.187-0.839c0.114-0.161,0.218-0.341,0.313-0.534
				l-0.675-3.853C46.808,105.302,44.146,107.031,41.234,107.523z"/>
			<path fill="#9B9A9A" stroke="#2A271D" stroke-width="0.75" stroke-miterlimit="10" d="M48.258,102.296
				c-2.162,1.491-5.61,3.749-7.16,4.011c-1.558,0.263-5.728-0.731-8.341-1.422c-0.09,0.008-0.181,0.014-0.271,0.01l0.19,0.911
				c2.814,1.522,5.782,2.187,8.558,1.717c2.912-0.492,5.573-2.221,7.725-4.75l-0.122-0.689c-0.18,0.099-0.366,0.176-0.57,0.211
				L48.258,102.296z"/>
			<path fill="#9B9A9A" stroke="#2A271D" stroke-width="0.75" stroke-miterlimit="10" d="M48.258,102.296l0.009-0.001
				c0.204-0.035,0.391-0.112,0.57-0.211l-0.029-0.167C48.636,102.035,48.454,102.161,48.258,102.296z"/>
			<path fill="#9B9A9A" stroke="#2A271D" stroke-width="0.75" stroke-miterlimit="10" d="M32.469,104.809l0.018,0.085
				c0.09,0.003,0.181-0.002,0.271-0.01C32.66,104.859,32.561,104.833,32.469,104.809z"/>
			<path fill="#9B9A9A" stroke="#2A271D" stroke-width="0.75" stroke-miterlimit="10" d="M32.757,104.884
				c2.613,0.691,6.783,1.685,8.341,1.422c1.55-0.262,4.998-2.52,7.16-4.011l-15.301,2.573
				C32.89,104.88,32.823,104.879,32.757,104.884z"/>
			<path fill="#9B9A9A" stroke="#2A271D" stroke-width="0.75" stroke-miterlimit="10" d="M32.469,104.809
				c0.092,0.024,0.191,0.05,0.288,0.075c0.066-0.005,0.133-0.004,0.2-0.015l15.301-2.573c0.196-0.135,0.378-0.261,0.55-0.38
				l-0.395-2.218l-16.438,2.755L32.469,104.809z"/>
			<polygon fill="#9B9A9A" stroke="#2A271D" stroke-width="0.75" stroke-miterlimit="10" points="31.972,102.436 48.41,99.68 
				47.129,92.61 30.47,95.378 			"/>
			<polygon fill="#9B9A9A" stroke="#2A271D" stroke-width="0.75" stroke-miterlimit="10" points="30.466,95.356 47.124,92.589 
				46.272,87.992 29.471,90.769 			"/>
			<polygon fill="#9B9A9A" stroke="#2A271D" stroke-width="0.75" stroke-miterlimit="10" points="36.874,78.457 34.034,78.92 
				29.582,79.647 27.087,80.056 29.471,90.769 46.272,87.992 44.224,77.26 41.371,77.724 			"/>
			
				<rect x="30.354" y="93.972" fill="#9B9A9A" stroke="#2A271D" stroke-width="0.75" stroke-miterlimit="10" width="16.887" height="0.022"/>
			
				<rect x="31.859" y="101.057" transform="matrix(-0.9862 0.1653 -0.1653 -0.9862 96.5384 194.0991)" fill="#9B9A9A" stroke="#2A271D" stroke-width="0.75" stroke-miterlimit="10" width="16.667" height="0.018"/>
			<path fill="#9B9A9A" stroke="#2A271D" stroke-width="0.75" stroke-miterlimit="10" d="M24.785,62.833
				c0.115-0.097,0.225-0.202,0.343-0.294c-0.308-1.175-0.541-2.086-0.651-2.553l-0.45,0.072c0.258,0.985,0.503,1.922,0.728,2.78
				L24.785,62.833z"/>
			<path fill="#9B9A9A" stroke="#2A271D" stroke-width="0.75" stroke-miterlimit="10" d="M25.188,62.768
				c-0.021-0.08-0.04-0.152-0.06-0.23c-0.119,0.093-0.228,0.198-0.343,0.294L25.188,62.768z"/>
			<path fill="#9B9A9A" stroke="#2A271D" stroke-width="0.75" stroke-miterlimit="10" d="M24.754,62.837
				c0.001,0.006,0.003,0.012,0.005,0.018c0.008-0.007,0.017-0.016,0.026-0.023L24.754,62.837z"/>
			<path fill="#9B9A9A" stroke="#2A271D" stroke-width="0.75" stroke-miterlimit="10" d="M26.626,68.25
				c-0.53-2.017-1.041-3.956-1.438-5.482l-0.403,0.064c-0.009,0.007-0.018,0.016-0.026,0.023c0.846,3.265,1.415,5.468,1.415,5.468
				L26.626,68.25z"/>
			<path fill="#9B9A9A" stroke="#2A271D" stroke-width="0.75" stroke-miterlimit="10" d="M28.002,75.131l0.4-0.065
				c-0.525-2.024-1.163-4.47-1.776-6.816l-0.453,0.073l-1.623,0.262c0.59,2.994,1.191,6.131,1.616,8.376
				C26.512,75.964,27.096,75.279,28.002,75.131z"/>
			<path fill="#9B9A9A" stroke="#2A271D" stroke-width="0.75" stroke-miterlimit="10" d="M24.754,62.837
				c-0.224-0.858-0.469-1.795-0.728-2.78l-1.21,0.194c0.144,0.603,0.36,1.596,0.616,2.816c0.07-0.017,0.136-0.04,0.208-0.051
				L24.754,62.837z"/>
			<path fill="#9B9A9A" stroke="#2A271D" stroke-width="0.75" stroke-miterlimit="10" d="M24.759,62.855
				c-0.002-0.006-0.003-0.012-0.005-0.018l-1.113,0.179c-0.072,0.011-0.139,0.034-0.208,0.051c0.059,0.282,0.12,0.574,0.183,0.878
				C23.976,63.558,24.356,63.195,24.759,62.855z"/>
			<path fill="#9B9A9A" stroke="#2A271D" stroke-width="0.75" stroke-miterlimit="10" d="M26.173,68.323
				c0,0-0.568-2.203-1.415-5.468c-0.402,0.339-0.783,0.703-1.144,1.09c0.286,1.386,0.608,2.989,0.936,4.639L26.173,68.323z"/>
			<path fill="#9B9A9A" stroke="#2A271D" stroke-width="0.75" stroke-miterlimit="10" d="M28.402,75.066l-0.4,0.065
				c-0.906,0.147-1.49,0.833-1.835,1.83c0.354,1.89,0.589,3.148,0.589,3.148l0.332-0.054l2.495-0.409
				C29.582,79.647,29.086,77.72,28.402,75.066z"/>
			<path fill="#9B9A9A" stroke="#2A271D" stroke-width="0.75" stroke-miterlimit="10" d="M35.755,73.872
				c-0.497-2.026-1.104-4.475-1.686-6.821l-2.085,0.335c0.437,2.381,0.88,4.853,1.241,6.896L35.755,73.872z"/>
			<path fill="#9B9A9A" stroke="#2A271D" stroke-width="0.75" stroke-miterlimit="10" d="M32.256,59.737
				c-0.099-0.404-0.177-0.734-0.227-0.958l-1.667,0.266c0.057,0.253,0.127,0.581,0.206,0.958c0.261-0.057,0.519-0.123,0.784-0.165
				C31.653,59.791,31.954,59.768,32.256,59.737z"/>
			<path fill="#9B9A9A" stroke="#2A271D" stroke-width="0.75" stroke-miterlimit="10" d="M32.256,59.737
				c-0.302,0.03-0.603,0.054-0.903,0.102c-0.265,0.042-0.523,0.108-0.784,0.165c0.107,0.518,0.232,1.141,0.369,1.842l1.767-0.282
				C32.527,60.852,32.376,60.236,32.256,59.737z"/>
			<path fill="#9B9A9A" stroke="#2A271D" stroke-width="0.75" stroke-miterlimit="10" d="M34.069,67.051
				c-0.503-2.019-0.988-3.959-1.365-5.486l-1.767,0.282c0.307,1.567,0.675,3.518,1.047,5.54L34.069,67.051z"/>
			<path fill="#9B9A9A" stroke="#2A271D" stroke-width="0.75" stroke-miterlimit="10" d="M33.226,74.282
				c0.474,2.692,0.809,4.638,0.809,4.638l2.84-0.463c0,0-0.47-1.929-1.119-4.584L33.226,74.282z"/>
			<path fill="#9B9A9A" stroke="#2A271D" stroke-width="0.75" stroke-miterlimit="10" d="M39.219,60.524
				c-0.157-0.868-0.326-1.812-0.508-2.808l-0.746,0.118c0.12,0.562,0.292,1.459,0.496,2.565c0.155,0.051,0.31,0.114,0.464,0.17
				L39.219,60.524z"/>
			<path fill="#9B9A9A" stroke="#2A271D" stroke-width="0.75" stroke-miterlimit="10" d="M38.925,60.57
				c-0.154-0.056-0.309-0.119-0.464-0.17c0.014,0.077,0.028,0.158,0.042,0.238L38.925,60.57z"/>
			<path fill="#9B9A9A" stroke="#2A271D" stroke-width="0.75" stroke-miterlimit="10" d="M39.219,60.524l-0.294,0.046
				c0.108,0.04,0.217,0.077,0.324,0.119C39.239,60.636,39.229,60.578,39.219,60.524z"/>
			<path fill="#9B9A9A" stroke="#2A271D" stroke-width="0.75" stroke-miterlimit="10" d="M40.2,66.065c0,0-0.377-2.156-0.951-5.376
				c-0.107-0.042-0.216-0.079-0.324-0.119l-0.422,0.067c0.286,1.569,0.627,3.521,0.973,5.543L40.2,66.065z"/>
			<path fill="#9B9A9A" stroke="#2A271D" stroke-width="0.75" stroke-miterlimit="10" d="M40.625,73.083l0.901-0.145
				c0.648-0.105,1.235,0.022,1.783,0.349c-0.497-2.133-1.132-4.85-1.739-7.44l-1.37,0.219l-0.725,0.116
				C39.881,68.564,40.291,71.038,40.625,73.083z"/>
			<path fill="#9B9A9A" stroke="#2A271D" stroke-width="0.75" stroke-miterlimit="10" d="M40.176,60.371
				c0.035-0.006,0.068-0.006,0.104-0.011c-0.306-1.293-0.535-2.292-0.64-2.792l-0.93,0.148c0.182,0.996,0.351,1.939,0.508,2.808
				L40.176,60.371z"/>
			<path fill="#9B9A9A" stroke="#2A271D" stroke-width="0.75" stroke-miterlimit="10" d="M39.219,60.524
				c0.01,0.054,0.021,0.112,0.03,0.165c0.419,0.164,0.83,0.348,1.236,0.55c-0.07-0.304-0.141-0.6-0.205-0.878
				c-0.036,0.005-0.069,0.005-0.104,0.011L39.219,60.524z"/>
			<path fill="#9B9A9A" stroke="#2A271D" stroke-width="0.75" stroke-miterlimit="10" d="M40.2,66.065l1.37-0.219
				c-0.389-1.65-0.765-3.244-1.085-4.607c-0.406-0.202-0.817-0.386-1.236-0.55C39.823,63.909,40.2,66.065,40.2,66.065z"/>
			<path fill="#9B9A9A" stroke="#2A271D" stroke-width="0.75" stroke-miterlimit="10" d="M40.625,73.083
				c0.437,2.695,0.746,4.641,0.746,4.641l2.853-0.464c0,0-0.377-1.637-0.914-3.974c-0.548-0.327-1.135-0.454-1.783-0.349
				L40.625,73.083z"/>
			<polygon fill="#9B9A9A" stroke="#2A271D" stroke-width="0.75" stroke-miterlimit="10" points="39.848,153.395 41.865,149.825 
				40.006,150.159 			"/>
		</g>
	</g>
	<g>
		<g>
			<polygon fill="#9B9A9A" stroke="#2A271D" stroke-width="0.75" stroke-miterlimit="10" points="61.418,182.028 61.219,185.355 
				47.047,183.735 42.229,188.376 61.622,190.567 67.36,187.081 64.563,179.954 			"/>
			<polygon fill="#9B9A9A" stroke="#2A271D" stroke-width="0.75" stroke-miterlimit="10" points="41.883,183.143 38.829,182.791 
				35.963,186.617 37.235,187.81 40.199,188.146 			"/>
			<path fill="#9B9A9A" stroke="#2A271D" stroke-width="0.75" stroke-miterlimit="10" d="M72.679,187.638l-2.007,7.688l-3.312-8.245
				l-5.738,3.486l-3.499,52.098l-26.322-2.619l5.434-52.236l-1.272-1.192l-5.882,7.722l-6.023-19.122l-1.447-1.416l-5.567,24.429
				l-1.469-5.034C8.519,240.104,0.274,295.97,2.132,300.924c2.325,6.097,20.186,17.495,33.787,27.41
				c15.994-8.82,35.862-15.626,39.506-21.133c2.978-4.56,5.937-62.091,6.956-109.336L72.679,187.638z M17.097,210.27
				c0.496-3.845,3.856-6.638,7.512-6.236c3.661,0.4,6.292,3.838,5.873,7.678c-0.424,3.84-3.801,6.632-7.537,6.236
				C19.212,217.554,16.597,214.115,17.097,210.27z M73.022,276.031l-0.027-0.003c-1.293,11.302-2.741,23.648-2.969,26.211
				l-33.253,19.588L8.341,296.958c0.866-5.813,4.439-47.145,4.439-47.145l25.366,2.497l0.251-2.435l11.767,1.146l-0.212,2.44
				l25.231,2.444c0,0-1.035,9.608-2.188,20.121L73.022,276.031z M70.368,222.913c-3.78-0.392-6.648-3.811-6.414-7.637
				c0.232-3.827,3.418-6.607,7.123-6.21c3.709,0.397,6.596,3.817,6.439,7.638C77.356,220.526,74.152,223.306,70.368,222.913z"/>
			<path fill="#9B9A9A" stroke="#2A271D" stroke-width="0.75" stroke-miterlimit="10" d="M59.641,275.159
				c-0.519,2.062-2.493,3.402-3.074,6.113c-0.472,2.184-1.522,4.004-2.982,5.453c-0.573,1.563-1.349,2.568-2.376,3.065
				c-0.829,6.111-2.536,18.508-2.774,20.979l-2.738-0.23c0.306-3.056,0.829-14.045,1.104-20.246
				c-1.368,0.322-2.813,0.494-4.302,0.513c-0.949,6.476-2.508,16.979-2.751,19.231l-2.733-0.23
				c0.323-2.914,0.926-13.038,1.282-19.354c-1.514-0.283-2.97-0.73-4.317-1.33c-1.002,6.353-2.83,17.799-3.112,20.165l-2.729-0.23
				c0.4-3.27,1.254-15.613,1.643-21.484c-0.646-0.674-1.08-1.612-1.348-2.671c-1.36-1.807-2.113-3.951-1.953-6.356
				c0.146-2.178-1.898-4.277-2.001-6.624c-0.005-0.118-0.001-0.234-0.002-0.352l-13.484-1.255l13.484,1.255
				c-0.023-1.737,0.339-3.406,1.008-4.962l-1.145,0.124c-0.166-1.482-0.299-2.087-0.25-3.943c0.227-1.834,0.541-2.607,0.541-2.607
				l5.498-0.173c-0.002,0.009-0.005,0.028-0.006,0.041l1.963-0.826c1.711-1.068,3.61-1.884,5.59-2.382l0.471-4.53l-25.366-2.497
				c0,0-3.574,41.332-4.439,47.145l28.432,24.869l33.253-19.588c0.228-2.563,1.676-14.909,2.969-26.211l-13.28-1.211
				C59.689,274.932,59.67,275.045,59.641,275.159z"/>
			<path fill="#9B9A9A" stroke="#2A271D" stroke-width="0.75" stroke-miterlimit="10" d="M49.952,253.463l-0.396,4.516
				c1.857,0.863,3.574,2.021,5.058,3.389l1.777,1.172c-0.001-0.012,0-0.031,0.001-0.04l5.407,1.2c0,0,0.159,0.813,0.027,2.64
				c-0.313,1.816-0.566,2.379-1.021,3.792l-1.106-0.333c0.354,1.64,0.382,3.331,0.016,5.02l13.28,1.211
				c1.153-10.513,2.188-20.121,2.188-20.121L49.952,253.463z"/>
			<polygon fill="#9B9A9A" stroke="#2A271D" stroke-width="0.75" stroke-miterlimit="10" points="42.961,179.899 41.13,179.688 
				38.829,182.791 41.883,183.143 			"/>
			<polygon fill="#9B9A9A" stroke="#2A271D" stroke-width="0.75" stroke-miterlimit="10" points="60.275,170.653 59.155,181.769 
				50.133,180.729 47.047,183.735 61.219,185.355 61.418,182.028 64.563,179.954 60.798,170.127 			"/>
			<polygon fill="#3A3A3A" stroke="#2A271D" stroke-width="0.75" stroke-miterlimit="10" points="59.155,181.769 60.275,170.653 
				50.133,180.729 			"/>
			<polygon fill="#3A3A3A" stroke="#2A271D" stroke-width="0.75" stroke-miterlimit="10" points="41.13,179.688 42.961,179.899 
				44.573,174.991 			"/>
			<path fill="#9B9A9A" stroke="#2A271D" stroke-width="0.75" stroke-miterlimit="10" d="M39.107,191.351l-0.148,0.433l-0.274-0.031
				L39.107,191.351l1.092-3.205l-2.964-0.336l-5.434,52.236l26.322,2.619l3.499-52.098l-19.393-2.191L39.107,191.351z
				 M38.038,208.514l19.445,2.091l-0.803,11.247l-19.768-2.067L38.038,208.514z M55.648,236.024l-20.175-2.039l1.167-11.273
				l19.852,2.062L55.648,236.024z M57.955,207.49l-19.356-2.097l1.078-11.268l19.034,2.12L57.955,207.49z"/>
			<polygon fill="#9B9A9A" stroke="#2A271D" stroke-width="0.75" stroke-miterlimit="10" points="38.959,191.783 39.107,191.351 
				38.685,191.752 			"/>
			<polygon fill="#3A3A3A" stroke="#2A271D" stroke-width="0.75" stroke-miterlimit="10" points="38.599,205.394 57.955,207.49 
				58.711,196.246 39.677,194.126 			"/>
			<polygon fill="#3A3A3A" stroke="#2A271D" stroke-width="0.75" stroke-miterlimit="10" points="57.482,210.604 38.038,208.514 
				36.912,219.784 56.68,221.852 			"/>
			<polygon fill="#3A3A3A" stroke="#2A271D" stroke-width="0.75" stroke-miterlimit="10" points="35.473,233.985 55.648,236.024 
				56.492,224.773 36.64,222.712 			"/>
			<path fill="#9B9A9A" stroke="#2A271D" stroke-width="0.75" stroke-miterlimit="10" d="M22.944,217.947
				c3.736,0.396,7.113-2.396,7.537-6.236c0.42-3.84-2.212-7.277-5.873-7.678c-3.656-0.401-7.017,2.392-7.512,6.236
				C16.597,214.115,19.212,217.554,22.944,217.947z M21.138,208.577l0.033-0.261l0.118-0.958l0.283-2.306l0.718,0.347l0.012-0.093
				l-0.012,0.093l0.719,0.345l-0.214,1.776l-0.044,0.364l2.905,0.315l0.042-0.363l0.207-1.777l0.756-0.185l0.001-0.01l-0.001,0.01
				l0.753-0.184l-0.262,2.303l-0.11,0.958l-0.02,0.176c0.612,0.609,1.473,1.483,2.391,2.487c-1.787,1.158-3.983,2.584-3.983,2.584
				l-3.869-0.413c0,0-1.687-1.724-3.26-3.367C19.415,209.692,20.417,209.044,21.138,208.577z"/>
			<polygon fill="#9B9A9A" stroke="#2A271D" stroke-width="0.75" stroke-miterlimit="10" points="27.151,207.994 27.414,205.691 
				26.661,205.875 26.425,207.916 			"/>
			<polygon fill="#9B9A9A" stroke="#2A271D" stroke-width="0.75" stroke-miterlimit="10" points="22.29,205.399 21.571,205.053 
				21.289,207.358 22.042,207.439 			"/>
			<polygon fill="#9B9A9A" stroke="#2A271D" stroke-width="0.75" stroke-miterlimit="10" points="22.795,207.521 23.009,205.744 
				22.29,205.399 22.042,207.439 			"/>
			<polygon fill="#9B9A9A" stroke="#2A271D" stroke-width="0.75" stroke-miterlimit="10" points="26.661,205.875 25.905,206.06 
				25.698,207.837 26.425,207.916 			"/>
			<path fill="#9B9A9A" stroke="#2A271D" stroke-width="0.75" stroke-miterlimit="10" d="M25.43,214.199
				c0,0,2.196-1.426,3.983-2.584l-2.645-0.284l-0.047,0.41c0,0-0.007,0.747-0.799,0.678c-0.793-0.069-0.668-0.782-0.668-0.782
				l0.055-0.463l-2.918-0.314l-0.043,0.359c0,0-0.138,0.839-0.874,0.724c-0.736-0.116-0.634-0.938-0.634-0.938l0.038-0.309
				l-2.575-0.277c1.573,1.644,3.26,3.367,3.26,3.367L25.43,214.199z"/>
			<path fill="#9B9A9A" stroke="#2A271D" stroke-width="0.75" stroke-miterlimit="10" d="M21.138,208.577
				c-0.721,0.467-1.723,1.115-2.837,1.842l2.575,0.277L21.138,208.577z"/>
			<polygon fill="#9B9A9A" stroke="#2A271D" stroke-width="0.75" stroke-miterlimit="10" points="22.39,210.859 25.308,211.174 
				25.586,208.795 25.656,208.2 22.751,207.885 22.679,208.48 			"/>
			<path fill="#9B9A9A" stroke="#2A271D" stroke-width="0.75" stroke-miterlimit="10" d="M29.413,211.615
				c-0.918-1.004-1.779-1.878-2.391-2.487l-0.253,2.203L29.413,211.615z"/>
			<path fill="#9B9A9A" stroke="#2A271D" stroke-width="0.75" stroke-miterlimit="10" d="M22.751,207.885l0.044-0.364l-0.753-0.081
				v0.001v-0.001l-0.753-0.081l-0.118,0.958l-0.033,0.261c0.711-0.459,1.151-0.743,1.151-0.743L22.751,207.885z"/>
			<path fill="#9B9A9A" stroke="#2A271D" stroke-width="0.75" stroke-miterlimit="10" d="M20.838,211.005
				c0,0-0.102,0.821,0.634,0.938c0.736,0.115,0.874-0.724,0.874-0.724l0.043-0.359l-1.514-0.163L20.838,211.005z"/>
			<path fill="#9B9A9A" stroke="#2A271D" stroke-width="0.75" stroke-miterlimit="10" d="M22.39,210.859l0.289-2.379l0.072-0.596
				l-0.461-0.051c0,0-0.44,0.284-1.151,0.743l-0.262,2.119L22.39,210.859z"/>
			<path fill="#9B9A9A" stroke="#2A271D" stroke-width="0.75" stroke-miterlimit="10" d="M27.021,209.128l0.02-0.176l0.11-0.958
				l-0.726-0.078l-0.728-0.079l-0.042,0.363l0.468,0.05C26.124,208.25,26.476,208.584,27.021,209.128z"/>
			<path fill="#9B9A9A" stroke="#2A271D" stroke-width="0.75" stroke-miterlimit="10" d="M25.253,211.637
				c0,0-0.125,0.713,0.668,0.782c0.792,0.069,0.799-0.678,0.799-0.678l0.047-0.41l-1.46-0.157L25.253,211.637z"/>
			<path fill="#9B9A9A" stroke="#2A271D" stroke-width="0.75" stroke-miterlimit="10" d="M25.308,211.174l1.46,0.157l0.253-2.203
				c-0.545-0.544-0.898-0.878-0.898-0.878l-0.468-0.05l-0.069,0.595L25.308,211.174z"/>
			<polygon fill="#9B9A9A" stroke="#2A271D" stroke-width="0.75" stroke-miterlimit="10" points="69.494,212.538 69.586,210.77 
				68.84,210.426 68.731,212.457 			"/>
			<polygon fill="#9B9A9A" stroke="#2A271D" stroke-width="0.75" stroke-miterlimit="10" points="73.908,213.008 74.012,210.716 
				73.269,210.899 73.172,212.93 			"/>
			<path fill="#9B9A9A" stroke="#2A271D" stroke-width="0.75" stroke-miterlimit="10" d="M71.077,209.066
				c-3.705-0.397-6.891,2.383-7.123,6.21c-0.234,3.826,2.634,7.245,6.414,7.637c3.784,0.393,6.988-2.387,7.148-6.209
				C77.673,212.884,74.786,209.464,71.077,209.066z M72.606,219.182l-3.918-0.41c0,0-1.816-1.714-3.513-3.349
				c1.071-0.722,2.033-1.368,2.727-1.833l0.014-0.259l0.053-0.955l0.125-2.292l0.746,0.342l0.004-0.091l-0.004,0.091l0.746,0.344
				l-0.092,1.769l-0.019,0.361l2.943,0.313l0.018-0.36l0.084-1.769l0.748-0.184l-0.001-0.01l0.001,0.01l0.743-0.184l-0.104,2.292
				l-0.043,0.954l-0.009,0.174c0.658,0.605,1.585,1.476,2.578,2.475C74.718,217.763,72.606,219.182,72.606,219.182z"/>
			<polygon fill="#9B9A9A" stroke="#2A271D" stroke-width="0.75" stroke-miterlimit="10" points="68.84,210.426 68.094,210.084 
				67.969,212.376 68.731,212.457 			"/>
			<polygon fill="#9B9A9A" stroke="#2A271D" stroke-width="0.75" stroke-miterlimit="10" points="73.269,210.899 72.521,211.083 
				72.437,212.852 73.172,212.93 			"/>
			<polygon fill="#9B9A9A" stroke="#2A271D" stroke-width="0.75" stroke-miterlimit="10" points="69.318,215.861 72.274,216.172 
				72.391,213.805 72.419,213.212 69.476,212.899 69.444,213.492 			"/>
			<path fill="#9B9A9A" stroke="#2A271D" stroke-width="0.75" stroke-miterlimit="10" d="M67.902,213.59
				c-0.693,0.465-1.655,1.111-2.727,1.833l2.61,0.277L67.902,213.59z"/>
			<path fill="#9B9A9A" stroke="#2A271D" stroke-width="0.75" stroke-miterlimit="10" d="M73.734,216.736
				c0,0,0.046,0.743-0.756,0.675c-0.804-0.07-0.726-0.78-0.726-0.78l0.021-0.459l-2.956-0.311l-0.019,0.357
				c0,0-0.08,0.833-0.828,0.719c-0.748-0.115-0.703-0.933-0.703-0.933l0.018-0.305l-2.61-0.277c1.696,1.635,3.513,3.349,3.513,3.349
				l3.918,0.41c0,0,2.111-1.419,3.828-2.571l-2.681-0.282L73.734,216.736z"/>
			<path fill="#9B9A9A" stroke="#2A271D" stroke-width="0.75" stroke-miterlimit="10" d="M73.754,216.328l2.681,0.282
				c-0.993-0.999-1.92-1.869-2.578-2.475L73.754,216.328z"/>
			<path fill="#9B9A9A" stroke="#2A271D" stroke-width="0.75" stroke-miterlimit="10" d="M69.476,212.899l0.019-0.361l-0.763-0.081
				l-0.001,0.001l0.001-0.001l-0.763-0.081l-0.053,0.955l-0.014,0.259c0.685-0.458,1.106-0.739,1.106-0.739L69.476,212.899z"/>
			<path fill="#9B9A9A" stroke="#2A271D" stroke-width="0.75" stroke-miterlimit="10" d="M67.769,216.005
				c0,0-0.045,0.817,0.703,0.933c0.748,0.114,0.828-0.719,0.828-0.719l0.019-0.357l-1.532-0.161L67.769,216.005z"/>
			<path fill="#9B9A9A" stroke="#2A271D" stroke-width="0.75" stroke-miterlimit="10" d="M69.318,215.861l0.126-2.369l0.031-0.593
				l-0.467-0.049c0,0-0.422,0.281-1.106,0.739l-0.116,2.11L69.318,215.861z"/>
			<path fill="#9B9A9A" stroke="#2A271D" stroke-width="0.75" stroke-miterlimit="10" d="M73.856,214.136l0.009-0.174l0.043-0.954
				l-0.736-0.078l-0.735-0.078l-0.018,0.36l0.474,0.05C72.893,213.262,73.271,213.594,73.856,214.136z"/>
			<path fill="#9B9A9A" stroke="#2A271D" stroke-width="0.75" stroke-miterlimit="10" d="M72.274,216.172l1.479,0.156l0.103-2.192
				c-0.586-0.542-0.964-0.874-0.964-0.874l-0.474-0.05l-0.028,0.593L72.274,216.172z"/>
			<path fill="#9B9A9A" stroke="#2A271D" stroke-width="0.75" stroke-miterlimit="10" d="M72.253,216.631c0,0-0.078,0.71,0.726,0.78
				c0.802,0.068,0.756-0.675,0.756-0.675l0.02-0.408l-1.479-0.156L72.253,216.631z"/>
			<polygon fill="#9B9A9A" stroke="#2A271D" stroke-width="0.75" stroke-miterlimit="10" points="50.164,251.022 38.397,249.876 
				38.146,252.311 49.952,253.463 			"/>
			<path fill="#9B9A9A" stroke="#2A271D" stroke-width="0.75" stroke-miterlimit="10" d="M43.712,256.357
				c2.026,0.193,4.004,0.764,5.845,1.621l0.396-4.516l-11.806-1.152l-0.471,4.53C39.641,256.347,41.688,256.163,43.712,256.357z"/>
			<path fill="#9B9A9A" stroke="#2A271D" stroke-width="0.75" stroke-miterlimit="10" d="M30.017,264.662l-0.431-0.219l0.033-0.284
				c-0.03,0.255-0.382,0.648-2.206,2.238l-1.929,0.21c-0.669,1.556-1.031,3.225-1.008,4.962l3.575,0.331
				C28.428,269.94,29.065,267.736,30.017,264.662z"/>
			<path fill="#9B9A9A" stroke="#2A271D" stroke-width="0.75" stroke-miterlimit="10" d="M27.794,273.497L27.794,273.497
				L27.794,273.497c0.066-0.523,0.151-1.05,0.257-1.597l-3.575-0.331c0.001,0.117-0.002,0.233,0.002,0.352
				c0.103,2.347,2.147,4.446,2.001,6.624c-0.161,2.405,0.592,4.55,1.953,6.356c-0.118-0.46-0.203-0.942-0.262-1.436
				C27.632,278.915,27.44,276.279,27.794,273.497z"/>
			<path fill="#9B9A9A" stroke="#2A271D" stroke-width="0.75" stroke-miterlimit="10" d="M48.467,258.659
				c1.171,0.444,2.33,0.915,3.276,1.312l0.009,0.002c0.612,0.058,1.148,0.314,1.614,0.689c0.303,0.133,0.492,0.216,0.492,0.216
				l0.001-0.01l0.755,0.499c-1.483-1.368-3.2-2.525-5.058-3.389l-0.068,0.777L48.467,258.659z"/>
			<path fill="#9B9A9A" stroke="#2A271D" stroke-width="0.75" stroke-miterlimit="10" d="M32.911,258.884
				c0,0,0.244-0.054,0.634-0.139c0.491-0.24,1.032-0.362,1.618-0.341c1.033-0.212,2.3-0.459,3.574-0.675l-1.142-0.109l0.081-0.779
				c-1.979,0.498-3.878,1.313-5.59,2.382l0.828-0.349L32.911,258.884z"/>
			<path fill="#9B9A9A" stroke="#2A271D" stroke-width="0.75" stroke-miterlimit="10" d="M53.896,285.772
				c-0.096,0.342-0.202,0.652-0.313,0.953c1.46-1.449,2.511-3.27,2.982-5.453c0.581-2.711,2.556-4.052,3.074-6.113
				c0.029-0.114,0.049-0.228,0.074-0.342l-3.351-0.307C56.22,277.994,55.344,280.588,53.896,285.772z"/>
			<path fill="#9B9A9A" stroke="#2A271D" stroke-width="0.75" stroke-miterlimit="10" d="M56.09,266.645l-0.022,0.284l-0.192,0.055
				c0.42,3.239,0.573,5.528,0.489,7.527l3.351,0.307c0.366-1.688,0.338-3.38-0.016-5.02l-1.867-0.561
				C56.339,267.348,56.069,266.899,56.09,266.645z"/>
			<path fill="#9B9A9A" stroke="#2A271D" stroke-width="0.75" stroke-miterlimit="10" d="M42.677,289.581
				c-0.056,0.39-0.116,0.799-0.179,1.225c1.489-0.019,2.934-0.19,4.302-0.513c0.005-0.114,0.011-0.235,0.017-0.346L42.677,289.581z"
				/>
			<path fill="#9B9A9A" stroke="#2A271D" stroke-width="0.75" stroke-miterlimit="10" d="M34.028,288.813
				c-0.016,0.102-0.032,0.203-0.049,0.309c1.347,0.6,2.803,1.047,4.317,1.33c0.024-0.436,0.047-0.857,0.069-1.254L34.028,288.813z"
				/>
			<path fill="#9B9A9A" stroke="#2A271D" stroke-width="0.75" stroke-miterlimit="10" d="M37.675,256.841l-0.081,0.779l1.142,0.109
				c1.992-0.338,3.972-0.596,4.992-0.498c1.02,0.098,2.884,0.724,4.738,1.428l1.021,0.097l0.068-0.777
				c-1.841-0.857-3.818-1.428-5.845-1.621C41.688,256.163,39.641,256.347,37.675,256.841z"/>
			<path fill="#9B9A9A" stroke="#2A271D" stroke-width="0.75" stroke-miterlimit="10" d="M28.433,284.901
				c0.268,1.059,0.702,1.997,1.348,2.671c0.026-0.403,0.05-0.776,0.072-1.114C29.327,285.972,28.851,285.454,28.433,284.901z"/>
			<path fill="#9B9A9A" stroke="#2A271D" stroke-width="0.75" stroke-miterlimit="10" d="M51.391,288.434
				c-0.056,0.406-0.117,0.859-0.183,1.357c1.027-0.497,1.803-1.503,2.376-3.065C52.932,287.372,52.192,287.938,51.391,288.434z"/>
			<path fill="#9B9A9A" stroke="#2A271D" stroke-width="0.75" stroke-miterlimit="10" d="M32.143,265.735l-2.126-1.073
				c-0.952,3.074-1.589,5.278-1.966,7.238l3.355,0.311L32.143,265.735z"/>
			<path fill="#9B9A9A" stroke="#2A271D" stroke-width="0.75" stroke-miterlimit="10" d="M33.545,258.745
				c0.396-0.086,0.952-0.205,1.618-0.341C34.577,258.383,34.036,258.505,33.545,258.745z"/>
			<path fill="#9B9A9A" stroke="#2A271D" stroke-width="0.75" stroke-miterlimit="10" d="M29.853,286.458
				c0.083-1.26,0.132-2.027,0.132-2.027l1.236-10.616l-3.427-0.317c-0.354,2.782-0.162,5.418,0.377,9.969
				c0.059,0.493,0.144,0.976,0.262,1.436C28.851,285.454,29.327,285.972,29.853,286.458z"/>
			<path fill="#9B9A9A" stroke="#2A271D" stroke-width="0.75" stroke-miterlimit="10" d="M52.736,274.178l3.628,0.333
				c0.084-1.999-0.069-4.288-0.489-7.527l-2.588,0.731L52.736,274.178z"/>
			<path fill="#9B9A9A" stroke="#2A271D" stroke-width="0.75" stroke-miterlimit="10" d="M28.051,271.9
				c-0.105,0.547-0.191,1.073-0.257,1.597l3.427,0.317l0.185-1.604L28.051,271.9z"/>
			<path fill="#9B9A9A" stroke="#2A271D" stroke-width="0.75" stroke-miterlimit="10" d="M56.364,274.511l-3.628-0.333l-0.139,1.599
				l3.644,0.333l-3.644-0.333l-0.932,10.595c0,0-0.105,0.783-0.275,2.063c0.802-0.495,1.541-1.062,2.193-1.708
				c0.11-0.301,0.217-0.611,0.313-0.953C55.344,280.588,56.22,277.994,56.364,274.511z"/>
			<path fill="#9B9A9A" stroke="#2A271D" stroke-width="0.75" stroke-miterlimit="10" d="M43.252,285.621c0,0-0.232,1.59-0.575,3.96
				l4.14,0.366c0.105-2.395,0.17-3.993,0.17-3.993L43.252,285.621z"/>
			<path fill="#9B9A9A" stroke="#2A271D" stroke-width="0.75" stroke-miterlimit="10" d="M51.752,259.973l-0.009-0.002
				c0.686,0.288,1.249,0.529,1.623,0.691C52.9,260.287,52.364,260.03,51.752,259.973z"/>
			<path fill="#9B9A9A" stroke="#2A271D" stroke-width="0.75" stroke-miterlimit="10" d="M34.647,284.85
				c0,0-0.249,1.592-0.619,3.964l4.336,0.385c0.132-2.396,0.215-3.997,0.215-3.997L34.647,284.85z"/>
			<path fill="#9B9A9A" stroke="#2A271D" stroke-width="0.75" stroke-miterlimit="10" d="M30.093,260.06l0.029-0.011
				c0.001-0.013,0.004-0.032,0.006-0.041l-5.498,0.173c0,0-0.314,0.773-0.541,2.607c-0.049,1.856,0.084,2.461,0.25,3.943
				l1.145-0.124c0.961-2.249,2.551-4.26,4.534-5.897L30.093,260.06z"/>
			<path fill="#9B9A9A" stroke="#2A271D" stroke-width="0.75" stroke-miterlimit="10" d="M29.619,264.159
				c0,0,0.001-0.015,0.005-0.043l0.395-3.406c-1.983,1.638-3.573,3.648-4.534,5.897l1.929-0.21
				C29.237,264.808,29.589,264.414,29.619,264.159z"/>
			<path fill="#9B9A9A" stroke="#2A271D" stroke-width="0.75" stroke-miterlimit="10" d="M32.085,259.223l-1.963,0.826
				c-0.019,0.109-0.05,0.343-0.089,0.65C30.679,260.165,31.364,259.672,32.085,259.223z"/>
			<path fill="#9B9A9A" stroke="#2A271D" stroke-width="0.75" stroke-miterlimit="10" d="M30.033,260.699
				c-0.14,1.101-0.373,3.103-0.409,3.417c-0.003,0.028-0.005,0.043-0.005,0.043l-0.033,0.284l0.431,0.219
				c0.184-0.594,0.378-1.22,0.585-1.885c0.462-1.494,1.238-2.827,2.279-3.622l0.03-0.271l0.002-0.01l-0.828,0.349
				C31.364,259.672,30.679,260.165,30.033,260.699z"/>
			<path fill="#9B9A9A" stroke="#2A271D" stroke-width="0.75" stroke-miterlimit="10" d="M32.215,265.104l0.001-0.016l0.665-5.933
				c-1.041,0.795-1.817,2.128-2.279,3.622c-0.208,0.665-0.401,1.291-0.585,1.885l2.126,1.073L32.215,265.104z"/>
			<path fill="#9B9A9A" stroke="#2A271D" stroke-width="0.75" stroke-miterlimit="10" d="M30.019,260.71
				c0.005-0.003,0.01-0.007,0.015-0.011c0.039-0.308,0.07-0.541,0.089-0.65l-0.029,0.011L30.019,260.71z"/>
			<path fill="#9B9A9A" stroke="#2A271D" stroke-width="0.75" stroke-miterlimit="10" d="M30.019,260.71l-0.395,3.406
				c0.036-0.314,0.27-2.316,0.409-3.417C30.029,260.703,30.024,260.707,30.019,260.71z"/>
			<path fill="#9B9A9A" stroke="#2A271D" stroke-width="0.75" stroke-miterlimit="10" d="M56.366,263.206
				c1.64,1.967,2.82,4.224,3.333,6.592l1.106,0.333c0.455-1.413,0.708-1.976,1.021-3.792c0.132-1.827-0.027-2.64-0.027-2.64
				l-5.407-1.2c-0.001,0.009-0.002,0.028-0.001,0.04l0.025,0.017L56.366,263.206z"/>
			<path fill="#9B9A9A" stroke="#2A271D" stroke-width="0.75" stroke-miterlimit="10" d="M56.093,266.603
				c-0.002,0.027-0.003,0.042-0.003,0.042c-0.021,0.255,0.249,0.703,1.742,2.593l1.867,0.561c-0.513-2.368-1.693-4.625-3.333-6.592
				L56.093,266.603z"/>
			<path fill="#9B9A9A" stroke="#2A271D" stroke-width="0.75" stroke-miterlimit="10" d="M56.352,263.19
				c0.021-0.308,0.036-0.541,0.04-0.651l-1.777-1.172C55.238,261.94,55.818,262.55,56.352,263.19z"/>
			<path fill="#9B9A9A" stroke="#2A271D" stroke-width="0.75" stroke-miterlimit="10" d="M53.858,260.878l-0.019,0.235
				c1.025,1.124,1.614,2.83,1.782,4.022c0.092,0.649,0.176,1.265,0.253,1.848l0.192-0.055l0.022-0.284c0,0,0.001-0.015,0.003-0.042
				c0.025-0.314,0.187-2.312,0.259-3.412c-0.533-0.641-1.113-1.25-1.737-1.823l-0.755-0.499L53.858,260.878z"/>
			<path fill="#9B9A9A" stroke="#2A271D" stroke-width="0.75" stroke-miterlimit="10" d="M53.341,267.083l-0.054,0.632l2.588-0.731
				c-0.077-0.583-0.161-1.198-0.253-1.848c-0.168-1.192-0.757-2.898-1.782-4.022l-0.497,5.955L53.341,267.083z"/>
			<path fill="#9B9A9A" stroke="#2A271D" stroke-width="0.75" stroke-miterlimit="10" d="M56.366,263.206l0.051-0.65l-0.025-0.017
				c-0.004,0.11-0.02,0.344-0.04,0.651C56.356,263.195,56.361,263.202,56.366,263.206z"/>
			<path fill="#9B9A9A" stroke="#2A271D" stroke-width="0.75" stroke-miterlimit="10" d="M56.352,263.19
				c-0.072,1.101-0.233,3.098-0.259,3.412l0.273-3.396C56.361,263.202,56.356,263.195,56.352,263.19z"/>
			<path fill="#9B9A9A" stroke="#2A271D" stroke-width="0.75" stroke-miterlimit="10" d="M35.376,258.411l16.367,1.56
				c-0.946-0.396-2.105-0.867-3.276-1.312l-9.73-0.93c-1.273,0.216-2.541,0.463-3.574,0.675
				C35.233,258.407,35.304,258.404,35.376,258.411z"/>
			<path fill="#9B9A9A" stroke="#2A271D" stroke-width="0.75" stroke-miterlimit="10" d="M32.911,258.884l-0.03,0.271
				c0.21-0.159,0.432-0.298,0.664-0.41C33.155,258.83,32.911,258.884,32.911,258.884z"/>
			<path fill="#9B9A9A" stroke="#2A271D" stroke-width="0.75" stroke-miterlimit="10" d="M53.858,260.878
				c0,0-0.189-0.083-0.492-0.216c0.166,0.135,0.324,0.286,0.474,0.451L53.858,260.878z"/>
			<path fill="#9B9A9A" stroke="#2A271D" stroke-width="0.75" stroke-miterlimit="10" d="M43.729,257.231
				c-1.021-0.098-3,0.16-4.992,0.498l9.73,0.93C46.612,257.955,44.748,257.329,43.729,257.231z"/>
			<path fill="#9B9A9A" stroke="#2A271D" stroke-width="0.75" stroke-miterlimit="10" d="M35.163,258.404
				c-0.666,0.136-1.222,0.255-1.618,0.341c-0.232,0.112-0.454,0.251-0.664,0.41l-0.665,5.933l21.126,1.98l0.497-5.955
				c-0.149-0.165-0.308-0.316-0.474-0.451c-0.374-0.162-0.938-0.403-1.623-0.691l-16.367-1.56
				C35.304,258.404,35.233,258.407,35.163,258.404z"/>
			<polygon fill="#9B9A9A" stroke="#2A271D" stroke-width="0.75" stroke-miterlimit="10" points="29.985,284.431 34.647,284.85 
				38.58,285.201 43.252,285.621 46.986,285.954 51.666,286.371 52.598,275.776 31.221,273.814 			"/>
			<polygon fill="#9B9A9A" stroke="#2A271D" stroke-width="0.75" stroke-miterlimit="10" points="53.341,267.083 32.215,265.104 
				32.143,265.735 31.406,272.211 52.736,274.178 53.287,267.715 			"/>
			<polygon fill="#9B9A9A" stroke="#2A271D" stroke-width="0.75" stroke-miterlimit="10" points="31.221,273.814 52.598,275.776 
				52.736,274.178 31.406,272.211 			"/>
			
				<rect x="32.169" y="266.078" fill="#9B9A9A" stroke="#2A271D" stroke-width="0.75" stroke-miterlimit="10" width="21.219" height="0.015"/>
			<path fill="#9B9A9A" stroke="#2A271D" stroke-width="0.75" stroke-miterlimit="10" d="M32,288.633
				c-0.924-0.082-1.652-0.469-2.219-1.061c-0.389,5.871-1.243,18.215-1.643,21.484l2.729,0.23c0.282-2.366,2.11-13.813,3.112-20.165
				c-0.271-0.122-0.538-0.251-0.801-0.384L32,288.633z"/>
			<path fill="#9B9A9A" stroke="#2A271D" stroke-width="0.75" stroke-miterlimit="10" d="M33.178,288.738
				c0.263,0.133,0.53,0.262,0.801,0.384c0.018-0.105,0.033-0.207,0.049-0.309L33.178,288.738z"/>
			<path fill="#9B9A9A" stroke="#2A271D" stroke-width="0.75" stroke-miterlimit="10" d="M33.178,288.738
				c-1.241-0.632-2.364-1.398-3.325-2.28c-0.022,0.338-0.046,0.711-0.072,1.114c0.566,0.592,1.294,0.979,2.219,1.061L33.178,288.738
				z"/>
			<path fill="#9B9A9A" stroke="#2A271D" stroke-width="0.75" stroke-miterlimit="10" d="M29.985,284.431
				c0,0-0.049,0.768-0.132,2.027c0.961,0.882,2.084,1.648,3.325,2.28l0.85,0.075c0.371-2.372,0.619-3.964,0.619-3.964
				L29.985,284.431z"/>
			<path fill="#9B9A9A" stroke="#2A271D" stroke-width="0.75" stroke-miterlimit="10" d="M47.771,290.032
				c-0.318,0.095-0.643,0.183-0.971,0.261c-0.275,6.201-0.799,17.19-1.104,20.246l2.738,0.23c0.238-2.471,1.945-14.867,2.774-20.979
				c-0.623,0.301-1.331,0.427-2.153,0.354L47.771,290.032z"/>
			<path fill="#9B9A9A" stroke="#2A271D" stroke-width="0.75" stroke-miterlimit="10" d="M46.816,289.947
				c-0.006,0.11-0.012,0.231-0.017,0.346c0.328-0.078,0.652-0.166,0.971-0.261L46.816,289.947z"/>
			<path fill="#9B9A9A" stroke="#2A271D" stroke-width="0.75" stroke-miterlimit="10" d="M47.771,290.032l1.284,0.113
				c0.822,0.072,1.53-0.054,2.153-0.354c0.065-0.498,0.127-0.951,0.183-1.357C50.294,289.108,49.077,289.643,47.771,290.032z"/>
			<path fill="#9B9A9A" stroke="#2A271D" stroke-width="0.75" stroke-miterlimit="10" d="M46.816,289.947l0.954,0.085
				c1.307-0.39,2.523-0.924,3.62-1.599c0.17-1.279,0.275-2.063,0.275-2.063l-4.68-0.417
				C46.986,285.954,46.922,287.553,46.816,289.947z"/>
			<path fill="#9B9A9A" stroke="#2A271D" stroke-width="0.75" stroke-miterlimit="10" d="M38.296,290.452
				c-0.355,6.316-0.959,16.44-1.282,19.354l2.733,0.23c0.243-2.253,1.802-12.756,2.751-19.231c-0.739,0.011-1.486-0.006-2.242-0.072
				C39.595,290.674,38.942,290.573,38.296,290.452z"/>
			<path fill="#9B9A9A" stroke="#2A271D" stroke-width="0.75" stroke-miterlimit="10" d="M38.365,289.198
				c-0.021,0.396-0.045,0.818-0.069,1.254c0.646,0.121,1.299,0.222,1.96,0.281c0.756,0.066,1.503,0.083,2.242,0.072
				c0.063-0.426,0.123-0.835,0.179-1.225L38.365,289.198z"/>
			<path fill="#9B9A9A" stroke="#2A271D" stroke-width="0.75" stroke-miterlimit="10" d="M38.58,285.201
				c0,0-0.083,1.601-0.215,3.997l4.312,0.383c0.343-2.37,0.575-3.96,0.575-3.96L38.58,285.201z"/>
		</g>
	</g>
</g>
</svg>
