<?xml version="1.0" encoding="utf-8"?>
<!-- Generator: Adobe Illustrator 16.0.0, SVG Export Plug-In . SVG Version: 6.00 Build 0)  -->
<!DOCTYPE svg PUBLIC "-//W3C//DTD SVG 1.1//EN" "http://www.w3.org/Graphics/SVG/1.1/DTD/svg11.dtd">
<svg version="1.1" id="Layer_1" xmlns="http://www.w3.org/2000/svg" xmlns:xlink="http://www.w3.org/1999/xlink" x="0px" y="0px"
	 width="85px" height="330px" viewBox="0 0 85 330" enable-background="new 0 0 85 330" xml:space="preserve">
<g>
	<path fill="#9B9A9A" stroke="#2A271D" stroke-width="0.75" stroke-miterlimit="10" d="M42.645,329.711
		c15.093-11.428,34.635-21.002,37.988-27.602c4.548-8.953,2.021-179.621,0-195.343c-0.842-6.548-27.539-51.185-37.867-105.714
		h-0.243C32.193,55.582,5.497,100.218,4.655,106.767c-2.021,15.722-4.548,186.39,0,195.343
		C8.009,308.709,27.793,319.807,42.645,329.711"/>
	<path fill="#9B9A9A" stroke="#2A271D" stroke-width="0.75" stroke-miterlimit="10" d="M74.762,296.997l-32.006,25.302
		l-32.304-25.236c0.015-6.598-2.45-53.279-2.45-53.279l69.283,0.062C77.285,243.845,74.87,291.342,74.762,296.997z"/>
	<polygon fill="#9B9A9A" stroke="#2A271D" stroke-width="0.75" stroke-miterlimit="10" points="58.104,137.027 58.771,128.166 
		26.438,128.166 27.104,137.027 3.501,136.946 3.501,142.789 28.664,161.63 28.664,165.381 56.624,165.381 56.624,161.582 
		81.787,142.789 81.787,136.946 	"/>
	<polygon fill="#3A3A3A" stroke="#2A271D" stroke-width="0.75" stroke-miterlimit="10" points="55.207,129.806 30.081,129.806 
		31.375,161.582 53.842,161.582 	"/>
	<g>
		<path fill="#9B9A9A" stroke="#2A271D" stroke-width="0.75" stroke-miterlimit="10" d="M62.15,92.74
			c1.686,15.063-8.733,28.842-19.507,28.842S21.451,107.802,23.137,92.74c0.433-3.87,2.958-7.037,3.089-10.666
			c0.407-11.285,8.298-18.176,16.418-18.175c8.36,0,15.692,6.593,16.679,18.175C59.715,86.682,61.757,89.22,62.15,92.74z"/>
		<path fill="#9B9A9A" stroke="#2A271D" stroke-width="0.75" stroke-miterlimit="10" d="M56.837,108.841
			c-0.459,3.041-2.147,8.001-4.799,8.001H33.51c-2.65,0-4.247-3.701-4.799-8.001c-2.224-17.336-2.354-19.814,0-34.672
			c0.682-4.303,2.148-8.001,4.799-8.001h18.528c2.651,0,4.128,2.554,4.799,8.001C58.668,89.027,59.453,91.505,56.837,108.841z"/>
		<g>
			<path fill="#9B9A9A" stroke="#2A271D" stroke-width="0.75" stroke-miterlimit="10" d="M27.828,113.363l-6.132-1.155
				c0,0-0.245-1.334-0.245-4.405l0,0c0.202-3.081,0.434-4.061,0.82-6.49l3.365,1.03c1.818,2.922,2.158,3.627,2.158,4.056
				C27.795,106.398,27.795,112.684,27.828,113.363z"/>
			<polygon fill="#9B9A9A" stroke="#2A271D" stroke-width="0.75" stroke-miterlimit="10" points="30.805,115.683 27.795,113.27 
				27.795,105.92 30.805,104.179 			"/>
		</g>
		<g>
			<path fill="#9B9A9A" stroke="#2A271D" stroke-width="0.75" stroke-miterlimit="10" d="M57.459,113.363l6.132-1.155
				c0,0,0.245-1.334,0.245-4.405l0,0c-0.202-3.081-0.434-4.061-0.821-6.49l-3.365,1.03c-1.818,2.922-2.158,3.627-2.158,4.056
				C57.491,106.398,57.491,112.684,57.459,113.363z"/>
			<polygon fill="#9B9A9A" stroke="#2A271D" stroke-width="0.75" stroke-miterlimit="10" points="54.482,115.683 57.491,113.27 
				57.491,105.92 54.482,104.179 			"/>
		</g>
		<path fill="#9B9A9A" stroke="#2A271D" stroke-width="0.75" stroke-miterlimit="10" d="M54.482,115.664
			c0,0-8.888,4.467-11.727,4.467c-2.84,0-11.951-4.467-11.951-4.467v-10.426h23.678V115.664z"/>
		
			<rect x="30.805" y="72.84" fill="#9B9A9A" stroke="#2A271D" stroke-width="0.75" stroke-miterlimit="10" width="23.678" height="32.424"/>
		<path fill="#9B9A9A" stroke="#2A271D" stroke-width="0.75" stroke-miterlimit="10" d="M34.913,72.84h-3.924
			c0,0,0.915-32.403,0.915-39.36h2.225C34.129,38.8,34.913,72.84,34.913,72.84z"/>
		<path fill="#9B9A9A" stroke="#2A271D" stroke-width="0.75" stroke-miterlimit="10" d="M54.711,72.84h-3.925
			c0,0,0.916-32.403,0.916-39.36h2.224C53.926,38.8,54.711,72.84,54.711,72.84z"/>
		<path fill="#9B9A9A" stroke="#2A271D" stroke-width="0.75" stroke-miterlimit="10" d="M44.718,72.84h-3.925
			c0,0,0.916-32.403,0.916-39.36h2.224C43.933,38.8,44.718,72.84,44.718,72.84z"/>
		<path fill="#9B9A9A" stroke="#2A271D" stroke-width="0.75" stroke-miterlimit="10" d="M54.717,116.816
			c-0.384,2.543-1.795,6.69-4.012,6.69H35.213c-2.217,0-3.552-3.095-4.013-6.69c-1.859-14.495-1.969-16.567,0-28.99
			c0.569-3.598,1.796-6.689,4.013-6.689h15.492c2.217,0,3.451,2.135,4.012,6.689C56.248,100.249,56.904,102.321,54.717,116.816z"/>
		
			<line fill="#9B9A9A" stroke="#2A271D" stroke-width="0.75" stroke-miterlimit="10" x1="55.817" y1="99.685" x2="29.47" y2="99.685"/>
		<path fill="#9B9A9A" stroke="#2A271D" stroke-width="0.75" stroke-miterlimit="10" d="M52.748,122.521
			c0,0-7.431,3.734-9.805,3.734s-9.992-3.734-9.992-3.734v-8.717h19.797V122.521z"/>
		
			<rect x="32.951" y="86.714" fill="#9B9A9A" stroke="#2A271D" stroke-width="0.75" stroke-miterlimit="10" width="19.797" height="27.111"/>
		<path fill="#9B9A9A" stroke="#2A271D" stroke-width="0.75" stroke-miterlimit="10" d="M35.846,86.714h-3.28
			c0,0,0.765-19.699,0.765-23.928h1.86C35.19,66.021,35.846,86.714,35.846,86.714z"/>
		<path fill="#9B9A9A" stroke="#2A271D" stroke-width="0.75" stroke-miterlimit="10" d="M44.284,86.714h-3.281
			c0,0,0.766-19.699,0.766-23.928h1.859C43.628,66.021,44.284,86.714,44.284,86.714z"/>
		<path fill="#9B9A9A" stroke="#2A271D" stroke-width="0.75" stroke-miterlimit="10" d="M52.748,86.714h-3.281
			c0,0,0.766-19.699,0.766-23.928h1.859C52.092,66.021,52.748,86.714,52.748,86.714z"/>
	</g>
	
		<rect x="27.795" y="171.24" fill="#9B9A9A" stroke="#2A271D" stroke-width="0.75" stroke-miterlimit="10" width="29.696" height="59.461"/>
	
		<line fill="none" stroke="#2A271D" stroke-width="0.75" stroke-miterlimit="10" x1="9.183" y1="266.944" x2="76.161" y2="266.944"/>
	
		<rect x="31.46" y="178.047" fill="#3A3A3A" stroke="#2A271D" stroke-width="0.75" stroke-miterlimit="10" width="22.967" height="12.834"/>
	
		<rect x="31.159" y="194.466" fill="#3A3A3A" stroke="#2A271D" stroke-width="0.75" stroke-miterlimit="10" width="22.967" height="12.833"/>
	
		<rect x="31.188" y="210.629" fill="#3A3A3A" stroke="#2A271D" stroke-width="0.75" stroke-miterlimit="10" width="22.967" height="12.834"/>
	<path fill="none" stroke="#2A271D" stroke-width="0.75" stroke-miterlimit="10" d="M3.501,153.815"/>
	<path fill="none" stroke="#2A271D" stroke-width="0.75" stroke-miterlimit="10" d="M27.795,171.24"/>
	
		<line fill="none" stroke="#2A271D" stroke-width="0.75" stroke-miterlimit="10" x1="57.491" y1="171.24" x2="82.376" y2="153.815"/>
	<line fill="none" stroke="#2A271D" stroke-width="0.75" stroke-miterlimit="10" x1="27.795" y1="171.24" x2="2.979" y2="153.815"/>
	<line fill="none" stroke="#2A271D" stroke-width="0.75" stroke-miterlimit="10" x1="12.325" y1="89.052" x2="23.137" y2="92.74"/>
	<line fill="none" stroke="#2A271D" stroke-width="0.75" stroke-miterlimit="10" x1="62.15" y1="92.74" x2="72.962" y2="89.052"/>
	<g>
		<g>
			<g>
				
					<circle fill-rule="evenodd" clip-rule="evenodd" fill="#9B9A9A" stroke="#2A271D" stroke-width="0.75" stroke-miterlimit="10" cx="14.805" cy="198.98" r="7.911"/>
				<path fill-rule="evenodd" clip-rule="evenodd" fill="#9B9A9A" stroke="#2A271D" stroke-width="0.75" stroke-miterlimit="10" d="
					M21.457,199.002c-1.93,1.517-4.292,3.383-4.292,3.383h-4.552c0,0-2.212-1.73-4.29-3.383l0,0c2.373-1.886,4.29-3.383,4.29-3.383
					h4.552C17.165,195.619,19.181,197.078,21.457,199.002L21.457,199.002z"/>
				
					<line fill="#9B9A9A" stroke="#2A271D" stroke-width="0.75" stroke-miterlimit="10" x1="8.323" y1="199.002" x2="21.457" y2="199.002"/>
				<path fill="#9B9A9A" stroke="#2A271D" stroke-width="0.75" stroke-miterlimit="10" d="M13.161,199.41
					c0,0-0.041,0.957-0.915,0.916c-0.875-0.041-0.875-0.975-0.875-0.975v-4.145h1.79V199.41z"/>
				<path fill="#9B9A9A" stroke="#2A271D" stroke-width="0.75" stroke-miterlimit="10" d="M18.335,199.469
					c0,0,0.092,0.84-0.84,0.857c-0.934,0.018-0.885-0.799-0.885-0.799v-4.32h1.725V199.469z"/>
				
					<line fill="#9B9A9A" stroke="#2A271D" stroke-width="0.75" stroke-miterlimit="10" x1="11.371" y1="196.297" x2="11.371" y2="192.587"/>
				
					<line fill="#9B9A9A" stroke="#2A271D" stroke-width="0.75" stroke-miterlimit="10" x1="13.161" y1="196.297" x2="13.161" y2="193.186"/>
				
					<line fill="#9B9A9A" stroke="#2A271D" stroke-width="0.75" stroke-miterlimit="10" x1="16.61" y1="196.297" x2="16.61" y2="193.186"/>
				
					<line fill="#9B9A9A" stroke="#2A271D" stroke-width="0.75" stroke-miterlimit="10" x1="18.335" y1="196.297" x2="18.335" y2="192.587"/>
				
					<line fill="#9B9A9A" stroke="#2A271D" stroke-width="0.75" stroke-miterlimit="10" x1="12.266" y1="195.207" x2="12.266" y2="192.781"/>
				
					<line fill="#9B9A9A" stroke="#2A271D" stroke-width="0.75" stroke-miterlimit="10" x1="17.473" y1="195.207" x2="17.473" y2="192.875"/>
			</g>
			
				<line fill="#9B9A9A" stroke="#2A271D" stroke-width="0.75" stroke-miterlimit="10" x1="11.371" y1="192.587" x2="13.161" y2="193.186"/>
			
				<line fill="#9B9A9A" stroke="#2A271D" stroke-width="0.75" stroke-miterlimit="10" x1="16.61" y1="193.186" x2="18.335" y2="192.587"/>
		</g>
		<g>
			<g>
				
					<circle fill-rule="evenodd" clip-rule="evenodd" fill="#9B9A9A" stroke="#2A271D" stroke-width="0.75" stroke-miterlimit="10" cx="69.934" cy="198.98" r="7.911"/>
				<path fill-rule="evenodd" clip-rule="evenodd" fill="#9B9A9A" stroke="#2A271D" stroke-width="0.75" stroke-miterlimit="10" d="
					M76.586,199.002c-1.93,1.517-4.292,3.383-4.292,3.383h-4.552c0,0-2.212-1.73-4.29-3.383l0,0c2.373-1.886,4.29-3.383,4.29-3.383
					h4.552C72.294,195.619,74.31,197.078,76.586,199.002L76.586,199.002z"/>
				
					<line fill="#9B9A9A" stroke="#2A271D" stroke-width="0.75" stroke-miterlimit="10" x1="63.452" y1="199.002" x2="76.586" y2="199.002"/>
				<path fill="#9B9A9A" stroke="#2A271D" stroke-width="0.75" stroke-miterlimit="10" d="M68.29,199.41
					c0,0-0.041,0.957-0.915,0.916c-0.875-0.041-0.875-0.975-0.875-0.975v-4.145h1.79V199.41z"/>
				<path fill="#9B9A9A" stroke="#2A271D" stroke-width="0.75" stroke-miterlimit="10" d="M73.464,199.469
					c0,0,0.092,0.84-0.84,0.857c-0.934,0.018-0.885-0.799-0.885-0.799v-4.32h1.725V199.469z"/>
				
					<line fill="#9B9A9A" stroke="#2A271D" stroke-width="0.75" stroke-miterlimit="10" x1="66.5" y1="196.297" x2="66.5" y2="192.587"/>
				
					<line fill="#9B9A9A" stroke="#2A271D" stroke-width="0.75" stroke-miterlimit="10" x1="68.29" y1="196.297" x2="68.29" y2="193.186"/>
				
					<line fill="#9B9A9A" stroke="#2A271D" stroke-width="0.75" stroke-miterlimit="10" x1="71.739" y1="196.297" x2="71.739" y2="193.186"/>
				
					<line fill="#9B9A9A" stroke="#2A271D" stroke-width="0.75" stroke-miterlimit="10" x1="73.464" y1="196.297" x2="73.464" y2="192.587"/>
				
					<line fill="#9B9A9A" stroke="#2A271D" stroke-width="0.75" stroke-miterlimit="10" x1="67.395" y1="195.207" x2="67.395" y2="192.781"/>
				
					<line fill="#9B9A9A" stroke="#2A271D" stroke-width="0.75" stroke-miterlimit="10" x1="72.602" y1="195.207" x2="72.602" y2="192.875"/>
			</g>
			
				<line fill="#9B9A9A" stroke="#2A271D" stroke-width="0.75" stroke-miterlimit="10" x1="66.5" y1="192.587" x2="68.29" y2="193.186"/>
			
				<line fill="#9B9A9A" stroke="#2A271D" stroke-width="0.75" stroke-miterlimit="10" x1="71.739" y1="193.186" x2="73.464" y2="192.587"/>
		</g>
	</g>
	
		<rect x="36.296" y="241.039" fill="#9B9A9A" stroke="#2A271D" stroke-width="0.75" stroke-miterlimit="10" width="13.106" height="8.814"/>
	<g>
		<path fill="#9B9A9A" stroke="#2A271D" stroke-width="0.75" stroke-miterlimit="10" d="M61.823,267.338
			c1.638-10.221-8.495-19.57-18.974-19.57s-20.612,9.35-18.974,19.57c0.422,2.627,2.877,4.775,3.004,7.238
			c0.397,7.656,8.072,12.332,15.97,12.332c8.132,0,15.264-4.475,16.223-12.332C59.453,271.448,61.44,269.727,61.823,267.338z"/>
		<path fill="#9B9A9A" stroke="#2A271D" stroke-width="0.75" stroke-miterlimit="10" d="M56.655,256.412
			c-0.446-2.063-2.09-5.428-4.668-5.428H33.966c-2.578,0-4.132,2.511-4.666,5.428c-2.165,11.764-2.292,13.445,0,23.526
			c0.662,2.92,2.088,5.429,4.666,5.429h18.021c2.578,0,4.014-1.732,4.668-5.429C58.437,269.857,59.2,268.176,56.655,256.412z"/>
		
			<line fill="#9B9A9A" stroke="#2A271D" stroke-width="0.75" stroke-miterlimit="10" x1="58.278" y1="268.766" x2="27.628" y2="268.766"/>
		<g>
			<path fill="#9B9A9A" stroke="#2A271D" stroke-width="0.75" stroke-miterlimit="10" d="M28.438,253.345l-5.963,0.784
				c0,0-0.238,0.904-0.238,2.988l0,0c0.196,2.092,0.421,2.756,0.798,4.404l3.273-0.699c1.768-1.982,2.099-2.461,2.099-2.752
				C28.407,258.07,28.407,253.805,28.438,253.345z"/>
			<polygon fill="#9B9A9A" stroke="#2A271D" stroke-width="0.75" stroke-miterlimit="10" points="31.333,251.771 28.407,253.408 
				28.407,258.395 31.333,259.576 			"/>
		</g>
		<g>
			<path fill="#9B9A9A" stroke="#2A271D" stroke-width="0.75" stroke-miterlimit="10" d="M57.26,253.345l5.964,0.784
				c0,0,0.237,0.904,0.237,2.988l0,0c-0.195,2.092-0.421,2.756-0.798,4.404l-3.272-0.699c-1.77-1.982-2.099-2.461-2.099-2.752
				C57.292,258.07,57.292,253.805,57.26,253.345z"/>
			<polygon fill="#9B9A9A" stroke="#2A271D" stroke-width="0.75" stroke-miterlimit="10" points="54.364,251.771 57.292,253.408 
				57.292,258.395 54.364,259.576 			"/>
		</g>
		<path fill="#9B9A9A" stroke="#2A271D" stroke-width="0.75" stroke-miterlimit="10" d="M54.364,251.783c0,0-8.644-3.03-11.406-3.03
			c-2.762,0-11.625,3.03-11.625,3.03v7.074h23.031V251.783z"/>
		
			<rect x="31.333" y="258.84" fill="#9B9A9A" stroke="#2A271D" stroke-width="0.75" stroke-miterlimit="10" width="23.031" height="22"/>
		<path fill="#9B9A9A" stroke="#2A271D" stroke-width="0.75" stroke-miterlimit="10" d="M36.296,280.84h-4.963
			c0,0,1.158,22.96,1.158,27.889h2.813C35.305,304.961,36.296,280.84,36.296,280.84z"/>
		<path fill="#9B9A9A" stroke="#2A271D" stroke-width="0.75" stroke-miterlimit="10" d="M54.364,280.84h-4.962
			c0,0,1.156,22.96,1.156,27.889h2.813C53.372,304.961,54.364,280.84,54.364,280.84z"/>
		<path fill="#9B9A9A" stroke="#2A271D" stroke-width="0.75" stroke-miterlimit="10" d="M45.44,280.84h-4.963
			c0,0,1.157,22.96,1.157,27.889h2.812C44.446,304.961,45.44,280.84,45.44,280.84z"/>
	</g>
</g>
</svg>
