<?xml version="1.0" encoding="utf-8"?>
<!-- Generator: Adobe Illustrator 16.0.0, SVG Export Plug-In . SVG Version: 6.00 Build 0)  -->
<!DOCTYPE svg PUBLIC "-//W3C//DTD SVG 1.1//EN" "http://www.w3.org/Graphics/SVG/1.1/DTD/svg11.dtd">
<svg version="1.1" id="Layer_1" xmlns="http://www.w3.org/2000/svg" xmlns:xlink="http://www.w3.org/1999/xlink" x="0px" y="0px"
	 width="110px" height="250px" viewBox="0 0 110 250" enable-background="new 0 0 110 250" xml:space="preserve">
<g>
	<g>
		<path fill="#6A6A6A" stroke="#2A271D" stroke-width="0.75" stroke-miterlimit="10" d="M0.355,218.989l46.653,10.672l-1.545-34.246
			c-21.954,18.36-43.173,15.107-43.173,15.107l-1.937,8.467H0.355z"/>
		
			<rect x="7.638" y="217.171" transform="matrix(-0.9748 -0.2229 0.2229 -0.9748 -22.4778 436.5462)" fill="#737373" stroke="#2A271D" stroke-width="0.5" stroke-miterlimit="10" width="11.515" height="4.742"/>
		
			<rect x="20.82" y="220.186" transform="matrix(-0.9748 -0.223 0.223 -0.9748 2.8676 445.436)" fill="#737373" stroke="#2A271D" stroke-width="0.5" stroke-miterlimit="10" width="11.515" height="4.74"/>
	</g>
	<g>
		<path fill="#6A6A6A" stroke="#2A271D" stroke-width="0.75" stroke-miterlimit="10" d="M106.939,243.37l-46.654-10.672
			l16.277-30.169c11.793,26.078,32.314,32.374,32.314,32.374L106.939,243.37L106.939,243.37z"/>
		
			<rect x="89.198" y="235.827" transform="matrix(-0.9748 -0.223 0.223 -0.9748 134.3994 491.5721)" fill="#737373" stroke="#2A271D" stroke-width="0.5" stroke-miterlimit="10" width="11.517" height="4.74"/>
		
			<rect x="76.018" y="232.812" transform="matrix(-0.9748 -0.223 0.223 -0.9748 109.0424 482.6769)" fill="#737373" stroke="#2A271D" stroke-width="0.5" stroke-miterlimit="10" width="11.513" height="4.739"/>
	</g>
	
		<linearGradient id="SVGID_1_" gradientUnits="userSpaceOnUse" x1="37.2012" y1="71.4438" x2="87.5352" y2="71.4438" gradientTransform="matrix(0.9748 0.223 0.223 -0.9748 -12.8793 241.0952)">
		<stop  offset="0" style="stop-color:#5D5C62"/>
		<stop  offset="0.1906" style="stop-color:#605F64"/>
		<stop  offset="0.3246" style="stop-color:#69686B"/>
		<stop  offset="0.4259" style="stop-color:#757575"/>
		<stop  offset="0.5699" style="stop-color:#757575"/>
		<stop  offset="0.6707" style="stop-color:#67676A"/>
		<stop  offset="0.7937" style="stop-color:#5F5F64"/>
		<stop  offset="1" style="stop-color:#5D5C62"/>
	</linearGradient>
	<path fill="url(#SVGID_1_)" stroke="#2A271D" stroke-width="0.75" stroke-miterlimit="10" d="M95.023,130.992l-7.875,13.792
		l-3.357-11.642l-4.404,4.736l-1.48-10.802l-9.025,6.964l1.293-5.655l-4.738-0.105l0.445,0.355l-10.094,2.82l4.975,2.506
		l-4.197,6.222l-1.856-4.015l-0.329,8.644l-5.294-5.209c-12.988,73.84,2.21,104.377,2.21,104.377s28.502-23.598,49.049-105.774
		L95.023,130.992z"/>
	
		<line fill="none" stroke="#2A271D" stroke-width="0.75" stroke-miterlimit="10" x1="61.439" y1="199.069" x2="54.073" y2="231.276"/>
	<path fill="#6A6A6A" stroke="#2A271D" stroke-width="0.25" stroke-miterlimit="10" d="M35.566,240.986l14.297,3.271
		C49.863,244.257,36.79,235.636,35.566,240.986z"/>
	<path fill="#6A6A6A" stroke="#2A271D" stroke-width="0.25" stroke-miterlimit="10" d="M66.558,248.076l-14.296-3.271
		C52.261,244.806,67.781,242.725,66.558,248.076z"/>
	<path fill="#6A6A6A" stroke="#2A271D" stroke-width="0.2" stroke-miterlimit="10" d="M53.61,245.16l-5.158-1.18
		c0.156-0.682,1.438-0.971,2.862-0.645C52.739,243.662,53.767,244.478,53.61,245.16z"/>
</g>
<g id="Layer_2">
</g>
<g>
	
		<linearGradient id="SVGID_2_" gradientUnits="userSpaceOnUse" x1="31.166" y1="184.1025" x2="81.499" y2="184.1025" gradientTransform="matrix(0.8693 -0.4943 -0.4943 -0.8693 97.0642 254.4879)">
		<stop  offset="0" style="stop-color:#5D5C62"/>
		<stop  offset="0.1906" style="stop-color:#605F64"/>
		<stop  offset="0.3246" style="stop-color:#69686B"/>
		<stop  offset="0.4259" style="stop-color:#757575"/>
		<stop  offset="0.5699" style="stop-color:#757575"/>
		<stop  offset="0.6707" style="stop-color:#67676A"/>
		<stop  offset="0.7937" style="stop-color:#5F5F64"/>
		<stop  offset="1" style="stop-color:#5D5C62"/>
	</linearGradient>
	<path fill="url(#SVGID_2_)" stroke="#2A271D" stroke-width="0.75" stroke-miterlimit="10" d="M81.741,126.808l1.948-11.233
		l8.39,6.963l0.047-6.468l10.342,6.313l-3.515-15.488l8.795,1.723c-1.587-2.927-3.235-5.904-4.967-8.949
		c-0.435-0.765-42.922-75.479-42.922-75.479C50.63,7.96,29.466-1.613,20.192,3.66c-13.69,7.785-9.966,35.069-4.271,45.084
		c0,0,33.756,59.362,41.526,73.026l2.071-7.055l3.565-0.229l-1.788,3.354l11.321,4.646l-5.163,2.936l7.855-0.535l3.564-3.124
		L81.741,126.808z"/>
	<g>
		
			<linearGradient id="SVGID_3_" gradientUnits="userSpaceOnUse" x1="57.9053" y1="195.2471" x2="57.3425" y2="136.7711" gradientTransform="matrix(0.8693 -0.4943 -0.4943 -0.8693 97.0642 254.4879)">
			<stop  offset="0" style="stop-color:#5D5C62"/>
			<stop  offset="0.172" style="stop-color:#757575"/>
			<stop  offset="0.7862" style="stop-color:#757575"/>
			<stop  offset="1" style="stop-color:#5D5C62"/>
		</linearGradient>
		<path fill="url(#SVGID_3_)" stroke="#2A271D" stroke-width="0.5" stroke-miterlimit="10" d="M65.16,68.648
			c7.503,13.195,14.684,38.646,14.684,38.646s-18.198-19.185-25.702-32.38l-6.186-10.878c-1.67-2.938,1.986-8.169,2.483-8.453l0,0
			c0,0,6.864-0.751,8.535,2.188L65.16,68.648z"/>
		<circle fill="#6A6A6A" stroke="#2A271D" stroke-width="0.4" stroke-miterlimit="10" cx="53.478" cy="60.927" r="1.677"/>
		<circle fill="#757575" stroke="#2A271D" stroke-width="0.5" stroke-miterlimit="10" cx="57.259" cy="67.576" r="3.1"/>
		<circle fill="#C1272D" stroke="#000000" stroke-width="0.25" stroke-miterlimit="10" cx="53.478" cy="60.927" r="1.045"/>
		
			<ellipse transform="matrix(-0.4944 -0.8693 0.8693 -0.4944 26.8253 150.7553)" fill="#737373" stroke="#2A271D" stroke-width="0.5" stroke-miterlimit="10" cx="57.259" cy="67.576" rx="0.772" ry="0.75"/>
	</g>
	
		<linearGradient id="SVGID_4_" gradientUnits="userSpaceOnUse" x1="22.666" y1="217.5703" x2="32.666" y2="217.5703" gradientTransform="matrix(0.8693 -0.4943 -0.4943 -0.8693 97.0642 254.4879)">
		<stop  offset="0" style="stop-color:#5D5C62"/>
		<stop  offset="0.8818" style="stop-color:#5D5C62"/>
		<stop  offset="1" style="stop-color:#5D5C62"/>
	</linearGradient>
	<polygon fill="url(#SVGID_4_)" stroke="#2A271D" stroke-width="0.75" stroke-miterlimit="10" points="7.131,50.482 15.823,45.539 
		20,52.884 11.308,57.828 	"/>
	
		<linearGradient id="SVGID_5_" gradientUnits="userSpaceOnUse" x1="79.749" y1="217.5693" x2="89.584" y2="217.5693" gradientTransform="matrix(0.8693 -0.4943 -0.4943 -0.8693 97.0642 254.4879)">
		<stop  offset="0" style="stop-color:#5D5C62"/>
		<stop  offset="0.8818" style="stop-color:#5D5C62"/>
		<stop  offset="1" style="stop-color:#5D5C62"/>
	</linearGradient>
	<polygon fill="url(#SVGID_5_)" stroke="#2A271D" stroke-width="0.75" stroke-miterlimit="10" points="56.752,22.265 65.301,17.403 
		69.479,24.75 60.929,29.611 	"/>
</g>
</svg>
