<?xml version="1.0" encoding="utf-8"?>
<!-- Generator: Adobe Illustrator 16.0.0, SVG Export Plug-In . SVG Version: 6.00 Build 0)  -->
<!DOCTYPE svg PUBLIC "-//W3C//DTD SVG 1.1//EN" "http://www.w3.org/Graphics/SVG/1.1/DTD/svg11.dtd">
<svg version="1.1" id="Layer_1" xmlns="http://www.w3.org/2000/svg" xmlns:xlink="http://www.w3.org/1999/xlink" x="0px" y="0px"
	 width="110px" height="250px" viewBox="0 0 110 250" enable-background="new 0 0 110 250" xml:space="preserve">
<g>
	<path fill="#6A6A6A" stroke="#2A271D" stroke-width="0.75" stroke-miterlimit="10" d="M0.437,236.189h47.859l-9.142-33.039
		c-17.308,22.794-38.718,24.354-38.718,24.354V236.189z"/>
	
		<rect x="7.515" y="231.449" fill="#737373" stroke="#2A271D" stroke-width="0.5" stroke-miterlimit="10" width="11.515" height="4.74"/>
	
		<rect x="21.038" y="231.449" fill="#737373" stroke="#2A271D" stroke-width="0.5" stroke-miterlimit="10" width="11.515" height="4.74"/>
</g>
<g>
	<path fill="#6A6A6A" stroke="#2A271D" stroke-width="0.75" stroke-miterlimit="10" d="M109.775,236.189H61.916l9.141-33.039
		c17.309,22.794,38.719,24.354,38.719,24.354V236.189z"/>
	
		<rect x="91.182" y="231.449" fill="#737373" stroke="#2A271D" stroke-width="0.5" stroke-miterlimit="10" width="11.516" height="4.74"/>
	
		<rect x="77.66" y="231.449" fill="#737373" stroke="#2A271D" stroke-width="0.5" stroke-miterlimit="10" width="11.514" height="4.74"/>
</g>
<linearGradient id="SVGID_1_" gradientUnits="userSpaceOnUse" x1="29.6675" y1="124.9102" x2="80" y2="124.9102">
	<stop  offset="0" style="stop-color:#5D5C62"/>
	<stop  offset="0.1906" style="stop-color:#605F64"/>
	<stop  offset="0.3246" style="stop-color:#69686B"/>
	<stop  offset="0.4259" style="stop-color:#757575"/>
	<stop  offset="0.5699" style="stop-color:#757575"/>
	<stop  offset="0.6707" style="stop-color:#67676A"/>
	<stop  offset="0.7937" style="stop-color:#5F5F64"/>
	<stop  offset="1" style="stop-color:#5D5C62"/>
</linearGradient>
<path fill="url(#SVGID_1_)" stroke="#2A271D" stroke-width="0.75" stroke-miterlimit="10" d="M80,124.91
	c0,92.582-24.333,124.283-24.333,124.283S29.667,217.492,29.667,124.91c0-0.807,0-87.205,0-87.205
	c0-11.521,10.25-37.079,25.999-37.079C66.334,0.626,80,19.409,80,38.08C80,38.08,80,124.03,80,124.91z"/>
<line fill="none" stroke="#2A271D" stroke-width="0.75" stroke-miterlimit="10" x1="55.542" y1="203.15" x2="55.542" y2="236.189"/>
<path fill="#6A6A6A" stroke="#2A271D" stroke-width="0.25" stroke-miterlimit="10" d="M39.667,249.781h14.666
	C54.333,249.781,39.667,244.293,39.667,249.781z"/>
<path fill="#6A6A6A" stroke="#2A271D" stroke-width="0.25" stroke-miterlimit="10" d="M71.459,249.781H56.793
	C56.793,249.781,71.459,244.293,71.459,249.781z"/>
<path fill="#6A6A6A" stroke="#2A271D" stroke-width="0.2" stroke-miterlimit="10" d="M58.188,249.826h-5.292
	c0-0.699,1.185-1.266,2.646-1.266C57.004,248.561,58.188,249.127,58.188,249.826z"/>
<g>
	<linearGradient id="SVGID_2_" gradientUnits="userSpaceOnUse" x1="56.4072" y1="61.4165" x2="55.8444" y2="119.8925">
		<stop  offset="0" style="stop-color:#5D5C62"/>
		<stop  offset="0.172" style="stop-color:#757575"/>
		<stop  offset="0.7862" style="stop-color:#757575"/>
		<stop  offset="1" style="stop-color:#5D5C62"/>
	</linearGradient>
	<path fill="url(#SVGID_2_)" stroke="#2A271D" stroke-width="0.5" stroke-miterlimit="10" d="M62.631,79.346
		c0,15.18-6.338,40.853-6.338,40.853s-6.337-25.673-6.337-40.853V66.832c0-3.379,5.765-6.12,6.337-6.12l0,0
		c0,0,6.338,2.74,6.338,6.12V79.346z"/>
	<circle fill="#6A6A6A" stroke="#2A271D" stroke-width="0.4" stroke-miterlimit="10" cx="56.292" cy="66.86" r="1.677"/>
	<circle fill="#757575" stroke="#2A271D" stroke-width="0.5" stroke-miterlimit="10" cx="56.293" cy="74.509" r="3.1"/>
	<circle fill="#C1272D" stroke="#000000" stroke-width="0.25" stroke-miterlimit="10" cx="56.293" cy="66.86" r="1.045"/>
	
		<ellipse fill="#737373" stroke="#2A271D" stroke-width="0.5" stroke-miterlimit="10" cx="56.293" cy="74.509" rx="0.75" ry="0.772"/>
</g>
<linearGradient id="SVGID_3_" gradientUnits="userSpaceOnUse" x1="21.1675" y1="39.0957" x2="31.1675" y2="39.0957">
	<stop  offset="0" style="stop-color:#5D5C62"/>
	<stop  offset="0.8818" style="stop-color:#5D5C62"/>
	<stop  offset="1" style="stop-color:#5D5C62"/>
</linearGradient>
<rect x="21.167" y="34.87" fill="url(#SVGID_3_)" stroke="#2A271D" stroke-width="0.75" stroke-miterlimit="10" width="10" height="8.451"/>
<linearGradient id="SVGID_4_" gradientUnits="userSpaceOnUse" x1="78.25" y1="39.0957" x2="88.084" y2="39.0957">
	<stop  offset="0" style="stop-color:#5D5C62"/>
	<stop  offset="0.8818" style="stop-color:#5D5C62"/>
	<stop  offset="1" style="stop-color:#5D5C62"/>
</linearGradient>
<rect x="78.25" y="34.87" fill="url(#SVGID_4_)" stroke="#2A271D" stroke-width="0.75" stroke-miterlimit="10" width="9.834" height="8.451"/>
</svg>
